<svg width="24" height="24" viewBox="0 0 24 24" fill="none" xmlns="http://www.w3.org/2000/svg">
<path fill-rule="evenodd" clip-rule="evenodd" d="M8 0C3.58172 0 0 3.58172 0 8V16C0 20.4183 3.58172 24 8 24H23.52C23.7851 24 24 23.7851 24 23.52V8C24 3.58172 20.4183 0 16 0H8ZM9.33333 4C6.38781 4 4 6.38781 4 9.33333V14.6667C4 17.6122 6.38781 20 9.33333 20H19.68C19.8567 20 20 19.8567 20 19.68V9.33333C20 6.38781 17.6122 4 14.6667 4H9.33333Z" fill="#DB2627"/>
<path d="M7.78991 12.4554C7.18366 12.6592 6.84773 13.3248 7.17166 13.8763C7.56458 14.5452 8.09445 15.129 8.73117 15.5868C9.68331 16.2714 10.8263 16.6398 11.9991 16.6401C13.1718 16.6404 14.315 16.2725 15.2674 15.5883C15.9044 15.1308 16.4345 14.5472 16.8277 13.8785C17.1519 13.3271 16.8163 12.6614 16.2101 12.4573C15.604 12.2532 14.96 12.5999 14.5592 13.0983C14.3744 13.328 14.1585 13.5331 13.9162 13.7072C13.3577 14.1084 12.6873 14.3241 11.9996 14.324C11.3119 14.3238 10.6416 14.1078 10.0833 13.7063C9.84108 13.5321 9.62524 13.3269 9.44058 13.0971C9.03994 12.5986 8.39616 12.2516 7.78991 12.4554Z" fill="black"/>
</svg>
