<svg width="24" height="24" viewBox="0 0 24 24" fill="none" xmlns="http://www.w3.org/2000/svg">
<path fill-rule="evenodd" clip-rule="evenodd" d="M8 0C3.58172 0 0 3.58172 0 8V16C0 20.4183 3.58172 24 8 24H23.52C23.7851 24 24 23.7851 24 23.52V8C24 3.58172 20.4183 0 16 0H8ZM9.33333 4C6.38781 4 4 6.38781 4 9.33333V14.6667C4 17.6122 6.38781 20 9.33333 20H19.68C19.8567 20 20 19.8567 20 19.68V9.33333C20 6.38781 17.6122 4 14.6667 4H9.33333Z" fill="#DB2627"/>
<path d="M7.78991 12.4553C7.18366 12.6591 6.84773 13.3247 7.17166 13.8762C7.56458 14.5451 8.09445 15.1289 8.73117 15.5867C9.68331 16.2713 10.8263 16.6397 11.9991 16.64C13.1718 16.6403 14.315 16.2724 15.2674 15.5882C15.9044 15.1307 16.4345 14.5471 16.8277 13.8784C17.1519 13.327 16.8163 12.6613 16.2101 12.4572C15.604 12.2531 14.96 12.5998 14.5592 13.0982C14.3744 13.3279 14.1585 13.533 13.9162 13.7071C13.3577 14.1083 12.6873 14.324 11.9996 14.3239C11.3119 14.3237 10.6416 14.1077 10.0833 13.7062C9.84108 13.532 9.62524 13.3268 9.44058 13.097C9.03994 12.5985 8.39616 12.2515 7.78991 12.4553Z" fill="white"/>
</svg>
