<svg
    width="220"
    height="118"
    viewBox="0 0 400 215"
    fill="none"
    xmlns="http://www.w3.org/2000/svg"
>
    <path
        d="M398.412 214.651H0.590868C-1.34299 196.204 1.41959 171.626 9.62531 152.462C20.6048 126.79 43.8454 102.908 92.3768 103.389C196.65 104.422 188.648 47.8577 261.639 44.2377C291.365 42.7634 309.49 69.4543 304.144 107.586C295.101 172.091 397.088 125.328 398.412 214.651Z"
        fill="#B4E2EF"
    />
    <path
        d="M188.701 76.2118H177.701C174.808 76.2118 172.44 78.5791 172.44 81.4719V90.5308C172.44 93.4237 174.808 95.7908 177.701 95.7908H188.701C191.594 95.7908 193.961 93.4237 193.961 90.5308V81.4719C193.961 78.5791 191.594 76.2118 188.701 76.2118Z"
        fill="#93B3F4"
    />
    <path
        d="M174.525 81.8853L189.405 80.6014L181.633 85.6494L174.525 81.8853Z"
        fill="#585DAC"
    />
    <path
        d="M182.144 93.6506L189.406 80.6014L181.618 85.6258L182.144 93.6506Z"
        fill="white"
    />
    <path
        d="M195.727 108.138H172.719C172.719 108.138 162.518 108.828 166.18 125.953C169.842 143.078 181.873 177.784 178.211 188.282H203.844L195.727 108.138Z"
        fill="#A2A2D4"
    />
    <path
        d="M247.705 170.811C244.659 155.859 239.756 130.639 237.155 117.202C236.137 111.939 231.528 108.138 226.166 108.138H189.973C183.026 108.138 177.756 114.399 178.944 121.243L188.968 179.003C189.979 184.828 195.346 188.862 201.223 188.215L237.962 184.168C244.507 183.447 249.019 177.262 247.705 170.811Z"
        fill="white"
    />
    <path
        d="M150.537 191.583C149.807 199.938 145.088 202.518 143.013 202.296C140.938 202.074 128.803 197.442 128.54 199.141C128.275 200.841 135.58 206.395 140.694 206.654C140.694 206.654 131.037 217.304 124.619 214.23C118.2 211.156 117.653 206.285 113.652 204.458C109.65 202.631 106.236 202.636 107.888 204.5C109.539 206.362 116.781 208.173 119.068 212.221C119.608 213.175 120.135 214.057 120.539 214.835L107.025 214.807C102.739 212.679 99.13 209.742 98.8606 206.577C98.8395 206.335 98.8204 206.104 98.8027 205.883C98.3864 201.014 98.3864 201.014 98.3864 201.014C98.3864 201.014 91.4465 192.92 95.0544 186.205C95.6528 185.09 96.543 184.012 97.8044 183.016C97.8044 183.016 104.272 179.1 109.546 179.42C109.546 179.42 105.459 186.271 104.309 190.343C103.902 191.778 103.862 192.869 104.491 193.193C105.18 193.549 106.071 192.515 106.994 190.858C109.305 186.707 111.81 178.633 111.81 178.633C111.81 178.633 115.699 178.255 120.124 178.199C122.11 178.173 124.203 178.212 126.102 178.378C128.198 178.562 130.055 178.902 131.263 179.483C131.263 179.483 130.998 179.699 130.555 180.07C129.895 180.623 128.837 181.52 127.661 182.56C124.171 185.646 119.636 189.998 121.331 190.39C122.703 190.708 127.011 188.149 130.845 185.609C134.414 183.246 137.57 180.899 137.57 180.899C137.57 180.899 151.268 183.229 150.537 191.583Z"
        fill="#93B3F4"
    />
    <path
        d="M143.806 191.809C143.806 191.809 106.601 190.376 98.3852 201.014C98.3852 201.014 96.568 206.455 90.9765 211.41L90.105 213.785C90.105 213.785 96.552 206.988 98.8589 206.577C98.8589 206.577 95.2513 193.397 143.806 191.809Z"
        fill="#93B3F4"
    />
    <path
        d="M92.5415 211.348C92.2222 211.698 91.7448 212.174 91.061 212.805L91.0463 212.819C90.8092 213.038 90.5787 213.275 90.3546 213.527C90.0093 213.909 89.6788 214.327 89.3626 214.772L87.624 214.768C89.4144 212.566 90.9771 211.41 90.9771 211.41C90.9771 211.41 90.9788 211.408 90.9819 211.406C91.1173 211.324 94.322 209.387 92.5415 211.348Z"
        fill="#93B3F4"
    />
    <path
        d="M57.7715 187.172C57.7715 187.172 72.7818 178.768 65.777 167.362C65.777 167.362 60.1729 160.358 54.169 158.557C54.169 158.557 57.3714 175.566 54.169 175.966C50.967 176.366 51.9674 156.756 51.9674 156.756C51.9674 156.756 36.1566 149.152 29.9523 149.753C29.9523 149.753 39.7589 166.361 36.5569 165.961C33.3547 165.561 22.3471 148.752 22.3471 148.752C22.3471 148.752 6.13589 145.75 3.53421 155.355C0.932519 164.96 5.1353 169.763 7.53695 170.363C9.93879 170.963 25.3489 170.763 24.949 172.764C24.5485 174.765 14.1416 177.967 8.3375 176.166C8.3375 176.166 14.7419 191.974 23.1477 191.174C31.5534 190.373 34.1551 185.171 39.3589 184.771C44.5624 184.37 48.3651 185.771 45.7632 187.172C43.1615 188.572 34.3555 187.631 30.1525 191.203C25.9496 194.775 22.5473 196.977 30.3528 198.577C38.158 200.178 52.1676 199.178 54.9695 193.175C57.7715 187.172 57.7715 187.172 57.7715 187.172Z"
        fill="#A2A2D4"
    />
    <path
        d="M10.9395 158.357C10.9395 158.357 52.9683 171.964 57.7715 187.172C57.7715 187.172 57.5715 193.975 61.7743 201.779V204.781C61.7743 204.781 57.3713 194.575 54.9696 193.175C54.9696 193.175 64.3762 179.968 10.9395 158.357Z"
        fill="#585DAC"
    />
    <path
        d="M65.6671 214.739L63.2655 214.735C63.1897 211.261 62.788 207.362 61.6028 204.392C61.6028 204.39 61.6028 204.39 61.6028 204.39C61.4543 204.018 61.2946 203.661 61.1204 203.321C61.1188 203.318 61.1173 203.313 61.1156 203.31C60.6173 202.334 60.2801 201.615 60.0673 201.094L60.0658 201.092C58.8366 198.08 61.7737 201.779 61.7737 201.779C61.7737 201.779 65.296 207.128 65.6671 214.739Z"
        fill="#585DAC"
    />
    <path
        d="M81.6514 175.581C81.6514 175.581 61.8651 164.503 71.0986 149.467C71.0986 149.467 78.4855 140.236 86.4001 137.862C86.4001 137.862 82.179 160.282 86.4001 160.81C90.6212 161.337 89.3021 135.487 89.3021 135.487C89.3021 135.487 110.144 125.464 118.322 126.256C118.322 126.256 105.395 148.149 109.616 147.621C113.837 147.094 128.347 124.937 128.347 124.937C128.347 124.937 149.716 120.98 153.146 133.641C156.576 146.302 151.036 152.633 147.87 153.424C144.704 154.215 124.39 153.952 124.918 156.589C125.445 159.227 139.164 163.447 146.814 161.073C146.814 161.073 138.372 181.911 127.292 180.856C116.212 179.801 112.782 172.943 105.923 172.416C99.0636 171.888 94.051 173.734 97.4807 175.581C100.91 177.427 112.518 176.186 118.058 180.895C123.598 185.604 128.083 188.506 117.795 190.616C107.506 192.726 89.0384 191.407 85.3451 183.494C81.6514 175.581 81.6514 175.581 81.6514 175.581Z"
        fill="#585DAC"
    />
    <path
        d="M143.384 137.598C143.384 137.598 87.9823 155.535 81.6508 175.581C81.6508 175.581 81.9147 184.55 76.3745 194.837V198.793C76.3745 198.793 82.1784 185.341 85.3443 183.495C85.3443 183.494 72.9449 166.085 143.384 137.598Z"
        fill="#A2A2D4"
    />
    <path
        d="M78.6285 193.926C78.6267 193.93 78.6254 193.931 78.6254 193.933C78.3447 194.621 77.8995 195.573 77.2417 196.861C77.24 196.865 77.2382 196.866 77.2367 196.869C77.0077 197.316 76.798 197.787 76.6028 198.275C76.6013 198.275 76.6013 198.277 76.6013 198.279C74.7046 203.031 74.3288 209.589 74.3996 214.757L71.2208 214.751C70.8415 203.239 76.3754 194.836 76.3754 194.836C76.3754 194.836 76.3754 194.836 76.3769 194.834C76.461 194.729 80.2267 190.008 78.6285 193.926Z"
        fill="#A2A2D4"
    />
    <path
        d="M256.987 123.93L262.993 187.051C262.993 187.051 256.171 194.334 229.167 196.831C228.494 196.897 227.809 196.96 227.108 197.013C211.608 198.265 205.855 178.273 203.843 159.613C202.125 143.699 203.129 128.753 203.129 128.753C239.313 113.521 256.987 123.93 256.987 123.93Z"
        fill="#585DAC"
    />
    <path
        d="M315.911 174.137C310.551 176.625 278.67 178.713 275.608 177.831C274.037 177.378 267.465 171.59 260.852 164.469C260.846 164.465 260.846 164.465 260.846 164.465C254.588 157.729 248.279 149.801 246.151 144.096C241.774 132.372 245.537 121.963 245.537 121.963C245.537 121.963 253.671 121.929 256.988 123.93C260.305 125.937 279.265 160.851 281.8 161.772C284.335 162.699 314.37 164.415 317.809 166.047C317.809 166.047 321.266 171.649 315.911 174.137Z"
        fill="#585DAC"
    />
    <path
        d="M238.175 121.885L238.167 123.859C238.167 123.859 238.714 130.031 231.113 130.944C223.512 131.86 217.747 128.557 217.946 123.794C218.625 120.104 219.373 117.57 219.419 114.518C219.436 113.384 219.357 112.181 219.143 110.822L233.874 110.506L238.214 111.208L238.175 121.885Z"
        fill="#E8BDD1"
    />
    <path
        d="M238.215 111.208L238.175 121.885C236.612 122.615 234.847 123.062 232.867 123.065C226.096 123.075 219.357 112.181 219.144 110.823L238.215 111.208Z"
        fill="#585DAC"
    />
    <path
        d="M239.083 116.395C239.083 116.395 220.221 120.235 218.011 108.454C215.799 96.6728 211.876 89.2344 223.825 86.2844C235.775 83.3349 238.965 87.39 240.659 91.1426C242.354 94.8953 243.932 115.092 239.083 116.395Z"
        fill="#E8BDD1"
    />
    <path
        d="M244.314 82.382C244.314 82.382 239.052 81.9855 232.842 79.2975C227.802 77.1157 221.451 79.5368 219.39 80.6265C219.445 80.294 219.577 79.84 219.891 79.3846C219.891 79.3846 218.966 80.0427 218.831 80.9608C218.736 81.031 218.693 81.0798 218.718 81.0958C218.718 81.0958 217.668 80.9056 216.994 81.2102C216.994 81.2102 217.465 81.1419 217.635 81.4453C217.653 81.4771 217.679 81.5045 217.71 81.5286C209.859 85.3366 209.153 97.7528 211.685 100.622C214.733 104.073 218.393 111.851 218.393 111.851C218.393 111.851 219.72 110.01 219.162 106.969C218.604 103.929 221.231 103.925 224.548 102.537C227.864 101.15 225.093 97.2832 227.993 94.9282C230.893 92.5737 241.542 93.9398 241.401 92.1428C245.351 90.6971 244.315 82.7869 244.314 82.382Z"
        fill="#585DAC"
    />
    <path
        d="M229.167 196.831C228.494 196.897 227.809 196.96 227.108 197.014C211.608 198.266 205.855 178.273 203.843 159.613C205.716 160.535 231.125 173.464 229.167 196.831Z"
        fill="#585DAC"
    />
    <path
        d="M215.418 179.417C215.418 179.417 220.883 175.871 222.692 176.194C224.501 176.517 231.899 178.689 232.915 179.899C234.5 181.784 237.299 184.781 235.705 185.099C234.111 185.417 220.039 186.123 218.417 185.984C216.795 185.845 213.015 184.265 215.418 179.417Z"
        fill="#E8BDD1"
    />
    <path
        d="M209.765 126.566C209.765 126.566 198.359 129.119 192.648 135.676C187.457 141.636 172.421 170.737 168.283 181.205C167.624 182.872 169.479 186.499 170.972 187.493C174.709 189.98 182.403 191.785 201.44 188.645L218.457 186.164C218.457 186.164 219.699 178.522 215.999 176.928L188.444 176.546C188.444 176.546 204.227 160.214 207.276 155.519C210.325 150.823 209.765 126.566 209.765 126.566Z"
        fill="#585DAC"
    />
    <path
        d="M315.91 174.137C310.549 176.625 278.669 178.713 275.606 177.832C274.036 177.378 267.463 171.59 260.851 164.469C261.177 164.512 271.581 165.992 277.989 171.533C277.989 171.533 281.6 173.139 291.427 172.24C301.255 171.34 313.875 171.01 315.91 174.137Z"
        fill="#585DAC"
    />
    <path
        d="M211.659 125.504C211.659 125.504 199.724 128.17 195.805 131.475C191.887 134.779 192.647 135.676 192.647 135.676C192.647 135.676 194.154 137.96 200.221 135.453C206.288 132.946 214.232 127.988 214.232 127.988C214.232 127.988 213.991 125.57 211.659 125.504Z"
        fill="#585DAC"
    />
    <path
        d="M240.433 120.473C240.433 120.473 241.152 122.207 242.24 122.443C243.328 122.68 254.146 125.593 255.567 124.762C256.987 123.93 253.019 120.547 247.316 120.305C241.613 120.063 240.433 120.473 240.433 120.473Z"
        fill="#585DAC"
    />
    <path
        d="M284.59 182.803H248.144C248.144 181.199 249.445 179.898 251.049 179.898H284.59V182.803Z"
        fill="white"
    />
    <path
        d="M284.485 143.117H340.833L327.318 182.803H270.604L284.485 143.117Z"
        fill="white"
    />
    <path
        d="M341.664 143.116L328.149 182.803H271.435L285.317 143.116H341.664Z"
        fill="#E8BDD1"
    />
    <path
        d="M311.284 162.593C310.934 164.109 309.42 165.338 307.904 165.338C306.387 165.338 305.442 164.109 305.792 162.593C306.142 161.077 307.655 159.848 309.172 159.848C310.689 159.848 311.634 161.077 311.284 162.593Z"
        fill="#A2A2D4"
    />
    <path
        d="M341.663 143.116L328.148 182.803H301.765L333.365 143.116H341.663Z"
        fill="#E8BDD1"
    />
    <path
        d="M354.741 214.652H128.178L134.028 198.479C137.431 189.071 146.365 182.804 156.373 182.804H333.158C340.523 182.804 346.998 187.679 349.031 194.758L354.741 214.652Z"
        fill="#A2A2D4"
    />
    <path
        d="M400 214.652H181.479L181.055 206.495C180.384 193.615 190.649 182.803 203.55 182.803H378.419C385.783 182.803 392.259 187.679 394.291 194.757L400 214.652Z"
        fill="#A2A2D4"
    />
    <path
        d="M400 214.652H266.555C259.141 201.789 252.387 190.193 247.932 182.803H378.419C385.784 182.803 392.259 187.679 394.291 194.757L400 214.652Z"
        fill="#A2A2D4"
    />
    <path
        d="M221.729 39.5164H200.936C194.709 39.5164 189.614 34.4225 189.614 28.1966V11.3199C189.614 5.09389 194.709 0 200.936 0H221.729C227.956 0 233.05 5.09408 233.05 11.3197V28.1966C233.05 34.4225 227.956 39.5164 221.729 39.5164Z"
        fill="#E8BDD1"
    />
    <path
        d="M199.789 19.4342C200.996 22.6135 211.338 30.9626 211.338 30.9626C211.338 30.9626 214.71 28.2243 217.832 25.2751C220.168 23.0922 222.352 20.7938 222.869 19.4342C224.095 16.2746 222.793 11.7547 218.272 10.9888C213.771 10.2225 211.338 14.934 211.338 14.934C211.338 14.934 208.906 10.2225 204.386 10.9888C203.6 11.1231 202.911 11.3719 202.317 11.7167C199.502 13.2869 198.793 16.8301 199.789 19.4342Z"
        fill="white"
    />
    <path
        d="M213.353 59.0312C213.014 58.8871 212.622 59.0454 212.478 59.3843C212.334 59.7234 212.492 60.1149 212.831 60.2588C213.17 60.4029 213.562 60.2447 213.706 59.9056C213.85 59.5666 213.692 59.1749 213.353 59.0312Z"
        fill="#E8BDD1"
    />
    <path
        d="M208.539 53.5162C207.896 53.2435 207.154 53.543 206.881 54.1854C206.608 54.8281 206.908 55.5698 207.551 55.8428C208.193 56.1155 208.935 55.8161 209.208 55.1735C209.481 54.531 209.181 53.7891 208.539 53.5162Z"
        fill="#E8BDD1"
    />
    <path
        d="M205.595 44.3953C204.575 43.9621 203.397 44.4379 202.963 45.4578C202.53 46.4777 203.006 47.6555 204.026 48.0887C205.046 48.5219 206.224 48.0461 206.657 47.0264C207.091 46.0061 206.615 44.8283 205.595 44.3953Z"
        fill="#E8BDD1"
    />
    <path
        d="M311.048 68.0277H258.133C256.677 68.0277 255.487 69.2183 255.487 70.6733V97.5108C255.487 98.966 256.677 100.156 258.133 100.156H262.606L260.447 109.278L274.007 100.156H311.048C312.504 100.156 313.695 98.966 313.695 97.5108V70.6733C313.695 69.2183 312.504 68.0277 311.048 68.0277Z"
        fill="#A2A2D4"
    />
    <path
        d="M308.018 79.987H261.273C260.636 79.987 260.116 80.5079 260.116 81.1444C260.116 81.7811 260.636 82.3016 261.273 82.3016H308.018C308.655 82.3016 309.176 81.7811 309.176 81.1444C309.176 80.5079 308.655 79.987 308.018 79.987Z"
        fill="white"
    />
    <path
        d="M308.018 85.1676H261.273C260.636 85.1676 260.116 85.6885 260.116 86.325C260.116 86.9617 260.636 87.4826 261.273 87.4826H308.018C308.655 87.4826 309.176 86.9617 309.176 86.325C309.176 85.6885 308.655 85.1676 308.018 85.1676Z"
        fill="white"
    />
    <path
        d="M308.018 90.3484H261.273C260.636 90.3484 260.116 90.8692 260.116 91.5059C260.116 92.1424 260.636 92.6633 261.273 92.6633H308.018C308.655 92.6633 309.176 92.1424 309.176 91.5059C309.176 90.8692 308.655 90.3484 308.018 90.3484Z"
        fill="white"
    />
    <path
        d="M262.707 74.2551H282.552C283.31 74.2551 283.93 73.6352 283.93 72.8772C283.93 72.1192 283.31 71.4993 282.552 71.4993H262.707C261.949 71.4993 261.329 72.1194 261.329 72.8772C261.329 73.635 261.949 74.2551 262.707 74.2551Z"
        fill="white"
    />
    <path
        d="M287.665 74.255H299.606C300.205 74.255 300.695 73.765 300.695 73.1661V72.5885C300.695 71.9894 300.205 71.4995 299.606 71.4995H287.665C287.066 71.4995 286.576 71.9896 286.576 72.5885V73.1661C286.576 73.7652 287.066 74.255 287.665 74.255Z"
        fill="white"
    />
</svg>