<svg width="400" height="215" viewBox="0 0 400 215" fill="none" xmlns="http://www.w3.org/2000/svg">
<path d="M398.412 214.651H0.590868C-1.34299 196.204 1.41959 171.626 9.62531 152.462C20.6048 126.79 43.8454 102.908 92.3768 103.389C196.65 104.422 188.648 47.8577 261.639 44.2377C291.365 42.7634 309.49 69.4543 304.144 107.586C295.101 172.091 397.088 125.328 398.412 214.651Z" fill="#333333"/>
<path d="M188.701 76.2118H177.701C174.808 76.2118 172.44 78.5791 172.44 81.4719V90.5308C172.44 93.4237 174.808 95.7908 177.701 95.7908H188.701C191.594 95.7908 193.961 93.4237 193.961 90.5308V81.4719C193.961 78.5791 191.594 76.2118 188.701 76.2118Z" fill="#585DAC"/>
<path d="M174.524 81.8853L189.405 80.6014L181.633 85.6494L174.524 81.8853Z" fill="#F84F46"/>
<path d="M182.143 93.6506L189.405 80.6014L181.617 85.6259L182.143 93.6506Z" fill="white"/>
<path d="M195.728 108.138H172.719C172.719 108.138 162.518 108.828 166.18 125.953C169.842 143.078 181.874 177.784 178.212 188.282H203.845L195.728 108.138Z" fill="#3F365D"/>
<path d="M247.706 170.81C244.66 155.859 239.757 130.639 237.156 117.202C236.138 111.938 231.529 108.138 226.167 108.138H189.974C183.027 108.138 177.757 114.399 178.945 121.243L188.969 179.003C189.98 184.827 195.347 188.862 201.224 188.214L237.963 184.168C244.508 183.447 249.02 177.262 247.706 170.81Z" fill="#EAEEF3"/>
<path d="M150.538 191.583C149.807 199.938 145.088 202.518 143.014 202.296C140.939 202.074 128.804 197.442 128.541 199.141C128.276 200.841 135.581 206.395 140.695 206.654C140.695 206.654 131.038 217.304 124.62 214.23C118.201 211.156 117.654 206.285 113.653 204.458C109.651 202.631 106.237 202.636 107.889 204.5C109.54 206.362 116.782 208.173 119.069 212.221C119.609 213.175 120.136 214.057 120.54 214.835L107.026 214.807C102.74 212.679 99.131 209.742 98.8615 206.577C98.8405 206.335 98.8214 206.104 98.8037 205.883C98.3874 201.014 98.3874 201.014 98.3874 201.014C98.3874 201.014 91.4475 192.92 95.0553 186.205C95.6537 185.09 96.544 184.012 97.8054 183.016C97.8054 183.016 104.273 179.1 109.547 179.42C109.547 179.42 105.46 186.271 104.31 190.343C103.903 191.778 103.863 192.869 104.492 193.193C105.181 193.549 106.072 192.515 106.995 190.858C109.306 186.707 111.811 178.633 111.811 178.633C111.811 178.633 115.7 178.255 120.125 178.199C122.111 178.173 124.204 178.212 126.103 178.378C128.199 178.562 130.056 178.902 131.264 179.483C131.264 179.483 130.999 179.699 130.556 180.07C129.896 180.623 128.838 181.52 127.662 182.56C124.172 185.646 119.637 189.998 121.332 190.39C122.704 190.708 127.012 188.149 130.846 185.609C134.415 183.246 137.571 180.899 137.571 180.899C137.571 180.899 151.269 183.229 150.538 191.583Z" fill="#6FA735"/>
<path d="M143.808 191.809C143.808 191.809 106.603 190.375 98.3866 201.014C98.3866 201.014 96.5695 206.455 90.978 211.41L90.1064 213.784C90.1064 213.784 96.5535 206.988 98.8604 206.577C98.8604 206.577 95.2527 193.397 143.808 191.809Z" fill="#6B3946"/>
<path d="M92.5425 211.348C92.2232 211.698 91.7458 212.174 91.062 212.805L91.0473 212.819C90.8102 213.038 90.5797 213.275 90.3556 213.527C90.0103 213.909 89.6798 214.327 89.3636 214.772L87.625 214.768C89.4153 212.566 90.978 211.41 90.978 211.41C90.978 211.41 90.9798 211.408 90.9829 211.406C91.1183 211.324 94.323 209.387 92.5425 211.348Z" fill="#6B3946"/>
<path d="M57.772 187.172C57.772 187.172 72.7823 178.768 65.7774 167.362C65.7774 167.362 60.1734 160.358 54.1695 158.557C54.1695 158.557 57.3719 175.566 54.1695 175.966C50.9675 176.366 51.9679 156.756 51.9679 156.756C51.9679 156.756 36.1571 149.152 29.9528 149.753C29.9528 149.753 39.7594 166.361 36.5574 165.961C33.3552 165.561 22.3476 148.752 22.3476 148.752C22.3476 148.752 6.13638 145.75 3.53469 155.355C0.933007 164.96 5.13579 169.763 7.53744 170.363C9.93928 170.963 25.3493 170.763 24.9495 172.764C24.549 174.765 14.1421 177.967 8.33799 176.166C8.33799 176.166 14.7424 191.974 23.1481 191.174C31.5539 190.373 34.1556 185.171 39.3593 184.771C44.5629 184.37 48.3656 185.771 45.7637 187.172C43.162 188.572 34.356 187.631 30.153 191.203C25.9501 194.775 22.5478 196.977 30.3533 198.577C38.1585 200.178 52.1681 199.178 54.97 193.175C57.7719 187.172 57.772 187.172 57.772 187.172Z" fill="#6FA735"/>
<path d="M10.9395 158.357C10.9395 158.357 52.9683 171.964 57.7715 187.172C57.7715 187.172 57.5715 193.975 61.7743 201.779V204.781C61.7743 204.781 57.3713 194.575 54.9696 193.175C54.9696 193.175 64.3762 179.968 10.9395 158.357Z" fill="#6B3946"/>
<path d="M65.6676 214.739L63.266 214.735C63.1901 211.261 62.7885 207.362 61.6033 204.392C61.6033 204.39 61.6033 204.39 61.6033 204.39C61.4548 204.018 61.2951 203.661 61.1209 203.321C61.1193 203.318 61.1178 203.313 61.116 203.31C60.6178 202.334 60.2806 201.615 60.0678 201.094L60.0663 201.092C58.8371 198.08 61.7742 201.779 61.7742 201.779C61.7742 201.779 65.2965 207.128 65.6676 214.739Z" fill="#6B3946"/>
<path d="M81.6524 175.581C81.6524 175.581 61.8661 164.503 71.0996 149.467C71.0996 149.467 78.4864 140.236 86.4011 137.861C86.4011 137.861 82.18 160.282 86.4011 160.81C90.6222 161.337 89.3031 135.487 89.3031 135.487C89.3031 135.487 110.145 125.464 118.323 126.256C118.323 126.256 105.396 148.149 109.617 147.621C113.838 147.094 128.348 124.936 128.348 124.936C128.348 124.936 149.717 120.98 153.147 133.641C156.577 146.302 151.037 152.633 147.871 153.424C144.705 154.215 124.391 153.952 124.919 156.589C125.446 159.227 139.165 163.447 146.815 161.073C146.815 161.073 138.373 181.911 127.293 180.856C116.213 179.801 112.783 172.943 105.924 172.415C99.0646 171.888 94.052 173.734 97.4816 175.581C100.911 177.427 112.519 176.186 118.059 180.895C123.599 185.604 128.084 188.506 117.796 190.616C107.507 192.726 89.0394 191.407 85.3461 183.494C81.6524 175.581 81.6524 175.581 81.6524 175.581Z" fill="#7EC03E"/>
<path d="M143.386 137.598C143.386 137.598 87.9837 155.535 81.6523 175.581C81.6523 175.581 81.9162 184.55 76.376 194.837V198.793C76.376 198.793 82.1799 185.341 85.3458 183.494C85.3458 183.494 72.9464 166.085 143.386 137.598Z" fill="#6B3946"/>
<path d="M78.6294 193.926C78.6277 193.93 78.6264 193.931 78.6264 193.932C78.3457 194.621 77.9005 195.573 77.2427 196.861C77.2409 196.864 77.2392 196.866 77.2377 196.869C77.0087 197.316 76.799 197.787 76.6038 198.275C76.6022 198.275 76.6022 198.277 76.6022 198.279C74.7056 203.031 74.3298 209.589 74.4006 214.757L71.2218 214.751C70.8425 203.239 76.3763 194.836 76.3763 194.836C76.3763 194.836 76.3763 194.836 76.3779 194.834C76.462 194.729 80.2276 190.008 78.6294 193.926Z" fill="#6B3946"/>
<path d="M256.988 123.93L262.993 187.051C262.993 187.051 256.172 194.334 229.167 196.831C228.494 196.897 227.81 196.96 227.108 197.013C211.609 198.265 205.855 178.273 203.843 159.613C202.125 143.699 203.13 128.753 203.13 128.753C239.313 113.521 256.988 123.93 256.988 123.93Z" fill="#F84F46"/>
<path d="M315.912 174.137C310.551 176.625 278.67 178.713 275.608 177.831C274.038 177.378 267.465 171.59 260.852 164.469C260.846 164.465 260.846 164.465 260.846 164.465C254.589 157.729 248.28 149.801 246.152 144.096C241.775 132.372 245.537 121.963 245.537 121.963C245.537 121.963 253.672 121.929 256.988 123.93C260.305 125.937 279.265 160.851 281.8 161.772C284.335 162.699 314.371 164.415 317.809 166.047C317.809 166.047 321.267 171.649 315.912 174.137Z" fill="#F84F46"/>
<path d="M238.175 121.885L238.168 123.859C238.168 123.859 238.715 130.031 231.114 130.944C223.512 131.86 217.748 128.557 217.946 123.794C218.626 120.104 219.373 117.57 219.42 114.518C219.437 113.384 219.357 112.181 219.144 110.822L233.875 110.506L238.215 111.208L238.175 121.885Z" fill="#FCC4AD"/>
<path d="M238.216 111.208L238.176 121.885C236.613 122.615 234.848 123.062 232.868 123.065C226.097 123.075 219.358 112.181 219.145 110.822L238.216 111.208Z" fill="#F84F46"/>
<path d="M239.083 116.395C239.083 116.395 220.222 120.235 218.011 108.454C215.8 96.6728 211.877 89.2344 223.826 86.2844C235.775 83.3349 238.965 87.3899 240.66 91.1426C242.354 94.8953 243.933 115.092 239.083 116.395Z" fill="#FCC4AD"/>
<path d="M244.315 82.382C244.315 82.382 239.053 81.9855 232.843 79.2975C227.802 77.1157 221.452 79.5368 219.39 80.6265C219.445 80.294 219.578 79.84 219.892 79.3846C219.892 79.3846 218.967 80.0427 218.831 80.9608C218.736 81.031 218.694 81.0798 218.718 81.0958C218.718 81.0958 217.668 80.9056 216.994 81.2102C216.994 81.2102 217.466 81.1419 217.635 81.4453C217.653 81.4771 217.679 81.5045 217.711 81.5286C209.859 85.3366 209.153 97.7528 211.686 100.622C214.733 104.073 218.393 111.851 218.393 111.851C218.393 111.851 219.72 110.01 219.162 106.969C218.605 103.929 221.232 103.925 224.548 102.537C227.865 101.15 225.093 97.2832 227.993 94.9282C230.893 92.5737 241.543 93.9398 241.401 92.1428C245.351 90.6971 244.316 82.7869 244.315 82.382Z" fill="#814350"/>
<path d="M229.168 196.831C228.495 196.897 227.81 196.96 227.109 197.014C211.609 198.265 205.856 178.273 203.844 159.613C205.717 160.535 231.126 173.464 229.168 196.831Z" fill="#F84F46"/>
<path d="M215.419 179.417C215.419 179.417 220.884 175.871 222.693 176.194C224.502 176.517 231.9 178.689 232.916 179.899C234.501 181.784 237.3 184.781 235.706 185.099C234.112 185.417 220.04 186.123 218.418 185.984C216.796 185.845 213.016 184.265 215.419 179.417Z" fill="#FCC4AD"/>
<path d="M209.766 126.566C209.766 126.566 198.359 129.119 192.648 135.676C187.457 141.636 172.422 170.737 168.283 181.205C167.624 182.872 169.48 186.499 170.972 187.493C174.709 189.98 182.404 191.785 201.44 188.645L218.458 186.164C218.458 186.164 219.7 178.522 216 176.928L188.444 176.546C188.444 176.546 204.228 160.214 207.277 155.519C210.326 150.823 209.766 126.566 209.766 126.566Z" fill="#F84F46"/>
<path d="M315.911 174.137C310.55 176.625 278.67 178.713 275.607 177.832C274.037 177.378 267.464 171.59 260.852 164.469C261.178 164.512 271.582 165.992 277.99 171.533C277.99 171.533 281.601 173.139 291.428 172.24C301.256 171.34 313.876 171.01 315.911 174.137Z" fill="#F84F46"/>
<path d="M211.659 125.504C211.659 125.504 199.724 128.17 195.805 131.475C191.887 134.779 192.647 135.676 192.647 135.676C192.647 135.676 194.154 137.96 200.221 135.453C206.288 132.946 214.232 127.988 214.232 127.988C214.232 127.988 213.991 125.57 211.659 125.504Z" fill="#F84F46"/>
<path d="M240.434 120.473C240.434 120.473 241.153 122.207 242.241 122.443C243.329 122.68 254.147 125.593 255.567 124.762C256.987 123.93 253.019 120.547 247.316 120.305C241.614 120.063 240.434 120.473 240.434 120.473Z" fill="#F84F46"/>
<path d="M284.59 182.803H248.145C248.145 181.199 249.445 179.898 251.05 179.898H284.59V182.803Z" fill="white"/>
<path d="M284.486 143.117H340.834L327.319 182.803H270.605L284.486 143.117Z" fill="white"/>
<path d="M341.664 143.116L328.149 182.803H271.436L285.317 143.116H341.664Z" fill="white"/>
<path d="M311.283 162.593C310.933 164.109 309.42 165.338 307.903 165.338C306.387 165.338 305.441 164.109 305.792 162.593C306.142 161.077 307.655 159.848 309.172 159.848C310.688 159.848 311.633 161.077 311.283 162.593Z" fill="#6B3946"/>
<path d="M341.664 143.116L328.149 182.803H301.766L333.366 143.116H341.664Z" fill="#EAEEF3"/>
<path d="M354.741 214.652H128.178L134.028 198.479C137.431 189.071 146.365 182.804 156.373 182.804H333.158C340.523 182.804 346.998 187.679 349.031 194.758L354.741 214.652Z" fill="#3F365D"/>
<path d="M400 214.652H181.479L181.055 206.495C180.384 193.615 190.649 182.803 203.55 182.803H378.419C385.783 182.803 392.259 187.679 394.29 194.757L400 214.652Z" fill="#3F365D"/>
<path d="M400.001 214.652H266.556C259.142 201.789 252.388 190.193 247.933 182.803H378.42C385.784 182.803 392.26 187.679 394.291 194.757L400.001 214.652Z" fill="#3F365D"/>
<path d="M221.729 39.5164H200.936C194.709 39.5164 189.614 34.4225 189.614 28.1966V11.3199C189.614 5.09389 194.709 0 200.936 0H221.729C227.956 0 233.05 5.09408 233.05 11.3197V28.1966C233.05 34.4225 227.956 39.5164 221.729 39.5164Z" fill="#DB2627"/>
<path d="M199.789 19.4342C200.996 22.6135 211.339 30.9626 211.339 30.9626C211.339 30.9626 214.71 28.2242 217.832 25.2751C220.169 23.0922 222.353 20.7937 222.87 19.4342C224.095 16.2746 222.793 11.7547 218.273 10.9888C213.771 10.2225 211.339 14.9339 211.339 14.9339C211.339 14.9339 208.907 10.2225 204.386 10.9888C203.601 11.123 202.911 11.3718 202.317 11.7167C199.502 13.2868 198.793 16.8301 199.789 19.4342Z" fill="white"/>
<path d="M213.354 59.0312C213.015 58.8871 212.623 59.0455 212.479 59.3844C212.335 59.7234 212.493 60.1149 212.832 60.2588C213.171 60.4029 213.563 60.2447 213.707 59.9057C213.851 59.5666 213.693 59.1749 213.354 59.0312Z" fill="#DB2627"/>
<path d="M208.54 53.5162C207.897 53.2435 207.155 53.543 206.882 54.1855C206.609 54.8281 206.909 55.5699 207.552 55.8428C208.194 56.1155 208.936 55.8162 209.209 55.1735C209.482 54.5311 209.182 53.7891 208.54 53.5162Z" fill="#DB2627"/>
<path d="M205.595 44.3953C204.575 43.9621 203.397 44.4379 202.964 45.4578C202.531 46.4777 203.006 47.6556 204.027 48.0888C205.047 48.5219 206.225 48.0461 206.658 47.0264C207.091 46.0061 206.615 44.8283 205.595 44.3953Z" fill="#DB2627"/>
<path d="M311.049 68.0277H258.133C256.678 68.0277 255.487 69.2183 255.487 70.6733V97.5108C255.487 98.966 256.678 100.156 258.133 100.156H262.607L260.447 109.278L274.007 100.156H311.049C312.504 100.156 313.695 98.966 313.695 97.5108V70.6733C313.695 69.2183 312.504 68.0277 311.049 68.0277Z" fill="#585DAC"/>
<path d="M308.019 79.987H261.274C260.637 79.987 260.116 80.5079 260.116 81.1444C260.116 81.7811 260.637 82.3016 261.274 82.3016H308.019C308.655 82.3016 309.176 81.7811 309.176 81.1444C309.176 80.5079 308.655 79.987 308.019 79.987Z" fill="white"/>
<path d="M308.019 85.1676H261.274C260.637 85.1676 260.116 85.6885 260.116 86.325C260.116 86.9617 260.637 87.4826 261.274 87.4826H308.019C308.655 87.4826 309.176 86.9617 309.176 86.325C309.176 85.6885 308.655 85.1676 308.019 85.1676Z" fill="white"/>
<path d="M308.019 90.3485H261.274C260.637 90.3485 260.116 90.8692 260.116 91.5059C260.116 92.1424 260.637 92.6633 261.274 92.6633H308.019C308.655 92.6633 309.176 92.1424 309.176 91.5059C309.176 90.8692 308.655 90.3485 308.019 90.3485Z" fill="white"/>
<path d="M262.707 74.2551H282.552C283.31 74.2551 283.93 73.6352 283.93 72.8772C283.93 72.1193 283.31 71.4994 282.552 71.4994H262.707C261.949 71.4994 261.329 72.1194 261.329 72.8772C261.329 73.635 261.949 74.2551 262.707 74.2551Z" fill="white"/>
<path d="M287.665 74.2551H299.607C300.205 74.2551 300.696 73.765 300.696 73.1661V72.5885C300.696 71.9894 300.206 71.4995 299.607 71.4995H287.665C287.067 71.4995 286.576 71.9896 286.576 72.5885V73.1661C286.576 73.7652 287.067 74.2551 287.665 74.2551Z" fill="white"/>
</svg>
