<svg width="150" height="150" viewBox="0 0 150 150" fill="none" xmlns="http://www.w3.org/2000/svg">
<path d="M135.377 111.632C133.378 112.678 131.315 113.599 129.202 114.391C122.476 116.908 115.351 118.19 108.169 118.176C80.446 118.176 56.2964 99.1058 56.2964 74.6339C56.3319 71.3517 57.2427 68.1384 58.9348 65.3257C60.627 62.513 63.0391 60.2029 65.9222 58.6338C40.8469 59.6884 34.4023 85.8182 34.4023 101.127C34.4023 144.411 74.2944 148.799 82.8891 148.799C87.5233 148.799 94.5128 147.452 98.7076 146.128L99.4751 145.87C115.617 140.29 129.379 129.38 138.494 114.936C138.773 114.496 138.898 113.976 138.848 113.457C138.799 112.939 138.578 112.451 138.22 112.072C137.863 111.693 137.389 111.444 136.874 111.364C136.36 111.285 135.833 111.379 135.377 111.632Z" fill="url(#paint0_linear_906_3628)"/>
<path opacity="0.35" d="M135.377 111.632C133.378 112.678 131.315 113.599 129.202 114.391C122.476 116.908 115.351 118.19 108.169 118.176C80.446 118.176 56.2964 99.1058 56.2964 74.6339C56.3319 71.3517 57.2427 68.1384 58.9348 65.3257C60.627 62.513 63.0391 60.2029 65.9222 58.6338C40.8469 59.6884 34.4023 85.8182 34.4023 101.127C34.4023 144.411 74.2944 148.799 82.8891 148.799C87.5233 148.799 94.5128 147.452 98.7076 146.128L99.4751 145.87C115.617 140.29 129.379 129.38 138.494 114.936C138.773 114.496 138.898 113.976 138.848 113.457C138.799 112.939 138.578 112.451 138.22 112.072C137.863 111.693 137.389 111.444 136.874 111.364C136.36 111.285 135.833 111.379 135.377 111.632Z" fill="url(#paint1_radial_906_3628)"/>
<path d="M61.9453 141.441C56.7197 138.198 52.191 133.948 48.6226 128.939C44.5554 123.366 41.7566 116.972 40.4225 110.203C39.0884 103.434 39.2513 96.456 40.8998 89.7571C42.5483 83.0581 45.6424 76.801 49.9652 71.4245C54.288 66.0481 59.7348 61.6825 65.9234 58.6339C67.7513 57.7727 70.874 56.2143 75.0279 56.2904C77.9543 56.3117 80.8361 57.0105 83.4474 58.3319C86.0587 59.6532 88.3285 61.5614 90.0789 63.9068C92.4448 67.0657 93.7492 70.8929 93.805 74.8391C93.805 74.7161 108.135 28.2037 46.9353 28.2037C21.2155 28.2037 0.0655583 52.6112 0.0655583 74.0248C-0.0358917 85.3523 2.3878 96.5601 7.16047 106.834C14.9603 123.476 28.6002 136.674 45.4899 143.922C62.3796 151.17 81.343 151.964 98.7791 146.151C92.674 148.076 86.2241 148.654 79.8742 147.845C73.5242 147.036 67.4253 144.859 61.9981 141.464L61.9453 141.441Z" fill="url(#paint2_linear_906_3628)"/>
<path opacity="0.41" d="M61.9453 141.441C56.7197 138.198 52.191 133.948 48.6226 128.939C44.5554 123.366 41.7566 116.972 40.4225 110.203C39.0884 103.434 39.2513 96.456 40.8998 89.7571C42.5483 83.0581 45.6424 76.801 49.9652 71.4245C54.288 66.0481 59.7348 61.6825 65.9234 58.6339C67.7513 57.7727 70.874 56.2143 75.0279 56.2904C77.9543 56.3117 80.8361 57.0105 83.4474 58.3319C86.0587 59.6532 88.3285 61.5614 90.0789 63.9068C92.4448 67.0657 93.7492 70.8929 93.805 74.8391C93.805 74.7161 108.135 28.2037 46.9353 28.2037C21.2155 28.2037 0.0655583 52.6112 0.0655583 74.0248C-0.0358917 85.3523 2.3878 96.5601 7.16047 106.834C14.9603 123.476 28.6002 136.674 45.4899 143.922C62.3796 151.17 81.343 151.964 98.7791 146.151C92.674 148.076 86.2241 148.654 79.8742 147.845C73.5242 147.036 67.4253 144.859 61.9981 141.464L61.9453 141.441Z" fill="url(#paint3_radial_906_3628)"/>
<path d="M89.2459 87.2129C88.7713 87.8281 87.3125 88.6776 87.3125 90.5289C87.3125 92.0581 88.3085 93.5286 90.0778 94.7648C98.5026 100.623 114.386 99.8501 114.427 99.8501C120.669 99.8352 126.794 98.1458 132.161 94.9581C137.576 91.7965 142.07 87.2741 145.197 81.8396C148.324 76.4051 149.976 70.2473 149.989 63.9772C150.141 50.8478 145.302 42.1183 143.345 38.2516C130.931 13.9672 104.133 3.67132e-07 74.9916 3.67132e-07C55.284 -0.00194836 36.3676 7.75401 22.3339 21.5904C8.30019 35.4268 0.277139 54.2313 0 73.937C0.281218 52.5293 21.5601 35.2402 46.8697 35.2402C48.9203 35.2402 60.6143 35.4394 71.4764 41.1399C81.0495 46.1667 86.0646 52.2363 89.5505 58.2532C93.1712 64.5045 93.8157 72.402 93.8157 75.5482C93.8157 78.6943 92.2104 83.3578 89.2459 87.2129Z" fill="url(#paint4_radial_906_3628)"/>
<path d="M89.2459 87.2129C88.7713 87.8281 87.3125 88.6776 87.3125 90.5289C87.3125 92.0581 88.3085 93.5286 90.0778 94.7648C98.5026 100.623 114.386 99.8501 114.427 99.8501C120.669 99.8352 126.794 98.1458 132.161 94.9581C137.576 91.7965 142.07 87.2741 145.197 81.8396C148.324 76.4051 149.976 70.2473 149.989 63.9772C150.141 50.8478 145.302 42.1183 143.345 38.2516C130.931 13.9672 104.133 3.67132e-07 74.9916 3.67132e-07C55.284 -0.00194836 36.3676 7.75401 22.3339 21.5904C8.30019 35.4268 0.277139 54.2313 0 73.937C0.281218 52.5293 21.5601 35.2402 46.8697 35.2402C48.9203 35.2402 60.6143 35.4394 71.4764 41.1399C81.0495 46.1667 86.0646 52.2363 89.5505 58.2532C93.1712 64.5045 93.8157 72.402 93.8157 75.5482C93.8157 78.6943 92.2104 83.3578 89.2459 87.2129Z" fill="url(#paint5_radial_906_3628)"/>
<defs>
<linearGradient id="paint0_linear_906_3628" x1="34.4023" y1="103.728" x2="138.887" y2="103.728" gradientUnits="userSpaceOnUse">
<stop stop-color="#0C59A4"/>
<stop offset="1" stop-color="#114A8B"/>
</linearGradient>
<radialGradient id="paint1_radial_906_3628" cx="0" cy="0" r="1" gradientUnits="userSpaceOnUse" gradientTransform="translate(92.1107 104.552) scale(55.8805 53.0864)">
<stop offset="0.72" stop-opacity="0"/>
<stop offset="0.95" stop-opacity="0.53"/>
<stop offset="1"/>
</radialGradient>
<linearGradient id="paint2_linear_906_3628" x1="89.4872" y1="58.4054" x2="24.2269" y2="129.489" gradientUnits="userSpaceOnUse">
<stop stop-color="#1B9DE2"/>
<stop offset="0.16" stop-color="#1595DF"/>
<stop offset="0.67" stop-color="#0680D7"/>
<stop offset="1" stop-color="#0078D4"/>
</linearGradient>
<radialGradient id="paint3_radial_906_3628" cx="0" cy="0" r="1" gradientUnits="userSpaceOnUse" gradientTransform="translate(41.3604 116.593) rotate(-81.3844) scale(84.0293 67.8872)">
<stop offset="0.76" stop-opacity="0"/>
<stop offset="0.95" stop-opacity="0.5"/>
<stop offset="1"/>
</radialGradient>
<radialGradient id="paint4_radial_906_3628" cx="0" cy="0" r="1" gradientUnits="userSpaceOnUse" gradientTransform="translate(15.1521 27.7567) rotate(92.2906) scale(118.693 252.791)">
<stop stop-color="#35C1F1"/>
<stop offset="0.11" stop-color="#34C1ED"/>
<stop offset="0.23" stop-color="#2FC2DF"/>
<stop offset="0.31" stop-color="#2BC3D2"/>
<stop offset="0.67" stop-color="#36C752"/>
</radialGradient>
<radialGradient id="paint5_radial_906_3628" cx="0" cy="0" r="1" gradientUnits="userSpaceOnUse" gradientTransform="translate(140.652 45.3501) rotate(73.7398) scale(57.0288 46.3758)">
<stop stop-color="#66EB6E"/>
<stop offset="1" stop-color="#66EB6E" stop-opacity="0"/>
</radialGradient>
</defs>
</svg>
