<?xml version="1.0" encoding="utf-8"?>
<!-- Generator: Adobe Illustrator 21.1.0, SVG Export Plug-In . SVG Version: 6.00 Build 0)  -->
<svg version="1.1" id="圖層_1" xmlns="http://www.w3.org/2000/svg" xmlns:xlink="http://www.w3.org/1999/xlink" x="0px" y="0px"
	 viewBox="0 0 479 389" style="enable-background:new 0 0 479 389;" xml:space="preserve">
<style type="text/css">
	.st0{fill:#FFF;}
	.st1{fill:none;stroke:#FFF;stroke-width:2;stroke-linecap:square;}
</style>
<g id="Group" transform="translate(103.000000, 134.000000)">
	<path id="_x34_" class="st0" d="M70.1,2v73.6h18.2v7.8H70.1v50.1h-9.7V83.4H1.1v-3.2L66.5,2H70.1z M60.4,75.6V20.9L14.6,75.6H60.4z
		"/>
	<path id="_x34_-copy" class="st0" d="M271.6,2v73.6h18.2v7.8h-18.2v50.1h-9.7V83.4h-59.4v-3.2L268,2H271.6z M261.9,75.6V20.9
		l-45.9,54.7H261.9z"/>
	<path id="Oval-2" class="st0" d="M146.8,152c-34,0-61.6-27.5-61.6-61.5s27.6-61.5,61.6-61.5s61.6,27.5,61.6,61.5
		S180.9,152,146.8,152z M146.8,144.1c29.7,0,53.7-24,53.7-53.5S176.5,37,146.8,37S93.1,61,93.1,90.5S117.2,144.1,146.8,144.1z"/>
</g>
<path id="Line" class="st1" d="M396.5,324.5l81-95"/>
<path id="Line_1_" class="st1" d="M335.5,119.5L452.8,2.2"/>
<path id="Line_2_" class="st1" d="M87.5,50.5l116,58"/>
<path id="Line_3_" class="st1" d="M1.5,324.5l119-54"/>
<g id="Group-2" transform="translate(0.000000, 209.000000)">
	<polygon id="Path" class="st0" points="17,27 14.2,27 14.2,5.7 10.4,15.9 7.7,15.9 4,5.7 4,27 1.2,27 1.2,2.2 4.9,2.2 9.1,13.5 
		13.2,2.2 17,2.2 	"/>
</g>
<g id="Group-3" transform="translate(59.000000, 146.000000)">
	<polygon id="Path_1_" class="st0" points="21.4,27 18.4,27 15.7,18.3 7.5,18.3 4.8,27 1.8,27 9.9,2.2 13.3,2.2 	"/>
	<polygon id="Path_2_" class="st0" points="14.9,15.8 11.6,5.5 8.4,15.8 	"/>
</g>
<polygon id="Path_3_" class="st0" points="181.2,15.3 173.5,15.3 173.5,37.8 170.7,37.8 170.7,15.3 163,15.3 163,13 181.2,13 "/>
<polygon id="Path_4_" class="st0" points="149.6,347 137.4,351.2 129.3,327.8 141.5,323.6 142.3,326 132.9,329.2 135.4,336.5 
	144.4,333.4 145.2,335.7 136.2,338.9 139.3,347.9 148.8,344.6 "/>
<g id="Group-4" transform="translate(452.000000, 134.500000) rotate(44.000000) translate(-452.000000, -134.500000) translate(443.000000, 122.000000)">
	<path id="Path_5_" class="st0" d="M19.3,25.7l-3.6,0L8.5,14.5l-3.2,0l0,11.3l-2.9,0l0-24.8l7,0c2.4,0,4.2,0.6,5.6,1.7s2,2.7,2,4.8
		c0,1.5-0.5,2.9-1.5,4s-2.4,2-4.1,2.4L19.3,25.7z"/>
	<path id="Path_6_" class="st0" d="M5.3,12l3.6,0c1.5,0,2.8-0.4,3.7-1.2C13.5,9.9,14,8.9,14,7.6c0-2.8-1.7-4.1-5.1-4.1l-3.7,0
		L5.3,12z"/>
</g>
<polygon id="Path_7_" class="st0" points="424.3,91.8 413,91.8 413,89.3 417.3,89.3 417.3,69.5 413,69.5 413,67 424.3,67 
	424.3,69.5 420.2,69.5 420.2,89.3 424.3,89.3 "/>
<g id="Group-5" transform="translate(313.000000, 296.000000)">
	<polygon id="Path_8_" class="st0" points="21.5,27 18.4,27 15.7,18.3 7.6,18.3 4.8,27 1.8,27 9.9,2.2 13.4,2.2 	"/>
	<polygon id="Path_9_" class="st0" points="14.9,15.8 11.6,5.5 8.4,15.8 	"/>
</g>
<polygon id="Path_10_" class="st0" points="246.2,81.4 235.1,73.7 249.3,53.4 251.7,55 238.9,73.3 247.6,79.4 "/>
<g id="Group-6" transform="translate(52.000000, 321.000000)">
	<path id="Path_11_" class="st0" d="M18.4,27h-3.6L7.5,15.7H4.3V27H1.4V2.2h7c2.4,0,4.2,0.6,5.6,1.7s2,2.7,2,4.8
		c0,1.5-0.5,2.9-1.5,4s-2.4,2-4.1,2.4L18.4,27z"/>
	<path id="Path_12_" class="st0" d="M4.3,13.2H8c1.5,0,2.8-0.4,3.7-1.2s1.4-1.9,1.4-3.1c0-2.8-1.7-4.1-5.1-4.1H4.3V13.2z"/>
</g>
<polygon id="Path_13_" class="st0" points="76.2,255.3 65.3,248.3 78.8,227.5 89.6,234.5 88.2,236.6 79.8,231.2 75.7,237.6 
	83.7,242.8 82.3,244.9 74.3,239.7 69.1,247.7 77.5,253.2 "/>
<g id="Group-7" transform="translate(112.000000, 102.500000) rotate(16.000000) translate(-112.000000, -102.500000) translate(103.000000, 87.000000)">
	<path id="Path_14_" class="st0" d="M19.4,31.7c-1,0.3-2,0.5-3,0.5c-2.6,0-4.2-1.4-5-4.2c-0.5,0.1-0.8,0.1-1.2,0.1
		c-2.8,0-4.9-1.1-6.3-3.3s-2.2-5.4-2.2-9.6s0.7-7.4,2.2-9.6s3.6-3.3,6.3-3.3s4.9,1.1,6.4,3.3s2.2,5.4,2.2,9.6
		c0,6.1-1.5,10.1-4.6,11.9c0.4,1.7,1.3,2.6,2.5,2.6c0.7,0,1.4-0.1,2.2-0.3L19.4,31.7z"/>
	<path id="Path_15_" class="st0" d="M10.2,25.6c3.7,0,5.5-3.4,5.5-10.3c0-6.9-1.8-10.4-5.5-10.4c-1.8,0-3.1,0.9-4.1,2.7
		s-1.4,4.3-1.4,7.7c0,3.4,0.5,5.9,1.4,7.7S8.4,25.6,10.2,25.6z"/>
</g>
<path id="Path_16_" class="st0" d="M253.2,331.3c-1,2.7-2.3,4.4-3.9,5.2s-3.5,0.8-5.7-0.1c-4.5-1.7-5.7-5.1-3.8-10.2l6.1-15.9l2.7,1
	l-6,15.7c-1.4,3.7-0.8,6.1,1.9,7.1c1.3,0.5,2.5,0.5,3.5-0.2c1-0.6,1.8-1.9,2.6-3.9l6-15.7l2.7,1L253.2,331.3z"/>
<polygon id="Path_17_" class="st0" points="104.3,388.8 93,388.8 93,386.3 97.3,386.3 97.3,366.5 93,366.5 93,364 104.3,364 
	104.3,366.5 100.2,366.5 100.2,386.3 104.3,386.3 "/>
<g id="Group-8" transform="translate(452.000000, 323.000000)">
	<path id="Path_18_" class="st0" d="M18.4,27h-3.6L7.5,15.7H4.3V27H1.4V2.2h7c2.4,0,4.2,0.6,5.6,1.7s2,2.7,2,4.8
		c0,1.5-0.5,2.9-1.5,4s-2.4,2-4.1,2.4L18.4,27z"/>
	<path id="Path_19_" class="st0" d="M4.3,13.2H8c1.5,0,2.8-0.4,3.7-1.2s1.4-1.9,1.4-3.1c0-2.8-1.7-4.1-5.1-4.1H4.3V13.2z"/>
</g>
<polygon id="Path_20_" class="st0" points="379,388.8 366,388.8 366,364 378.8,364 378.8,366.5 368.9,366.5 368.9,374.2 
	378.5,374.2 378.5,376.7 368.9,376.7 368.9,386.3 379,386.3 "/>
<polygon id="Path_21_" class="st0" points="284.8,144.8 282,144.8 282,123.5 278.2,133.7 275.5,133.7 271.8,123.5 271.8,144.8 
	269,144.8 269,120 272.7,120 276.9,131.3 281,120 284.8,120 "/>
<polygon id="Path_22_" class="st0" points="30,72.8 17,72.8 17,48 29.8,48 29.8,50.5 19.9,50.5 19.9,58.2 29.5,58.2 29.5,60.7 
	19.9,60.7 19.9,70.3 30,70.3 "/>
<polygon id="Path_23_" class="st0" points="74,109.6 71.5,111.5 52.4,101.6 64.5,117 62.2,118.8 47,99.2 49.5,97.3 68.5,107.1 
	56.5,91.8 58.8,90 "/>
<polygon id="Path_24_" class="st0" points="424.2,243.3 416.5,243.3 416.5,265.8 413.7,265.8 413.7,243.3 406,243.3 406,241 
	424.2,241 "/>
<path id="Path_25_" class="st0" d="M326.1,38.2c-1.5-0.5-2.9-0.8-4.2-0.8c-1.5,0-2.7,0.3-3.7,1s-1.4,1.7-1.4,2.9
	c0,1.5,1.2,2.8,3.7,4c1.8,0.8,3,1.4,3.6,1.8s1.2,0.8,1.8,1.4s1.1,1.3,1.5,2s0.6,1.7,0.6,2.6c0,2.4-0.8,4.3-2.4,5.6s-3.5,2-5.7,2
	c-2.1,0-4-0.4-5.6-1.3l0.6-2.5c1.9,0.9,3.5,1.3,4.9,1.3c1.6,0,3-0.4,3.9-1.3s1.5-2,1.5-3.5c0-1.1-0.3-2-1-2.8s-1.8-1.5-3.6-2.3
	c-1.8-0.8-2.9-1.4-3.5-1.7s-1-0.7-1.6-1.2s-0.9-1.1-1.2-1.8s-0.4-1.4-0.4-2.1c0-2.1,0.7-3.7,2.2-4.8s3.3-1.7,5.6-1.7
	c1.7,0,3.3,0.3,4.9,0.8L326.1,38.2z"/>
</svg>
