<svg width="60" height="60" viewBox="0 0 60 60" fill="none" xmlns="http://www.w3.org/2000/svg">
<mask id="mask0_47_1432" style="mask-type:alpha" maskUnits="userSpaceOnUse" x="0" y="0" width="60" height="60">
<circle cx="30" cy="30" r="30" fill="#D9D9D9"/>
</mask>
<g mask="url(#mask0_47_1432)">
<circle cx="30" cy="30" r="30" fill="#DB2627"/>
<g clip-path="url(#clip0_47_1432)">
<path d="M27.62 15.88C28.18 15.8 28.74 15.8 29.3 15.8C29.54 15.8 29.78 15.8 30.02 15.72C30.34 15.72 30.58 15.64 30.9 15.72C31.06 15.72 31.22 15.72 31.38 15.72C31.7 15.72 32.02 15.72 32.42 15.72C32.82 15.72 33.22 15.72 33.62 15.72C33.94 15.72 34.26 15.72 34.58 15.72C34.98 15.72 35.38 15.72 35.78 15.8C36.18 15.8 36.66 15.8 37.06 15.88C37.38 15.96 37.62 15.88 37.94 15.96C38.34 15.96 38.74 16.04 39.14 16.12C39.7 16.2 40.26 16.28 40.74 16.36C41.06 16.44 41.46 16.52 41.78 16.6C41.94 16.6 42.1 16.68 42.26 16.68C42.58 16.68 42.98 16.84 43.3 16.92C43.62 17 43.94 17.08 44.18 17.16C44.58 17.32 44.98 17.4 45.38 17.56C45.94 17.8 46.58 18.04 47.06 18.44C47.22 18.36 47.3 18.44 47.3 18.6C47.3 18.84 47.38 19.16 47.38 19.4C47.38 19.96 47.38 20.52 47.06 20.92C46.9 21.08 46.74 21.24 46.5 21.4C46.18 21.56 45.86 21.72 45.54 21.88C45.06 22.12 44.5 22.44 44.02 22.76C43.86 22.92 43.62 23 43.54 23.16C43.22 23.56 42.82 23.96 42.58 24.44C42.42 24.92 42.26 25.32 42.18 25.88C42.18 26.2 42.1 26.52 42.18 26.84C42.18 27.16 42.26 27.48 42.34 27.88C42.42 28.12 42.42 28.44 42.5 28.68C42.58 28.92 42.66 29.16 42.74 29.4C42.9 29.8 42.98 30.28 43.14 30.68C43.3 31.08 43.38 31.48 43.46 31.96C43.54 32.36 43.62 32.84 43.62 33.24C43.62 33.72 43.7 34.28 43.7 34.76C43.7 35.24 43.7 35.64 43.62 36.12C43.62 36.28 43.54 36.44 43.46 36.52C43.38 36.68 43.22 36.68 43.06 36.76C42.42 36.92 41.78 36.84 41.14 36.84C40.58 36.84 40.1 36.84 39.54 36.84C39.06 36.84 38.5 36.84 38.02 36.68C37.94 36.68 37.86 36.6 37.78 36.6C37.7 36.6 37.7 36.52 37.7 36.44C37.86 36.2 38.02 35.96 38.18 35.72C38.26 35.56 38.42 35.48 38.5 35.32C38.66 35 38.42 34.52 38.1 34.44C37.7 34.28 37.38 34.36 37.14 34.68C36.9 34.92 36.66 35.16 36.5 35.4C36.26 35.72 36.1 35.96 36.02 36.36C36.02 36.52 35.86 36.6 35.86 36.76C35.78 36.92 35.78 37 35.86 37.16C36.02 37.64 36.18 38.04 36.34 38.52C36.42 38.68 36.34 38.76 36.18 38.68C35.78 38.6 35.46 38.84 35.06 39C34.58 39.16 34.1 39.32 33.62 39.56C33.06 39.8 32.58 40.04 32.1 40.36C31.62 40.6 31.06 40.92 30.58 41.16C30.18 41.4 29.78 41.56 29.38 41.72C28.82 41.88 28.26 42.04 27.7 41.96C27.3 41.96 26.98 41.96 26.58 41.88C26.18 41.8 25.78 41.72 25.38 41.72C24.66 41.56 23.94 41.4 23.3 41.24C23.14 41.24 22.9 41.24 22.74 41.16C22.42 41 22.02 40.84 21.7 40.68C21.54 40.6 21.38 40.52 21.14 40.44C21.06 40.36 20.98 40.36 20.98 40.2C20.98 39.88 21.06 39.56 20.98 39.16C20.98 38.6 20.98 38.12 20.98 37.56C20.98 37.08 20.98 36.6 20.9 36.12C20.82 35.64 20.9 35.16 20.74 34.68C20.66 34.28 20.66 33.8 20.5 33.4C20.34 32.92 20.26 32.52 20.1 32.04C19.94 31.72 19.78 31.4 19.7 31C19.62 30.76 19.46 30.6 19.3 30.36C19.3 30.28 19.3 30.28 19.22 30.2C19.3 30.2 19.38 30.12 19.38 30.04C19.78 29.56 20.26 29.16 20.74 28.84C21.38 28.44 22.02 28.2 22.74 27.88C23.3 27.64 23.86 27.4 24.42 27.24C24.66 27.16 24.82 26.92 24.82 26.6C24.82 26.36 24.66 26.12 24.42 25.96C24.66 25.8 24.9 25.64 25.14 25.48C25.46 25.24 25.78 25 26.1 24.76C26.5 24.52 26.9 24.2 27.38 23.96C27.86 23.64 28.34 23.4 28.82 23.16C29.22 22.92 29.7 22.76 30.18 22.6C30.58 22.52 30.9 22.44 31.3 22.36C31.7 22.36 32.1 22.44 32.5 22.44C32.9 22.44 33.3 22.6 33.7 22.68C34.1 22.76 34.42 22.92 34.74 23C35.06 23.08 35.3 23.24 35.62 23.32C36.18 23.56 36.66 23.8 37.14 24.04C37.46 24.2 37.78 24.2 38.1 24.04C38.58 23.8 38.66 23.16 38.34 22.76C38.18 22.6 37.94 22.52 37.78 22.44C37.3 22.2 36.74 21.96 36.18 21.72C35.54 21.48 34.82 21.16 34.1 21C33.78 20.92 33.38 20.84 33.06 20.76C32.74 20.68 32.42 20.6 32.02 20.6C31.54 20.6 30.98 20.6 30.5 20.68C30.02 20.76 29.54 20.92 29.06 21.08C28.82 21.16 28.58 21.32 28.26 21.4C28.18 20.92 28.1 20.36 28.02 19.88C27.94 19.16 27.78 18.44 27.7 17.72C27.86 17 27.7 16.44 27.62 15.88ZM36.26 27.32C36.26 27.24 36.26 27.16 36.26 27.16C36.18 26.76 35.94 26.44 35.78 26.04C35.7 25.8 35.46 25.56 35.22 25.4C34.82 25.08 34.34 25 33.86 24.92C33.46 24.84 33.14 24.84 32.74 24.92C32.26 25 31.78 25.08 31.38 25.16C30.9 25.24 30.5 25.4 30.02 25.56C29.78 25.64 29.54 25.72 29.38 25.8C28.98 25.96 28.66 26.04 28.26 26.2C27.86 26.36 27.54 26.52 27.14 26.68C26.82 26.84 26.58 27.08 26.58 27.4C26.58 27.56 26.58 27.8 26.74 27.96C26.82 28.04 26.98 28.2 27.14 28.28C27.62 28.6 28.1 28.76 28.66 28.92C28.98 29 29.22 29.08 29.54 29.08C29.86 29.16 30.26 29.24 30.58 29.24C30.98 29.32 31.38 29.32 31.78 29.32C32.26 29.32 32.82 29.32 33.3 29.24C33.78 29.16 34.34 29.16 34.82 29C35.14 28.92 35.54 28.76 35.78 28.52C36.1 28.2 36.26 27.8 36.26 27.32ZM41.38 33.08C41.38 32.84 41.38 32.44 41.3 32.12C41.22 31.4 41.06 30.68 40.98 29.88C40.98 29.72 40.9 29.48 40.9 29.32C40.82 29.08 40.5 28.92 40.18 29C39.86 29.08 39.62 29.32 39.62 29.64C39.62 30.04 39.7 30.36 39.78 30.76C39.86 31.48 40.02 32.2 40.1 32.92C40.1 33.32 40.1 33.72 40.1 34.04C40.1 34.44 40.34 34.68 40.66 34.68C40.98 34.68 41.38 34.44 41.38 34.12C41.3 33.8 41.3 33.48 41.38 33.08Z" fill="white"/>
<path d="M18.34 28.76C18.26 28.76 18.26 28.68 18.18 28.68C17.86 28.28 17.38 28.12 16.9 27.96C16.26 27.72 15.62 27.88 15.06 28.12C14.9 28.2 14.66 28.2 14.5 28.36C14.26 28.6 14.26 29 14.34 29.24C14.42 29.48 14.66 29.64 14.82 29.8C14.98 29.96 15.14 30.12 15.3 30.28C15.54 30.52 15.7 30.84 15.86 31.16C16.02 31.48 16.1 31.8 16.18 32.12C16.26 32.52 16.42 32.84 16.5 33.24C16.58 33.56 16.66 33.88 16.74 34.2C16.82 34.44 16.82 34.68 16.9 34.92C16.98 35.24 17.06 35.48 17.06 35.8C17.14 36.04 17.14 36.28 17.22 36.6C17.3 37 17.46 37.48 17.46 37.88C17.46 38.04 17.54 38.12 17.54 38.28C17.54 38.44 17.54 38.52 17.38 38.44C16.74 38.28 16.1 38.04 15.46 37.72C14.98 37.48 14.58 37.24 14.18 36.84C13.78 36.44 13.46 36.04 13.22 35.56C13.06 35.16 12.98 34.76 12.82 34.44C12.66 34.04 12.66 33.64 12.5 33.24C12.42 33 12.42 32.84 12.42 32.6C12.42 32.44 12.34 32.28 12.34 32.2C12.26 31.96 12.26 31.64 12.18 31.4C12.1 31 11.94 30.6 11.86 30.12C11.7 29.64 11.62 29.16 11.46 28.76C11.3 28.28 11.22 27.72 11.22 27.24C11.14 26.84 11.14 26.44 11.22 26.04C11.3 25.72 11.38 25.4 11.62 25.24C11.7 25.16 11.78 25.16 11.78 25.16C12.26 25 12.58 24.84 12.9 24.84C13.22 24.84 13.62 24.76 13.94 24.68C14.18 24.6 14.42 24.6 14.66 24.6C15.14 24.52 15.54 24.52 16.02 24.52C16.34 24.52 16.66 24.6 16.9 24.68C17.14 24.76 17.38 24.84 17.54 24.92C17.78 25.08 17.94 25.24 18.1 25.4C18.26 25.56 18.34 25.8 18.5 25.88C18.74 26.04 19.22 26.12 19.38 25.96C19.7 25.8 19.78 25.56 19.86 25.24C19.86 25.08 19.86 25 19.78 24.84C19.54 24.44 19.22 23.96 18.82 23.64C18.42 23.32 17.94 23.08 17.38 22.92C16.98 22.84 16.5 22.76 16.02 22.68C15.94 22.68 15.78 22.76 15.7 22.68C15.62 22.6 15.54 22.44 15.46 22.28C15.38 22.12 15.3 21.88 15.22 21.72C15.14 21.48 15.06 21.24 14.98 21C14.98 20.84 14.9 20.68 14.9 20.52C14.82 20.04 14.74 19.64 14.82 19.16C15.06 18.92 15.14 18.6 15.3 18.36C15.46 18.12 15.7 17.88 15.94 17.72C16.26 17.56 16.58 17.48 16.9 17.4C17.38 17.32 17.86 17.24 18.26 17.08C18.66 17 19.14 16.92 19.54 16.84C20.1 16.76 20.74 16.6 21.3 16.52C21.78 16.44 22.26 16.36 22.74 16.28C23.06 16.2 23.46 16.2 23.78 16.12C24.34 16.04 24.9 16.04 25.54 15.96C25.54 15.96 25.62 15.96 25.7 15.96C25.7 16.2 25.7 16.36 25.78 16.52C25.86 17 26.02 17.48 26.1 17.96C26.26 18.68 26.34 19.4 26.5 20.04C26.58 20.76 26.74 21.48 26.82 22.2C26.82 22.28 26.74 22.28 26.74 22.28C26.34 22.52 25.94 22.76 25.62 23C25.38 23.16 25.14 23.4 24.9 23.56C24.42 23.88 24.02 24.2 23.62 24.44C23.14 24.76 22.98 25.08 23.14 25.56C23.14 25.64 23.22 25.64 23.22 25.8C23.14 25.8 23.14 25.8 23.06 25.88C22.82 25.96 22.5 25.96 22.26 26.04C21.22 26.28 20.34 26.84 19.54 27.64C19.06 27.96 18.74 28.36 18.34 28.76Z" fill="white"/>
<path d="M21.54 60.04C21.3 60.04 21.06 60.04 20.82 60.04C20.34 60.04 19.86 60.04 19.3 60.04C18.66 60.04 17.94 60.04 17.3 60.04C16.5 60.04 15.7 59.96 14.9 60.04C14.34 60.04 13.7 60.04 13.14 60.04C12.9 60.04 12.66 60.04 12.42 60.04C12.26 60.04 12.18 59.96 12.26 59.8C12.34 59.56 12.42 59.24 12.5 59C12.58 58.6 12.66 58.2 12.74 57.88C12.82 57.64 12.82 57.48 12.9 57.24C12.98 57 13.06 56.76 13.06 56.44C13.14 55.96 13.3 55.48 13.38 55C13.46 54.6 13.54 54.2 13.62 53.8C13.7 53.48 13.78 53.16 13.86 52.76C13.94 52.6 13.94 52.36 13.94 52.2C14.02 51.8 14.1 51.4 14.18 51.08C14.18 50.92 14.26 50.68 14.26 50.52C14.34 50.36 14.34 50.12 14.42 49.96C14.5 49.48 14.66 49 14.74 48.52C14.82 48.12 14.9 47.72 14.98 47.32C15.06 46.92 15.14 46.6 15.22 46.2C15.3 45.64 15.46 45.16 15.54 44.6C15.62 44.2 15.78 43.8 15.86 43.4C15.94 43.08 16.02 42.76 16.1 42.44C16.18 42.04 16.26 41.56 16.42 41.16C16.5 40.84 16.58 40.52 16.66 40.2C16.66 40.12 16.66 40.12 16.74 40.04C16.82 39.88 16.9 39.88 16.98 39.88C17.3 39.96 17.62 40.04 17.94 40.12C18.18 40.2 18.26 40.28 18.34 40.52C18.42 40.92 18.58 41.4 18.66 41.8C18.74 42.12 18.82 42.44 18.9 42.76C18.98 43.08 19.06 43.4 19.14 43.72C19.22 44.04 19.3 44.36 19.38 44.68C19.54 45.24 19.62 45.8 19.7 46.36C19.78 47 19.94 47.56 20.02 48.2C20.1 48.6 20.18 49.08 20.18 49.48C20.26 49.88 20.26 50.2 20.34 50.6C20.42 51.08 20.5 51.48 20.5 51.96C20.5 52.36 20.58 52.68 20.66 53.08C20.66 53.32 20.74 53.64 20.82 53.88C20.9 54.12 20.9 54.36 20.9 54.68C20.98 55.32 21.06 55.96 21.22 56.52C21.3 56.84 21.3 57.16 21.38 57.4C21.46 57.88 21.54 58.36 21.7 58.84C21.78 59.16 21.78 59.48 21.94 59.72C21.78 59.96 21.78 60.04 21.54 60.04Z" fill="white"/>
<path d="M27.86 60.12C27.38 60.2 26.82 60.12 26.26 60.12C25.78 60.12 25.38 60.12 24.9 60.12C24.74 60.12 24.66 60.12 24.66 59.88C24.66 59.48 24.58 59.16 24.58 58.76C24.58 58.52 24.5 58.28 24.5 58.04C24.42 57.56 24.34 57.08 24.26 56.68C24.1 56.12 24.02 55.56 23.86 55C23.78 54.52 23.62 54.04 23.54 53.56C23.46 53.16 23.38 52.76 23.3 52.36C23.3 52.2 23.22 52.04 23.22 51.88C23.22 51.72 23.22 51.72 23.38 51.8C23.7 51.96 23.94 52.12 24.26 52.2C24.5 52.28 24.74 52.44 24.98 52.52C25.3 52.6 25.62 52.76 25.94 52.84C26.18 52.92 26.5 53 26.74 53.08C27.22 53.24 27.7 53.4 28.1 53.56C28.42 53.72 28.74 53.88 29.06 53.96C29.14 54.04 29.3 54.12 29.38 54.12C29.46 54.12 29.46 54.2 29.46 54.28C29.46 54.52 29.38 54.76 29.38 55C29.3 55.64 29.22 56.2 29.14 56.84C29.06 57.24 28.98 57.72 28.98 58.12C28.98 58.36 28.9 58.52 28.9 58.76C28.82 59.16 28.66 59.64 28.42 60.04C28.26 60.12 28.26 60.12 27.86 60.12Z" fill="white"/>
<path d="M33.62 42.92C33.86 42.84 34.1 42.76 34.34 42.68C34.74 42.52 35.22 42.36 35.62 42.28C36.02 42.12 36.42 42.04 36.9 41.88C37.62 41.64 38.34 41.48 39.14 41.32C39.78 41.16 40.42 41.08 41.06 41C41.38 40.92 41.78 40.92 42.1 40.92C42.58 40.92 42.98 40.84 43.46 40.84C43.86 40.84 44.18 40.92 44.5 41C44.9 41.16 45.14 41.4 45.06 41.96C45.06 42.12 45.06 42.28 44.98 42.52C44.98 42.6 44.9 42.68 44.82 42.68C44.42 42.84 44.02 42.92 43.62 43C43.14 43.08 42.58 43.16 42.02 43.24C41.7 43.24 41.3 43.32 40.98 43.32C40.42 43.4 39.94 43.4 39.38 43.4C38.98 43.4 38.58 43.4 38.18 43.4C37.62 43.4 36.98 43.4 36.42 43.4C35.94 43.4 35.38 43.32 34.9 43.32C34.5 43.32 34.1 43.24 33.78 43.08C33.7 43 33.7 43 33.62 42.92Z" fill="white"/>
<path d="M39.86 47.8C39.54 47.8 39.22 47.8 38.82 47.8C38.26 47.8 37.7 47.8 37.14 47.72C36.98 47.72 36.82 47.72 36.66 47.64C36.58 47.64 36.5 47.64 36.5 47.56C36.5 47.48 36.58 47.48 36.58 47.4C36.82 47.08 37.14 46.84 37.46 46.6C37.94 46.28 38.42 45.96 38.9 45.72C39.38 45.48 39.94 45.24 40.42 45.08C40.74 45 41.06 44.92 41.38 44.84C41.7 44.76 42.02 44.68 42.26 44.68C42.66 44.6 43.06 44.52 43.46 44.52C43.7 44.52 44.02 44.52 44.26 44.52C44.42 44.52 44.42 44.6 44.34 44.76C44.18 45.08 44.02 45.32 43.86 45.64C43.7 45.88 43.46 46.12 43.3 46.36C42.98 46.68 42.66 46.92 42.18 47.16C41.86 47.32 41.46 47.48 41.14 47.56C40.82 47.64 40.5 47.72 40.18 47.72C40.18 47.72 40.02 47.72 39.86 47.8Z" fill="white"/>
<path d="M37.38 60.36C36.74 60.36 36.1 60.36 35.46 60.36C34.74 60.36 34.02 60.36 33.38 60.28C33.22 60.28 33.06 60.28 32.9 60.28C32.82 60.28 32.74 60.28 32.82 60.12C33.14 59.56 33.38 58.92 33.7 58.36C33.86 58.04 34.02 57.64 34.18 57.32C34.34 57 34.42 56.6 34.58 56.28C34.66 56.04 34.74 56.04 34.9 56.2C35.14 56.44 35.3 56.68 35.54 57C35.78 57.32 36.02 57.64 36.26 57.96C36.58 58.36 36.98 58.84 37.22 59.32C37.38 59.64 37.54 59.96 37.78 60.28C37.86 60.36 37.78 60.44 37.7 60.44C37.46 60.36 37.46 60.36 37.38 60.36Z" fill="white"/>
<path d="M44.82 24.92C44.82 24.68 44.9 24.44 44.82 24.2C44.82 24.04 44.98 23.96 45.06 23.96C45.38 23.8 45.62 23.64 45.94 23.48C46.1 23.4 46.26 23.32 46.42 23.24C46.66 23.08 46.9 23 47.06 22.92C47.22 22.84 47.38 22.68 47.54 22.6C47.62 22.6 47.62 22.52 47.7 22.44C47.78 22.36 47.78 22.28 47.86 22.36C47.94 22.36 47.94 22.52 47.94 22.52C47.94 22.68 47.86 22.92 47.86 23.08C47.86 23.32 47.78 23.56 47.7 23.8C47.62 24.12 47.54 24.36 47.46 24.68C47.38 25.08 47.22 25.48 47.14 25.88C47.14 26.04 47.06 26.04 46.9 26.04C46.66 25.96 46.42 25.88 46.18 25.88C45.86 25.8 45.54 25.72 45.22 25.56C45.06 25.48 44.98 25.4 44.82 25.32C44.82 25.08 44.82 25 44.82 24.92Z" fill="white"/>
<path d="M28.1 61.48C27.22 61.48 26.34 61.48 25.38 61.4C24.34 61.4 23.38 61.4001 22.34 61.3201C21.38 61.3201 20.42 61.32 19.46 61.24C18.74 61.24 17.94 61.24 17.22 61.24C16.5 61.24 15.78 61.24 15.06 61.24C14.58 61.24 14.18 61.24 13.7 61.24C13.06 61.24 12.5 61.24 11.86 61.24C11.54 61.24 11.3 61.24 10.98 61.24C10.58 61.16 10.26 60.7601 10.34 60.3601C10.5 59.8001 10.58 59.3201 10.74 58.7601C10.82 58.3601 10.9 58.04 10.98 57.64C11.14 57 11.3 56.3601 11.46 55.7201C11.62 55.0001 11.78 54.36 11.94 53.64C12.1 52.84 12.26 52.1201 12.42 51.3201C12.66 50.2801 12.82 49.24 13.06 48.2C13.3 47.4 13.46 46.6 13.7 45.8C13.86 45.24 13.94 44.6 14.1 44.04C14.26 43.48 14.34 42.84 14.5 42.28C14.74 41.32 14.98 40.28 15.22 39.32C15.22 39.24 15.22 39.16 15.14 39.16C14.82 39 14.5 38.84 14.18 38.6C13.78 38.36 13.38 38.04 13.06 37.64C12.66 37.24 12.34 36.76 12.1 36.28C11.94 35.88 11.78 35.56 11.62 35.16C11.46 34.6 11.3 34.04 11.22 33.4C11.06 32.68 10.9 31.96 10.74 31.24C10.58 30.6 10.34 29.96 10.18 29.32C10.1 28.84 9.94 28.36 9.86 27.8C9.78 27.16 9.7 26.52 9.78 25.88C9.86 25.16 10.02 24.52 10.58 24.04C10.66 23.72 10.98 23.56 11.3 23.4C11.86 23.08 12.5 23.16 13.06 23C13.3 22.92 13.46 22.92 13.7 22.92C13.86 22.92 13.86 22.84 13.86 22.68C13.78 22.44 13.62 22.12 13.54 21.88C13.38 21.48 13.3 21 13.22 20.52C13.14 20.04 13.14 19.48 13.14 19C13.22 18.2 13.46 17.48 14.02 16.84C14.5 16.28 15.14 15.88 15.86 15.64C16.26 15.48 16.74 15.48 17.22 15.4C17.78 15.32 18.34 15.16 18.9 15.08C19.62 15 20.34 14.84 20.98 14.76C21.54 14.68 22.02 14.6 22.58 14.52C23.14 14.44 23.78 14.36 24.34 14.28C24.82 14.2 25.3 14.2 25.78 14.12C26.18 14.12 26.58 14.04 27.06 14.04C27.7 13.96 28.34 13.96 28.98 13.88C29.7 13.88 30.34 13.8 31.06 13.8C31.86 13.8 32.66 13.8 33.46 13.8C33.94 13.8 34.5 13.8 34.98 13.8C35.62 13.8 36.26 13.88 36.9 13.88C37.38 13.88 37.86 13.96 38.34 14.04C38.98 14.12 39.62 14.2 40.26 14.28C40.82 14.36 41.38 14.44 41.86 14.6C42.26 14.68 42.66 14.76 43.06 14.76C43.46 14.84 43.86 14.92 44.26 15C44.58 15.08 44.9 15.16 45.22 15.24C45.78 15.4 46.34 15.64 46.9 15.88C47.46 16.2 48.02 16.52 48.58 16.92C49.14 17.4 49.46 18.04 49.62 18.76C49.7 19.32 49.78 19.88 49.78 20.44C49.78 20.92 49.78 21.48 49.78 21.96C49.7 22.84 49.54 23.64 49.3 24.44C49.06 25.16 48.9 25.88 48.74 26.6C48.66 27.32 48.66 27.96 48.74 28.68C48.82 29.4 49.06 30.12 49.14 30.84C49.3 31.64 49.38 32.44 49.38 33.24C49.38 34.04 49.3 34.76 49.06 35.56C48.82 36.36 48.58 37.16 48.42 37.96C48.26 38.6 48.02 39.24 47.94 39.96C47.86 40.28 47.78 40.6001 47.7 40.9201C47.62 41.3201 47.46 41.7201 47.38 42.1201C47.22 42.7601 46.98 43.4 46.82 44.04C46.66 44.6 46.42 45.08 46.26 45.64C46.02 46.2 45.78 46.76 45.54 47.24C45.14 48.04 44.66 48.84 44.18 49.56C43.78 50.04 43.38 50.52 42.9 51C42.34 51.48 41.78 51.8001 41.14 52.1201C40.58 52.3601 40.02 52.4401 39.46 52.5201C39.3 52.5201 39.3 52.52 39.38 52.68C39.62 53.24 39.94 53.72 40.18 54.28C40.58 55.16 40.98 56.0401 41.38 56.9201C41.7 57.5601 42.02 58.2801 42.26 58.9201C42.5 59.4801 42.74 60.12 43.06 60.68C43.14 60.92 43.22 61.16 43.06 61.4C42.9 61.72 42.58 61.8 42.26 61.8C40.9 61.72 39.54 61.7201 38.18 61.7201C37.06 61.7201 35.94 61.64 34.82 61.64C33.86 61.64 32.82 61.6401 31.86 61.5601C31.06 61.5601 30.26 61.56 29.38 61.48C29.06 61.48 28.58 61.48 28.1 61.48ZM18.34 28.76C18.34 28.84 18.34 28.84 18.42 28.84C18.82 29.16 19.06 29.64 19.38 30.04C19.38 30.12 19.38 30.12 19.46 30.2C19.62 30.44 19.7 30.6 19.86 30.84C20.02 31.16 20.18 31.48 20.26 31.88C20.42 32.36 20.5 32.76 20.66 33.24C20.74 33.64 20.82 34.12 20.9 34.52C20.98 35 20.98 35.48 21.06 35.96C21.14 36.44 21.06 36.92 21.14 37.4C21.14 37.96 21.06 38.44 21.14 39C21.14 39.32 21.14 39.64 21.14 40.04C21.14 40.2 21.22 40.28 21.3 40.28C21.46 40.36 21.62 40.4401 21.86 40.5201C22.18 40.6801 22.5 40.84 22.9 41C23.06 41.08 23.3 41.08 23.46 41.08C24.18 41.24 24.82 41.4 25.54 41.56C25.94 41.64 26.34 41.7201 26.74 41.7201C27.14 41.8001 27.46 41.8 27.86 41.8C28.42 41.8 28.98 41.72 29.54 41.56C29.94 41.4 30.34 41.16 30.74 41C31.22 40.76 31.78 40.44 32.26 40.2C32.74 39.96 33.3 39.64 33.78 39.4C34.26 39.16 34.74 39 35.22 38.84C35.62 38.76 35.94 38.52 36.34 38.52C36.5 38.52 36.5 38.44 36.5 38.36C36.34 37.88 36.18 37.48 36.02 37C35.94 36.84 35.94 36.76 36.02 36.6C36.1 36.44 36.18 36.36 36.18 36.2C36.26 35.88 36.42 35.56 36.66 35.24C36.82 35 37.06 34.76 37.3 34.52C37.54 34.2 37.94 34.12 38.26 34.28C38.58 34.44 38.82 34.84 38.66 35.16C38.58 35.32 38.5 35.48 38.34 35.56C38.18 35.8 37.94 36.04 37.86 36.28C37.78 36.36 37.86 36.44 37.94 36.44C38.02 36.44 38.1 36.52 38.18 36.52C38.66 36.68 39.14 36.68 39.7 36.68C40.26 36.68 40.74 36.68 41.3 36.68C41.94 36.68 42.58 36.68 43.22 36.6C43.38 36.6 43.54 36.52 43.62 36.36C43.7 36.2 43.78 36.12 43.78 35.96C43.86 35.56 43.86 35.08 43.86 34.6C43.86 34.12 43.86 33.56 43.78 33.08C43.78 32.68 43.7 32.2 43.62 31.8C43.54 31.4 43.38 31 43.3 30.52C43.14 30.12 43.06 29.64 42.9 29.24C42.82 29 42.74 28.76 42.66 28.52C42.58 28.28 42.5 27.96 42.5 27.72C42.42 27.4 42.42 27.08 42.34 26.68C42.34 26.36 42.34 26.04 42.34 25.72C42.42 25.24 42.5 24.76 42.74 24.28C42.98 23.8 43.3 23.4 43.7 23C43.86 22.84 44.02 22.68 44.18 22.6C44.66 22.28 45.14 21.96 45.7 21.72C46.02 21.56 46.34 21.4 46.66 21.24C46.9 21.16 47.06 21 47.22 20.76C47.54 20.28 47.62 19.8 47.54 19.24C47.54 19 47.46 18.68 47.46 18.44C47.46 18.28 47.38 18.2 47.3 18.12C46.82 17.72 46.18 17.48 45.62 17.24C45.22 17.08 44.82 17 44.42 16.84C44.1 16.76 43.86 16.68 43.54 16.6C43.22 16.52 42.82 16.44 42.5 16.36C42.34 16.36 42.18 16.36 42.02 16.28C41.7 16.2 41.3 16.12 40.98 16.04C40.42 15.96 39.86 15.88 39.38 15.8C38.98 15.72 38.58 15.72 38.18 15.64C37.86 15.64 37.62 15.64 37.3 15.56C36.9 15.48 36.42 15.48 36.02 15.48C35.62 15.48 35.22 15.4 34.82 15.4C34.5 15.4 34.18 15.4 33.86 15.4C33.46 15.4 33.06 15.4 32.66 15.4C32.34 15.4 32.02 15.4 31.62 15.4C31.46 15.4 31.3 15.48 31.14 15.4C30.82 15.4 30.5 15.4 30.26 15.4C30.02 15.4 29.78 15.4 29.54 15.48C28.98 15.48 28.42 15.48 27.86 15.56C27.62 15.48 27.46 15.56 27.22 15.56C26.82 15.56 26.42 15.64 26.02 15.64C26.02 15.64 25.94 15.64 25.86 15.64C25.3 15.72 24.74 15.72 24.1 15.8C23.78 15.88 23.38 15.88 23.06 15.96C22.58 16.04 22.1 16.12 21.62 16.2C20.98 16.28 20.42 16.36 19.86 16.52C19.46 16.6 18.98 16.68 18.58 16.76C18.1 16.84 17.62 16.92 17.22 17.08C16.9 17.16 16.5 17.24 16.26 17.4C16.02 17.56 15.78 17.8 15.62 18.04C15.46 18.28 15.38 18.6 15.3 18.92C15.22 19.4 15.3 19.8 15.38 20.28C15.38 20.44 15.46 20.6 15.46 20.76C15.54 21 15.62 21.24 15.7 21.48C15.78 21.64 15.86 21.88 15.94 22.04C16.02 22.2 16.02 22.36 16.18 22.44C16.26 22.52 16.34 22.44 16.5 22.44C16.98 22.52 17.38 22.52 17.86 22.68C18.42 22.84 18.9 23.08 19.3 23.4C19.7 23.72 20.02 24.12 20.26 24.6C20.34 24.68 20.42 24.84 20.34 25C20.34 25.32 20.18 25.56 19.86 25.72C19.62 25.88 19.14 25.8 18.98 25.64C18.82 25.48 18.66 25.32 18.58 25.16C18.42 25 18.26 24.76 18.02 24.68C17.78 24.6 17.62 24.52 17.38 24.44C17.06 24.36 16.82 24.28 16.5 24.28C16.02 24.28 15.62 24.28 15.14 24.36C14.9 24.44 14.66 24.44 14.42 24.44C14.1 24.52 13.7 24.52 13.38 24.6C13.06 24.6 12.74 24.76 12.42 24.84C12.34 24.84 12.26 24.84 12.26 24.92C12.02 25.16 11.86 25.4 11.86 25.72C11.78 26.12 11.78 26.52 11.86 26.92C11.94 27.48 11.94 27.96 12.1 28.44C12.26 28.92 12.34 29.4 12.5 29.8C12.58 30.2 12.74 30.6 12.82 31.08C12.9 31.32 12.98 31.64 12.98 31.88C12.98 32.04 13.06 32.2 13.06 32.28C13.06 32.52 13.14 32.76 13.14 32.92C13.22 33.32 13.3 33.72 13.46 34.12C13.62 34.52 13.7 34.92 13.86 35.24C14.1 35.72 14.42 36.2 14.82 36.52C15.22 36.84 15.62 37.16 16.1 37.4C16.74 37.72 17.38 37.96 18.02 38.12C18.18 38.2 18.26 38.12 18.18 37.96C18.18 37.8 18.1 37.72 18.1 37.56C18.02 37.16 17.94 36.68 17.86 36.28C17.78 36.04 17.78 35.8 17.7 35.48C17.62 35.16 17.54 34.92 17.54 34.6C17.46 34.36 17.46 34.12 17.38 33.88C17.3 33.56 17.22 33.24 17.14 32.92C17.06 32.52 16.9 32.2 16.82 31.8C16.74 31.48 16.66 31.16 16.5 30.84C16.34 30.52 16.18 30.2 15.94 29.96C15.78 29.8 15.62 29.56 15.46 29.48C15.22 29.32 15.06 29.16 14.98 28.92C14.82 28.68 14.9 28.28 15.14 28.04C15.3 27.88 15.46 27.8 15.7 27.72C16.26 27.48 16.9 27.32 17.54 27.56C18.02 27.72 18.5 27.88 18.82 28.28C18.26 28.68 18.26 28.76 18.34 28.76ZM21.54 60.04C21.78 60.04 21.78 60.04 21.78 59.8C21.7 59.48 21.62 59.1601 21.54 58.9201C21.46 58.4401 21.38 57.96 21.22 57.48C21.14 57.16 21.14 56.84 21.06 56.6C20.98 55.96 20.9 55.3201 20.74 54.7601C20.66 54.5201 20.66 54.2801 20.66 53.9601C20.58 53.7201 20.58 53.4001 20.5 53.1601C20.5 52.7601 20.42 52.44 20.34 52.04C20.26 51.56 20.18 51.16 20.18 50.68C20.18 50.28 20.1 49.96 20.02 49.56C19.94 49.16 19.86 48.68 19.86 48.28C19.78 47.64 19.7 47.08 19.54 46.44C19.46 45.88 19.38 45.32 19.22 44.76C19.14 44.44 19.06 44.12 18.98 43.8C18.9 43.48 18.82 43.16 18.74 42.84C18.66 42.52 18.58 42.2 18.5 41.88C18.42 41.48 18.26 41 18.18 40.6C18.1 40.44 18.02 40.28 17.78 40.2C17.46 40.12 17.14 40.04 16.82 39.96C16.66 39.88 16.58 39.9601 16.58 40.1201C16.58 40.2001 16.58 40.2 16.5 40.28C16.42 40.6 16.34 40.92 16.26 41.24C16.1 41.64 16.1 42.1201 15.94 42.5201C15.86 42.8401 15.78 43.16 15.7 43.48C15.62 43.88 15.54 44.28 15.38 44.68C15.3 45.24 15.14 45.72 15.06 46.28C14.98 46.68 14.9 47.08 14.82 47.4C14.74 47.8 14.66 48.2 14.58 48.6C14.5 49.08 14.34 49.56 14.26 50.04C14.26 50.2 14.18 50.44 14.1 50.6C14.1 50.76 14.02 51 14.02 51.16C13.94 51.5601 13.86 51.96 13.78 52.28C13.78 52.44 13.7 52.68 13.7 52.84C13.62 53.16 13.54 53.48 13.46 53.88C13.38 54.28 13.3 54.68 13.22 55.08C13.14 55.56 12.98 56.0401 12.9 56.5201C12.82 56.7601 12.74 57.0001 12.74 57.3201C12.66 57.5601 12.66 57.7201 12.58 57.9601C12.5 58.3601 12.42 58.76 12.34 59.08C12.26 59.32 12.18 59.64 12.1 59.88C12.02 60.04 12.1 60.1201 12.26 60.1201C12.5 60.1201 12.74 60.1201 12.98 60.1201C13.54 60.1201 14.18 60.1201 14.74 60.1201C15.54 60.1201 16.34 60.2001 17.14 60.1201C17.78 60.1201 18.5 60.1201 19.14 60.1201C19.62 60.1201 20.1 60.1201 20.66 60.1201C21.06 60.0401 21.3 60.04 21.54 60.04ZM27.86 60.1201C28.34 60.1201 28.26 60.1201 28.34 59.9601C28.58 59.5601 28.66 59.16 28.82 58.68C28.9 58.52 28.9 58.28 28.9 58.04C28.98 57.64 29.06 57.1601 29.06 56.7601C29.14 56.1201 29.22 55.5601 29.3 54.9201C29.3 54.6801 29.38 54.44 29.38 54.2C29.38 54.12 29.38 54.04 29.3 54.04C29.22 53.96 29.06 53.88 28.98 53.88C28.66 53.72 28.34 53.56 28.02 53.48C27.54 53.32 27.06 53.16 26.66 53C26.42 52.92 26.1 52.8401 25.86 52.7601C25.54 52.6801 25.22 52.52 24.9 52.44C24.66 52.36 24.42 52.2801 24.18 52.1201C23.86 52.0401 23.62 51.8801 23.3 51.7201C23.14 51.6401 23.14 51.72 23.14 51.8C23.14 51.96 23.22 52.12 23.22 52.28C23.3 52.68 23.38 53.08 23.46 53.48C23.54 53.96 23.7 54.4401 23.78 54.9201C23.94 55.4801 24.02 56.04 24.18 56.6C24.26 57.08 24.34 57.5601 24.42 57.9601C24.5 58.2001 24.5 58.44 24.5 58.68C24.58 59.08 24.58 59.4 24.58 59.8C24.58 59.96 24.58 60.04 24.82 60.04C25.3 60.04 25.7 60.04 26.18 60.04C26.74 60.12 27.3 60.2001 27.86 60.1201ZM33.62 42.9201C33.7 42.9201 33.7 42.92 33.7 43C34.1 43.16 34.42 43.16 34.82 43.24C35.3 43.32 35.86 43.3201 36.34 43.3201C36.9 43.3201 37.54 43.4001 38.1 43.3201C38.5 43.3201 38.9 43.3201 39.3 43.3201C39.86 43.3201 40.34 43.24 40.9 43.24C41.22 43.24 41.62 43.16 41.94 43.16C42.5 43.08 42.98 43.0001 43.54 42.9201C43.94 42.8401 44.34 42.76 44.74 42.6C44.82 42.6 44.82 42.52 44.9 42.44C44.98 42.28 44.98 42.12 44.98 41.88C45.06 41.4 44.82 41.1601 44.42 40.9201C44.1 40.7601 43.78 40.76 43.38 40.76C42.9 40.76 42.5 40.76 42.02 40.84C41.7 40.84 41.3 40.9201 40.98 40.9201C40.34 41.0001 39.7 41.08 39.06 41.24C38.34 41.4 37.62 41.56 36.82 41.8C36.42 41.96 36.02 42.04 35.54 42.2C35.14 42.36 34.66 42.52 34.26 42.6C34.18 42.76 33.94 42.8401 33.62 42.9201ZM39.86 47.8C40.02 47.8 40.18 47.7201 40.34 47.7201C40.66 47.7201 40.98 47.64 41.3 47.56C41.62 47.48 42.02 47.32 42.34 47.16C42.74 46.92 43.06 46.68 43.46 46.36C43.7 46.12 43.86 45.88 44.02 45.64C44.26 45.4 44.42 45.08 44.5 44.76C44.58 44.6 44.5 44.6001 44.42 44.5201C44.18 44.4401 43.86 44.5201 43.62 44.5201C43.22 44.5201 42.82 44.6 42.42 44.68C42.1 44.76 41.78 44.76 41.54 44.84C41.22 44.92 40.9 45 40.58 45.08C40.02 45.24 39.54 45.4801 39.06 45.7201C38.58 45.9601 38.1 46.2 37.62 46.6C37.3 46.84 36.98 47.08 36.74 47.4C36.74 47.48 36.66 47.48 36.66 47.56C36.66 47.64 36.74 47.64 36.82 47.64C36.98 47.64 37.14 47.6401 37.3 47.7201C37.86 47.8001 38.42 47.8 38.98 47.8C39.14 47.8 39.54 47.8 39.86 47.8ZM37.38 60.3601C37.38 60.3601 37.46 60.3601 37.54 60.3601C37.62 60.3601 37.7 60.28 37.62 60.2C37.46 59.88 37.3 59.56 37.06 59.24C36.82 58.76 36.42 58.36 36.1 57.88C35.86 57.56 35.62 57.2401 35.38 56.9201C35.22 56.6801 34.98 56.3601 34.74 56.1201C34.58 55.9601 34.5 55.96 34.5 56.2C34.42 56.6 34.26 56.92 34.1 57.24C33.94 57.56 33.78 57.96 33.62 58.28C33.3 58.84 33.06 59.48 32.74 60.04C32.74 60.2 32.74 60.2 32.9 60.2C33.06 60.2 33.22 60.2 33.38 60.2C34.1 60.2 34.82 60.2 35.46 60.28C36.1 60.28 36.74 60.2801 37.38 60.3601ZM44.82 24.92C44.82 25 44.82 25.08 44.9 25.16C44.98 25.24 45.14 25.32 45.3 25.4C45.62 25.56 45.94 25.64 46.26 25.72C46.5 25.8 46.74 25.8 46.98 25.88C47.14 25.96 47.22 25.88 47.22 25.72C47.3 25.32 47.46 24.92 47.54 24.52C47.62 24.2 47.7 23.96 47.78 23.64C47.86 23.4 47.86 23.16 47.94 22.92C47.94 22.76 48.02 22.52 48.02 22.36C48.02 22.28 48.02 22.2 47.94 22.2C47.86 22.12 47.78 22.28 47.78 22.28C47.7 22.36 47.7 22.36 47.62 22.44C47.46 22.52 47.3 22.68 47.14 22.76C46.9 22.92 46.66 23 46.5 23.08C46.34 23.16 46.18 23.24 46.02 23.32C45.7 23.48 45.38 23.64 45.14 23.8C45.06 23.88 44.9 23.96 44.9 24.04C44.9 24.44 44.9 24.68 44.82 24.92Z" fill="black"/>
<path d="M36.26 27.3201C36.26 27.8001 36.1 28.2001 35.7 28.6001C35.38 28.8401 35.06 29.0001 34.74 29.0801C34.26 29.2401 33.78 29.2401 33.22 29.3201C32.74 29.4001 32.18 29.4001 31.7 29.4001C31.3 29.4001 30.9 29.3201 30.5 29.3201C30.18 29.3201 29.78 29.2401 29.46 29.1601C29.14 29.0801 28.82 29.0801 28.58 29.0001C28.1 28.8401 27.54 28.6801 27.06 28.3601C26.9 28.2801 26.82 28.1201 26.66 28.0401C26.5 27.8801 26.5 27.7201 26.5 27.4801C26.58 27.1601 26.74 26.9201 27.06 26.7601C27.46 26.6001 27.78 26.4401 28.18 26.2801C28.58 26.1201 28.9 26.0401 29.3 25.8801C29.54 25.8001 29.7 25.7201 29.94 25.6401C30.42 25.4801 30.82 25.4001 31.3 25.2401C31.78 25.1601 32.26 25.0801 32.66 25.0001C33.06 24.9201 33.46 24.9201 33.78 25.0001C34.26 25.0801 34.74 25.1601 35.14 25.4801C35.38 25.6401 35.62 25.8001 35.7 26.1201C35.86 26.5201 36.1 26.8401 36.18 27.2401C36.26 27.1601 36.26 27.2401 36.26 27.3201Z" fill="black"/>
<path d="M26.74 22.2C26.98 22.04 27.3 21.88 27.54 21.8C27.86 21.64 28.18 21.48 28.5 21.32C28.74 21.24 28.98 21.08 29.3 21C29.78 20.84 30.26 20.68 30.74 20.6C31.22 20.52 31.7 20.52 32.26 20.52C32.58 20.52 32.9 20.6 33.3 20.68C33.62 20.76 34.02 20.84 34.34 20.92C35.06 21.08 35.7 21.4 36.42 21.64C36.98 21.88 37.46 22.12 38.02 22.36C38.18 22.44 38.42 22.52 38.58 22.68C38.9 23.08 38.74 23.72 38.34 23.96C38.02 24.12 37.7 24.12 37.38 23.96C36.9 23.72 36.34 23.48 35.86 23.24C35.54 23.08 35.3 23 34.98 22.92C34.66 22.76 34.26 22.68 33.94 22.6C33.54 22.52 33.14 22.36 32.74 22.36C32.34 22.36 31.94 22.28 31.54 22.28C31.14 22.28 30.82 22.36 30.42 22.52C29.94 22.6 29.46 22.84 29.06 23.08C28.58 23.32 28.1 23.56 27.62 23.88C27.22 24.12 26.82 24.44 26.34 24.68C26.02 24.92 25.7 25.16 25.38 25.4C25.14 25.56 24.9 25.72 24.66 25.88C24.58 25.96 24.42 25.96 24.34 26.04C24.02 26.28 23.54 26.12 23.3 25.96C23.22 25.96 23.22 25.88 23.14 25.88C23.14 25.8 23.06 25.72 23.06 25.64C22.9 25.16 23.06 24.76 23.54 24.52C24.02 24.28 24.42 23.96 24.82 23.64C25.06 23.48 25.3 23.24 25.54 23.08C25.94 22.84 26.26 22.6 26.66 22.36C26.74 22.28 26.74 22.28 26.74 22.2Z" fill="black"/>
<path d="M18.34 28.76C18.74 28.36 19.06 27.96 19.46 27.64C20.26 26.92 21.14 26.36 22.18 26.04C22.42 25.96 22.74 25.96 22.98 25.88C23.06 25.88 23.06 25.88 23.14 25.8C23.22 25.8 23.22 25.88 23.3 25.88C23.54 26.12 24.02 26.2 24.34 25.96C24.42 25.88 24.58 25.8 24.66 25.8C24.9 25.88 25.06 26.12 25.06 26.44C25.06 26.76 24.9 26.92 24.66 27.08C24.1 27.32 23.54 27.56 22.98 27.72C22.34 27.96 21.62 28.28 20.98 28.68C20.42 29 20.02 29.4 19.62 29.88C19.54 29.96 19.54 29.96 19.46 30.04C19.14 29.64 18.9 29.24 18.5 28.84C18.34 28.84 18.34 28.76 18.34 28.76Z" fill="white"/>
<path d="M26.74 22.2C26.66 21.48 26.5 20.76 26.42 20.04C26.34 19.32 26.18 18.6 26.02 17.96C25.94 17.48 25.86 17 25.7 16.52C25.7 16.36 25.7 16.2 25.7 16.04C26.1 15.96 26.5 15.96 26.9 15.96C27.14 15.96 27.3 15.88 27.54 15.96C27.62 16.52 27.78 17.08 27.86 17.64C28.02 18.36 28.1 19.08 28.18 19.8C28.26 20.28 28.34 20.84 28.42 21.32C28.1 21.48 27.78 21.64 27.46 21.8C27.3 21.96 27.06 22.04 26.74 22.2Z" fill="white"/>
<path d="M41.38 33.0799C41.38 33.4799 41.38 33.7999 41.3 34.1199C41.22 34.4399 40.9 34.6799 40.58 34.6799C40.18 34.6799 40.02 34.3599 40.02 34.0399C40.02 33.6399 40.1 33.3199 40.02 32.9199C39.94 32.1999 39.86 31.4799 39.7 30.7599C39.62 30.4399 39.54 30.0399 39.54 29.6399C39.54 29.3199 39.78 29.0799 40.1 28.9999C40.42 28.9199 40.74 29.0799 40.82 29.3199C40.9 29.4799 40.9 29.7199 40.9 29.8799C40.98 30.5999 41.14 31.3199 41.22 32.1199C41.3 32.4399 41.3 32.7599 41.38 33.0799Z" fill="white"/>
</g>
</g>
<defs>
<clipPath id="clip0_47_1432">
<rect width="48" height="48" fill="white" transform="translate(5.7 13.8)"/>
</clipPath>
</defs>
</svg>
