<svg width="60" height="60" viewBox="0 0 60 60" fill="none" xmlns="http://www.w3.org/2000/svg">
<path d="M32.6 2.60004C31.9 2.50004 31.2 2.50004 30.5 2.50004C30.2 2.50004 29.9 2.50004 29.6 2.40004C29.2 2.40004 28.9 2.30004 28.5 2.40004C28.3 2.40004 28.1 2.40004 27.9 2.40004C27.5 2.40004 27.1 2.40004 26.6 2.40004C26.1 2.40004 25.6 2.40004 25.1 2.40004C24.7 2.40004 24.3 2.40004 23.9 2.40004C23.4 2.40004 22.9 2.40004 22.4 2.50004C21.9 2.50004 21.3 2.50004 20.8 2.60004C20.4 2.70004 20.1 2.60004 19.7 2.70004C19.2 2.70004 18.7 2.80004 18.2 2.90004C17.5 3.00004 16.8 3.10004 16.2 3.20004C15.8 3.30004 15.3 3.40004 14.9 3.50004C14.7 3.50004 14.5 3.60004 14.3 3.60004C13.9 3.60004 13.4 3.80004 13 3.90004C12.6 4.00004 12.2 4.10003 11.9 4.20003C11.4 4.40003 10.9 4.50004 10.4 4.70004C9.7 5.00004 8.9 5.30004 8.3 5.80004C8.1 5.70004 8 5.80004 8 6.00004C8 6.30004 7.9 6.70004 7.9 7.00004C7.9 7.70004 7.9 8.40003 8.3 8.90003C8.5 9.10003 8.7 9.30004 9 9.50004C9.4 9.70004 9.8 9.90004 10.2 10.1C10.8 10.4 11.5 10.8 12.1 11.2C12.3 11.4 12.6 11.5 12.7 11.7C13.1 12.2 13.6 12.7 13.9 13.3C14.1 13.9 14.3 14.4 14.4 15.1C14.4 15.5 14.5 15.9 14.4 16.3C14.4 16.7 14.3 17.1 14.2 17.6C14.1 17.9 14.1 18.3 14 18.6C13.9 18.9 13.8 19.2 13.7 19.5C13.5 20 13.4 20.6 13.2 21.1C13 21.6 12.9 22.1 12.8 22.7C12.7 23.2 12.6 23.8 12.6 24.3C12.6 24.9 12.5 25.6 12.5 26.2C12.5 26.8 12.5 27.3 12.6 27.9C12.6 28.1 12.7 28.3 12.8 28.4C12.9 28.6 13.1 28.6 13.3 28.7C14.1 28.9 14.9 28.8 15.7 28.8C16.4 28.8 17 28.8 17.7 28.8C18.3 28.8 19 28.8 19.6 28.6C19.7 28.6 19.8 28.5 19.9 28.5C20 28.5 20 28.4 20 28.3C19.8 28 19.6 27.7 19.4 27.4C19.3 27.2 19.1 27.1 19 26.9C18.8 26.5 19.1 25.9 19.5 25.8C20 25.6 20.4 25.7 20.7 26.1C21 26.4 21.3 26.7 21.5 27C21.8 27.4 22 27.7 22.1 28.2C22.1 28.4 22.3 28.5 22.3 28.7C22.4 28.9 22.4 29 22.3 29.2C22.1 29.8 21.9 30.3 21.7 30.9C21.6 31.1 21.7 31.2 21.9 31.1C22.4 31 22.8 31.3 23.3 31.5C23.9 31.7 24.5 31.9 25.1 32.2C25.8 32.5 26.4 32.8 27 33.2C27.6 33.5 28.3 33.9 28.9 34.2C29.4 34.5 29.9 34.7 30.4 34.9C31.1 35.1 31.8 35.3 32.5 35.2C33 35.2 33.4 35.2 33.9 35.1C34.4 35 34.9 34.9 35.4 34.9C36.3 34.7 37.2 34.5 38 34.3C38.2 34.3 38.5 34.3 38.7 34.2C39.1 34 39.6 33.8 40 33.6C40.2 33.5 40.4 33.4 40.7 33.3C40.8 33.2 40.9 33.2 40.9 33C40.9 32.6 40.8 32.2 40.9 31.7C40.9 31 40.9 30.4 40.9 29.7C40.9 29.1 40.9 28.5 41 27.9C41.1 27.3 41 26.7 41.2 26.1C41.3 25.6 41.3 25 41.5 24.5C41.7 23.9 41.8 23.4 42 22.8C42.2 22.4 42.4 22 42.5 21.5C42.6 21.2 42.8 21 43 20.7C43 20.6 43 20.6 43.1 20.5C43 20.5 42.9 20.4 42.9 20.3C42.4 19.7 41.8 19.2 41.2 18.8C40.4 18.3 39.6 18 38.7 17.6C38 17.3 37.3 17 36.6 16.8C36.3 16.7 36.1 16.4 36.1 16C36.1 15.7 36.3 15.4 36.6 15.2C36.3 15 36 14.8 35.7 14.6C35.3 14.3 34.9 14 34.5 13.7C34 13.4 33.5 13 32.9 12.7C32.3 12.3 31.7 12 31.1 11.7C30.6 11.4 30 11.2 29.4 11C28.9 10.9 28.5 10.8 28 10.7C27.5 10.7 27 10.8 26.5 10.8C26 10.8 25.5 11 25 11.1C24.5 11.2 24.1 11.4 23.7 11.5C23.3 11.6 23 11.8 22.6 11.9C21.9 12.2 21.3 12.5 20.7 12.8C20.3 13 19.9 13 19.5 12.8C18.9 12.5 18.8 11.7 19.2 11.2C19.4 11 19.7 10.9 19.9 10.8C20.5 10.5 21.2 10.2 21.9 9.90003C22.7 9.60003 23.6 9.20004 24.5 9.00004C24.9 8.90004 25.4 8.80003 25.8 8.70004C26.2 8.60004 26.6 8.50004 27.1 8.50004C27.7 8.50004 28.4 8.50004 29 8.60004C29.6 8.70004 30.2 8.90004 30.8 9.10004C31.1 9.20004 31.4 9.40004 31.8 9.50004C31.9 8.90004 32 8.20004 32.1 7.60004C32.2 6.70004 32.4 5.80004 32.5 4.90004C32.3 4.00004 32.5 3.30004 32.6 2.60004ZM21.8 16.9C21.8 16.8 21.8 16.7 21.8 16.7C21.9 16.2 22.2 15.8 22.4 15.3C22.5 15 22.8 14.7 23.1 14.5C23.6 14.1 24.2 14 24.8 13.9C25.3 13.8 25.7 13.8 26.2 13.9C26.8 14 27.4 14.1 27.9 14.2C28.5 14.3 29 14.5 29.6 14.7C29.9 14.8 30.2 14.9 30.4 15C30.9 15.2 31.3 15.3 31.8 15.5C32.3 15.7 32.7 15.9 33.2 16.1C33.6 16.3 33.9 16.6 33.9 17C33.9 17.2 33.9 17.5 33.7 17.7C33.6 17.8 33.4 18 33.2 18.1C32.6 18.5 32 18.7 31.3 18.9C30.9 19 30.6 19.1 30.2 19.1C29.8 19.2 29.3 19.3 28.9 19.3C28.4 19.4 27.9 19.4 27.4 19.4C26.8 19.4 26.1 19.4 25.5 19.3C24.9 19.2 24.2 19.2 23.6 19C23.2 18.9 22.7 18.7 22.4 18.4C22 18 21.8 17.5 21.8 16.9ZM15.4 24.1C15.4 23.8 15.4 23.3 15.5 22.9C15.6 22 15.8 21.1 15.9 20.1C15.9 19.9 16 19.6 16 19.4C16.1 19.1 16.5 18.9 16.9 19C17.3 19.1 17.6 19.4 17.6 19.8C17.6 20.3 17.5 20.7 17.4 21.2C17.3 22.1 17.1 23 17 23.9C17 24.4 17 24.9 17 25.3C17 25.8 16.7 26.1 16.3 26.1C15.9 26.1 15.4 25.8 15.4 25.4C15.5 25 15.5 24.6 15.4 24.1Z" fill="#DB2627"/>
<path d="M44.2 18.7001C44.3 18.7001 44.3 18.6001 44.4 18.6001C44.8 18.1001 45.4 17.9001 46 17.7001C46.8 17.4001 47.6 17.6001 48.3 17.9001C48.5 18.0001 48.8 18.0001 49 18.2001C49.3 18.5001 49.3 19.0001 49.2 19.3001C49.1 19.6001 48.8 19.8001 48.6 20.0001C48.4 20.2001 48.2 20.4001 48 20.6001C47.7 20.9001 47.5 21.3001 47.3 21.7001C47.1 22.1001 47 22.5001 46.9 22.9001C46.8 23.4001 46.6 23.8001 46.5 24.3001C46.4 24.7001 46.3 25.1001 46.2 25.5001C46.1 25.8001 46.1 26.1001 46 26.4001C45.9 26.8001 45.8 27.1001 45.8 27.5001C45.7 27.8001 45.7 28.1001 45.6 28.5001C45.5 29.0001 45.3 29.6001 45.3 30.1001C45.3 30.3001 45.2 30.4001 45.2 30.6001C45.2 30.8001 45.2 30.9001 45.4 30.8001C46.2 30.6001 47 30.3001 47.8 29.9001C48.4 29.6001 48.9 29.3001 49.4 28.8001C49.9 28.3001 50.3 27.8001 50.6 27.2001C50.8 26.7001 50.9 26.2001 51.1 25.8001C51.3 25.3001 51.3 24.8001 51.5 24.3001C51.6 24.0001 51.6 23.8001 51.6 23.5001C51.6 23.3001 51.7 23.1001 51.7 23.0001C51.8 22.7001 51.8 22.3001 51.9 22.0001C52 21.5001 52.2 21.0001 52.3 20.4001C52.5 19.8001 52.6 19.2001 52.8 18.7001C53 18.1001 53.1 17.4001 53.1 16.8001C53.2 16.3001 53.2 15.8001 53.1 15.3001C53 14.9001 52.9 14.5001 52.6 14.3001C52.5 14.2001 52.4 14.2001 52.4 14.2001C51.8 14.0001 51.4 13.8001 51 13.8001C50.6 13.8001 50.1 13.7001 49.7 13.6001C49.4 13.5001 49.1 13.5001 48.8 13.5001C48.2 13.4001 47.7 13.4001 47.1 13.4001C46.7 13.4001 46.3 13.5001 46 13.6001C45.7 13.7001 45.4 13.8001 45.2 13.9001C44.9 14.1001 44.7 14.3001 44.5 14.5001C44.3 14.7001 44.2 15.0001 44 15.1001C43.7 15.3001 43.1 15.4001 42.9 15.2001C42.5 15.0001 42.4 14.7001 42.3 14.3001C42.3 14.1001 42.3 14.0001 42.4 13.8001C42.7 13.3001 43.1 12.7001 43.6 12.3001C44.1 11.9001 44.7 11.6001 45.4 11.4001C45.9 11.3001 46.5 11.2001 47.1 11.1001C47.2 11.1001 47.4 11.2001 47.5 11.1001C47.6 11.0001 47.7 10.8001 47.8 10.6001C47.9 10.4001 48 10.1001 48.1 9.90007C48.2 9.60007 48.3 9.30007 48.4 9.00007C48.4 8.80007 48.5 8.60007 48.5 8.40007C48.6 7.80007 48.7 7.30007 48.6 6.70007C48.3 6.40007 48.2 6.00007 48 5.70007C47.8 5.40007 47.5 5.10007 47.2 4.90007C46.8 4.70007 46.4 4.60007 46 4.50007C45.4 4.40007 44.8 4.30007 44.3 4.10007C43.8 4.00007 43.2 3.90007 42.7 3.80007C42 3.70007 41.2 3.50007 40.5 3.40007C39.9 3.30007 39.3 3.20007 38.7 3.10007C38.3 3.00007 37.8 3.00007 37.4 2.90007C36.7 2.80007 36 2.80007 35.2 2.70007C35.2 2.70007 35.1 2.70007 35 2.70007C35 3.00007 35 3.20007 34.9 3.40007C34.8 4.00007 34.6 4.60007 34.5 5.20007C34.3 6.10007 34.2 7.00007 34 7.80007C33.9 8.70007 33.7 9.60007 33.6 10.5001C33.6 10.6001 33.7 10.6001 33.7 10.6001C34.2 10.9001 34.7 11.2001 35.1 11.5001C35.4 11.7001 35.7 12.0001 36 12.2001C36.6 12.6001 37.1 13.0001 37.6 13.3001C38.2 13.7001 38.4 14.1001 38.2 14.7001C38.2 14.8001 38.1 14.8001 38.1 15.0001C38.2 15.0001 38.2 15.0001 38.3 15.1001C38.6 15.2001 39 15.2001 39.3 15.3001C40.6 15.6001 41.7 16.3001 42.7 17.3001C43.3 17.7001 43.7 18.2001 44.2 18.7001Z" fill="#DB2627"/>
<path d="M40.2 57.8C40.5 57.8 40.8 57.8 41.1 57.8C41.7 57.8 42.3 57.8 43 57.8C43.8 57.8 44.7 57.8 45.5 57.8C46.5 57.8 47.5 57.7 48.5 57.8C49.2 57.8 50 57.8 50.7 57.8C51 57.8 51.3 57.8 51.6 57.8C51.8 57.8 51.9 57.7 51.8 57.5C51.7 57.2 51.6 56.8 51.5 56.5C51.4 56 51.3 55.5 51.2 55.1C51.1 54.8 51.1 54.6 51 54.3C50.9 54 50.8 53.7 50.8 53.3C50.7 52.7 50.5 52.1 50.4 51.5C50.3 51 50.2 50.5 50.1 50C50 49.6 49.9 49.2 49.8 48.7C49.7 48.5 49.7 48.2 49.7 48C49.6 47.5 49.5 47 49.4 46.6C49.4 46.4 49.3 46.1 49.3 45.9C49.2 45.7 49.2 45.4 49.1 45.2C49 44.6 48.8 44 48.7 43.4C48.6 42.9 48.5 42.4 48.4 41.9C48.3 41.4 48.2 41 48.1 40.5C48 39.8 47.8 39.2 47.7 38.5C47.6 38 47.4 37.5 47.3 37C47.2 36.6 47.1 36.2 47 35.8C46.9 35.3 46.8 34.7 46.6 34.2C46.5 33.8 46.4 33.4 46.3 33C46.3 32.9 46.3 32.9 46.2 32.8C46.1 32.6 46 32.6 45.9 32.6C45.5 32.7 45.1 32.8 44.7 32.9C44.4 33 44.3 33.1 44.2 33.4C44.1 33.9 43.9 34.5 43.8 35C43.7 35.4 43.6 35.8 43.5 36.2C43.4 36.6 43.3 37 43.2 37.4C43.1 37.8 43 38.2 42.9 38.6C42.7 39.3 42.6 40 42.5 40.7C42.4 41.5 42.2 42.2 42.1 43C42 43.5 41.9 44.1 41.9 44.6C41.8 45.1 41.8 45.5 41.7 46C41.6 46.6 41.5 47.1 41.5 47.7C41.5 48.2 41.4 48.6 41.3 49.1C41.3 49.4 41.2 49.8 41.1 50.1C41 50.4 41 50.7 41 51.1C40.9 51.9 40.8 52.7 40.6 53.4C40.5 53.8 40.5 54.2 40.4 54.5C40.3 55.1 40.2 55.7 40 56.3C39.9 56.7 39.9 57.1 39.7 57.4C39.9 57.7 39.9 57.8 40.2 57.8Z" fill="#DB2627"/>
<path d="M32.3 57.9C32.9 58 33.6 57.9 34.3 57.9C34.9 57.9 35.4 57.9 36 57.9C36.2 57.9 36.3 57.9 36.3 57.6C36.3 57.1 36.4 56.7 36.4 56.2C36.4 55.9 36.5 55.6 36.5 55.3C36.6 54.7 36.7 54.1 36.8 53.6C37 52.9 37.1 52.2 37.3 51.5C37.4 50.9 37.6 50.3 37.7 49.7C37.8 49.2 37.9 48.7 38 48.2C38 48 38.1 47.8 38.1 47.6C38.1 47.4 38.1 47.4 37.9 47.5C37.5 47.7 37.2 47.9 36.8 48C36.5 48.1 36.2 48.3 35.9 48.4C35.5 48.5 35.1 48.7 34.7 48.8C34.4 48.9 34 49 33.7 49.1C33.1 49.3 32.5 49.5 32 49.7C31.6 49.9 31.2 50.1 30.8 50.2C30.7 50.3 30.5 50.4 30.4 50.4C30.3 50.4 30.3 50.5 30.3 50.6C30.3 50.9 30.4 51.2 30.4 51.5C30.5 52.3 30.6 53 30.7 53.8C30.8 54.3 30.9 54.9 30.9 55.4C30.9 55.7 31 55.9 31 56.2C31.1 56.7 31.3 57.3 31.6 57.8C31.8 57.9 31.8 57.9 32.3 57.9Z" fill="#DB2627"/>
<path d="M25.1 36.4001C24.8 36.3001 24.5 36.2 24.2 36.1C23.7 35.9 23.1 35.7 22.6 35.6C22.1 35.4 21.6 35.3 21 35.1C20.1 34.8 19.2 34.6001 18.2 34.4001C17.4 34.2001 16.6 34.1 15.8 34C15.4 33.9 14.9 33.9001 14.5 33.9001C13.9 33.9001 13.4 33.8 12.8 33.8C12.3 33.8 11.9 33.9 11.5 34C11 34.2 10.7 34.5001 10.8 35.2001C10.8 35.4001 10.8 35.6001 10.9 35.9001C10.9 36.0001 11 36.1 11.1 36.1C11.6 36.3 12.1 36.4 12.6 36.5C13.2 36.6 13.9 36.7 14.6 36.8C15 36.8 15.5 36.9001 15.9 36.9001C16.6 37.0001 17.2 37 17.9 37C18.4 37 18.9 37 19.4 37C20.1 37 20.9 37 21.6 37C22.2 37 22.9 36.9001 23.5 36.9001C24 36.9001 24.5 36.8 24.9 36.6C25 36.5 25 36.5001 25.1 36.4001Z" fill="#DB2627"/>
<path d="M17.3 42.5C17.7 42.5 18.1 42.5 18.6 42.5C19.3 42.5 20 42.5 20.7 42.4C20.9 42.4 21.1 42.4 21.3 42.3C21.4 42.3 21.5 42.3 21.5 42.2C21.5 42.1 21.4 42.1 21.4 42C21.1 41.6 20.7 41.3 20.3 41C19.7 40.6 19.1 40.2 18.5 39.9C17.9 39.6 17.2 39.3 16.6 39.1C16.2 39 15.8 38.9 15.4 38.8C15 38.7 14.6 38.6 14.3 38.6C13.8 38.5 13.3 38.4 12.8 38.4C12.5 38.4 12.1 38.4 11.8 38.4C11.6 38.4 11.6 38.5 11.7 38.7C11.9 39.1 12.1 39.4 12.3 39.8C12.5 40.1 12.8 40.4 13 40.7C13.4 41.1 13.8 41.4 14.4 41.7C14.8 41.9 15.3 42.1 15.7 42.2C16.1 42.3 16.5 42.4 16.9 42.4C16.9 42.4 17.1 42.4 17.3 42.5Z" fill="#DB2627"/>
<path d="M20.4 58.2C21.2 58.2 22 58.2 22.8 58.2C23.7 58.2 24.6 58.2 25.4 58.1C25.6 58.1 25.8 58.1 26 58.1C26.1 58.1 26.2 58.1 26.1 57.9C25.7 57.2 25.4 56.4 25 55.7C24.8 55.3 24.6 54.8 24.4 54.4C24.2 54 24.1 53.5 23.9 53.1C23.8 52.8 23.7 52.8 23.5 53C23.2 53.3 23 53.6 22.7 54C22.4 54.4 22.1 54.8 21.8 55.2C21.4 55.7 20.9 56.3 20.6 56.9C20.4 57.3 20.2 57.7 19.9 58.1C19.8 58.2 19.9 58.3 20 58.3C20.3 58.2 20.3 58.2 20.4 58.2Z" fill="#DB2627"/>
<path d="M11.1 13.9C11.1 13.6 11 13.3 11.1 13C11.1 12.8 10.9 12.7 10.8 12.7C10.4 12.5 10.1 12.3 9.7 12.1C9.5 12 9.3 11.9 9.1 11.8C8.8 11.6 8.5 11.5 8.3 11.4C8.1 11.3 7.9 11.1 7.7 11C7.6 11 7.6 10.9 7.5 10.8C7.4 10.7 7.4 10.6 7.3 10.7C7.2 10.7 7.2 10.9 7.2 10.9C7.2 11.1 7.3 11.4 7.3 11.6C7.3 11.9 7.4 12.2 7.5 12.5C7.6 12.9 7.7 13.2 7.8 13.6C7.9 14.1 8.1 14.6 8.2 15.1C8.2 15.3 8.3 15.3 8.5 15.3C8.8 15.2 9.1 15.1 9.4 15.1C9.8 15 10.2 14.9 10.6 14.7C10.8 14.6 10.9 14.5 11.1 14.4C11.1 14.1 11.1 14 11.1 13.9Z" fill="#DB2627"/>
<path d="M32 59.6C33.1 59.6 34.2 59.6 35.4 59.5C36.7 59.5 37.9 59.5 39.2 59.4C40.4 59.4 41.6 59.4 42.8 59.3C43.7 59.3 44.7 59.3 45.6 59.3C46.5 59.3 47.4 59.3 48.3 59.3C48.9 59.3 49.4 59.3 50 59.3C50.8 59.3 51.5 59.3 52.3 59.3C52.7 59.3 53 59.3 53.4 59.3C53.9 59.2 54.3 58.7 54.2 58.2C54 57.5 53.9 56.9 53.7 56.2C53.6 55.7 53.5 55.3 53.4 54.8C53.2 54 53 53.2 52.8 52.4C52.6 51.5 52.4 50.7 52.2 49.8C52 48.8 51.8 47.9 51.6 46.9C51.3 45.6 51.1 44.3 50.8 43C50.5 42 50.3 41 50 40C49.8 39.3 49.7 38.5 49.5 37.8C49.3 37.1 49.2 36.3 49 35.6C48.7 34.4 48.4 33.1 48.1 31.9C48.1 31.8 48.1 31.7 48.2 31.7C48.6 31.5 49 31.3 49.4 31C49.9 30.7 50.4 30.3 50.8 29.8C51.3 29.3 51.7 28.7 52 28.1C52.2 27.6 52.4 27.2 52.6 26.7C52.8 26 53 25.3 53.1 24.5C53.3 23.6 53.5 22.7 53.7 21.8C53.9 21 54.2 20.2 54.4 19.4C54.5 18.8 54.7 18.2 54.8 17.5C54.9 16.7 55 15.9 54.9 15.1C54.8 14.2 54.6 13.4 53.9 12.8C53.8 12.4 53.4 12.2 53 12C52.3 11.6 51.5 11.7 50.8 11.5C50.5 11.4 50.3 11.4 50 11.4C49.8 11.4 49.8 11.3 49.8 11.1C49.9 10.8 50.1 10.4 50.2 10.1C50.4 9.6 50.5 9 50.6 8.4C50.7 7.8 50.7 7.1 50.7 6.5C50.6 5.5 50.3 4.6 49.6 3.8C49 3.1 48.2 2.6 47.3 2.3C46.8 2.1 46.2 2.1 45.6 2C44.9 1.9 44.2 1.7 43.5 1.6C42.6 1.5 41.7 1.3 40.9 1.2C40.2 1.1 39.6 1 38.9 0.9C38.2 0.8 37.4 0.7 36.7 0.6C36.1 0.5 35.5 0.5 34.9 0.4C34.4 0.4 33.9 0.3 33.3 0.3C32.5 0.2 31.7 0.2 30.9 0.1C30 0.1 29.2 0 28.3 0C27.3 0 26.3 0 25.3 0C24.7 0 24 0 23.4 0C22.6 0 21.8 0.1 21 0.1C20.4 0.1 19.8 0.2 19.2 0.3C18.4 0.4 17.6 0.5 16.8 0.6C16.1 0.7 15.4 0.8 14.8 1C14.3 1.1 13.8 1.2 13.3 1.2C12.8 1.3 12.3 1.4 11.8 1.5C11.4 1.6 11 1.7 10.6 1.8C9.9 2 9.2 2.3 8.5 2.6C7.8 3 7.1 3.4 6.4 3.9C5.7 4.5 5.3 5.3 5.1 6.2C5 6.9 4.9 7.6 4.9 8.3C4.9 8.9 4.9 9.6 4.9 10.2C5 11.3 5.2 12.3 5.5 13.3C5.8 14.2 6 15.1 6.2 16C6.3 16.9 6.3 17.7 6.2 18.6C6.1 19.5 5.8 20.4 5.7 21.3C5.5 22.3 5.4 23.3 5.4 24.3C5.4 25.3 5.5 26.2 5.8 27.2C6.1 28.2 6.4 29.2 6.6 30.2C6.8 31 7.1 31.8 7.2 32.7C7.3 33.1 7.4 33.5 7.5 33.9C7.6 34.4 7.8 34.9 7.9 35.4C8.1 36.2 8.4 37 8.6 37.8C8.8 38.5 9.1 39.1 9.3 39.8C9.6 40.5 9.9 41.2 10.2 41.8C10.7 42.8 11.3 43.8 11.9 44.7C12.4 45.3 12.9 45.9 13.5 46.5C14.2 47.1 14.9 47.5 15.7 47.9C16.4 48.2 17.1 48.3 17.8 48.4C18 48.4 18 48.4 17.9 48.6C17.6 49.3 17.2 49.9 16.9 50.6C16.4 51.7 15.9 52.8 15.4 53.9C15 54.7 14.6 55.6 14.3 56.4C14 57.1 13.7 57.9 13.3 58.6C13.2 58.9 13.1 59.2 13.3 59.5C13.5 59.9 13.9 60 14.3 60C16 59.9 17.7 59.9 19.4 59.9C20.8 59.9 22.2 59.8 23.6 59.8C24.8 59.8 26.1 59.8 27.3 59.7C28.3 59.7 29.3 59.7 30.4 59.6C30.8 59.6 31.4 59.6 32 59.6ZM44.2 18.7C44.2 18.8 44.2 18.8 44.1 18.8C43.6 19.2 43.3 19.8 42.9 20.3C42.9 20.4 42.9 20.4 42.8 20.5C42.6 20.8 42.5 21 42.3 21.3C42.1 21.7 41.9 22.1 41.8 22.6C41.6 23.2 41.5 23.7 41.3 24.3C41.2 24.8 41.1 25.4 41 25.9C40.9 26.5 40.9 27.1 40.8 27.7C40.7 28.3 40.8 28.9 40.7 29.5C40.7 30.2 40.8 30.8 40.7 31.5C40.7 31.9 40.7 32.3 40.7 32.8C40.7 33 40.6 33.1 40.5 33.1C40.3 33.2 40.1 33.3 39.8 33.4C39.4 33.6 39 33.8 38.5 34C38.3 34.1 38 34.1 37.8 34.1C36.9 34.3 36.1 34.5 35.2 34.7C34.7 34.8 34.2 34.9 33.7 34.9C33.2 35 32.8 35 32.3 35C31.6 35 30.9 34.9 30.2 34.7C29.7 34.5 29.2 34.2 28.7 34C28.1 33.7 27.4 33.3 26.8 33C26.2 32.7 25.5 32.3 24.9 32C24.3 31.7 23.7 31.5 23.1 31.3C22.6 31.2 22.2 30.9 21.7 30.9C21.5 30.9 21.5 30.8 21.5 30.7C21.7 30.1 21.9 29.6 22.1 29C22.2 28.8 22.2 28.7 22.1 28.5C22 28.3 21.9 28.2 21.9 28C21.8 27.6 21.6 27.2 21.3 26.8C21.1 26.5 20.8 26.2 20.5 25.9C20.2 25.5 19.7 25.4 19.3 25.6C18.9 25.8 18.6 26.3 18.8 26.7C18.9 26.9 19 27.1 19.2 27.2C19.4 27.5 19.7 27.8 19.8 28.1C19.9 28.2 19.8 28.3 19.7 28.3C19.6 28.3 19.5 28.4 19.4 28.4C18.8 28.6 18.2 28.6 17.5 28.6C16.8 28.6 16.2 28.6 15.5 28.6C14.7 28.6 13.9 28.6 13.1 28.5C12.9 28.5 12.7 28.4 12.6 28.2C12.5 28 12.4 27.9 12.4 27.7C12.3 27.2 12.3 26.6 12.3 26C12.3 25.4 12.3 24.7 12.4 24.1C12.4 23.6 12.5 23 12.6 22.5C12.7 22 12.9 21.5 13 20.9C13.2 20.4 13.3 19.8 13.5 19.3C13.6 19 13.7 18.7 13.8 18.4C13.9 18.1 14 17.7 14 17.4C14.1 17 14.1 16.6 14.2 16.1C14.2 15.7 14.2 15.3 14.2 14.9C14.1 14.3 14 13.7 13.7 13.1C13.4 12.5 13 12 12.5 11.5C12.3 11.3 12.1 11.1 11.9 11C11.3 10.6 10.7 10.2 10 9.9C9.6 9.7 9.2 9.5 8.8 9.3C8.5 9.2 8.3 9 8.1 8.7C7.7 8.1 7.6 7.5 7.7 6.8C7.7 6.5 7.8 6.1 7.8 5.8C7.8 5.6 7.9 5.5 8 5.4C8.6 4.9 9.4 4.6 10.1 4.3C10.6 4.1 11.1 4 11.6 3.8C12 3.7 12.3 3.6 12.7 3.5C13.1 3.4 13.6 3.3 14 3.2C14.2 3.2 14.4 3.2 14.6 3.1C15 3 15.5 2.9 15.9 2.8C16.6 2.7 17.3 2.6 17.9 2.5C18.4 2.4 18.9 2.4 19.4 2.3C19.8 2.3 20.1 2.3 20.5 2.2C21 2.1 21.6 2.1 22.1 2.1C22.6 2.1 23.1 2 23.6 2C24 2 24.4 2 24.8 2C25.3 2 25.8 2 26.3 2C26.7 2 27.1 2 27.6 2C27.8 2 28 2.1 28.2 2C28.6 2 29 2 29.3 2C29.6 2 29.9 2 30.2 2.1C30.9 2.1 31.6 2.1 32.3 2.2C32.6 2.1 32.8 2.2 33.1 2.2C33.6 2.2 34.1 2.3 34.6 2.3C34.6 2.3 34.7 2.3 34.8 2.3C35.5 2.4 36.2 2.4 37 2.5C37.4 2.6 37.9 2.6 38.3 2.7C38.9 2.8 39.5 2.9 40.1 3C40.9 3.1 41.6 3.2 42.3 3.4C42.8 3.5 43.4 3.6 43.9 3.7C44.5 3.8 45.1 3.9 45.6 4.1C46 4.2 46.5 4.3 46.8 4.5C47.1 4.7 47.4 5 47.6 5.3C47.8 5.6 47.9 6 48 6.4C48.1 7 48 7.5 47.9 8.1C47.9 8.3 47.8 8.5 47.8 8.7C47.7 9 47.6 9.3 47.5 9.6C47.4 9.8 47.3 10.1 47.2 10.3C47.1 10.5 47.1 10.7 46.9 10.8C46.8 10.9 46.7 10.8 46.5 10.8C45.9 10.9 45.4 10.9 44.8 11.1C44.1 11.3 43.5 11.6 43 12C42.5 12.4 42.1 12.9 41.8 13.5C41.7 13.6 41.6 13.8 41.7 14C41.7 14.4 41.9 14.7 42.3 14.9C42.6 15.1 43.2 15 43.4 14.8C43.6 14.6 43.8 14.4 43.9 14.2C44.1 14 44.3 13.7 44.6 13.6C44.9 13.5 45.1 13.4 45.4 13.3C45.8 13.2 46.1 13.1 46.5 13.1C47.1 13.1 47.6 13.1 48.2 13.2C48.5 13.3 48.8 13.3 49.1 13.3C49.5 13.4 50 13.4 50.4 13.5C50.8 13.5 51.2 13.7 51.6 13.8C51.7 13.8 51.8 13.8 51.8 13.9C52.1 14.2 52.3 14.5 52.3 14.9C52.4 15.4 52.4 15.9 52.3 16.4C52.2 17.1 52.2 17.7 52 18.3C51.8 18.9 51.7 19.5 51.5 20C51.4 20.5 51.2 21 51.1 21.6C51 21.9 50.9 22.3 50.9 22.6C50.9 22.8 50.8 23 50.8 23.1C50.8 23.4 50.7 23.7 50.7 23.9C50.6 24.4 50.5 24.9 50.3 25.4C50.1 25.9 50 26.4 49.8 26.8C49.5 27.4 49.1 28 48.6 28.4C48.1 28.8 47.6 29.2 47 29.5C46.2 29.9 45.4 30.2 44.6 30.4C44.4 30.5 44.3 30.4 44.4 30.2C44.4 30 44.5 29.9 44.5 29.7C44.6 29.2 44.7 28.6 44.8 28.1C44.9 27.8 44.9 27.5 45 27.1C45.1 26.7 45.2 26.4 45.2 26C45.3 25.7 45.3 25.4 45.4 25.1C45.5 24.7 45.6 24.3 45.7 23.9C45.8 23.4 46 23 46.1 22.5C46.2 22.1 46.3 21.7 46.5 21.3C46.7 20.9 46.9 20.5 47.2 20.2C47.4 20 47.6 19.7 47.8 19.6C48.1 19.4 48.3 19.2 48.4 18.9C48.6 18.6 48.5 18.1 48.2 17.8C48 17.6 47.8 17.5 47.5 17.4C46.8 17.1 46 16.9 45.2 17.2C44.6 17.4 44 17.6 43.6 18.1C44.3 18.6 44.3 18.7 44.2 18.7ZM40.2 57.8C39.9 57.8 39.9 57.8 39.9 57.5C40 57.1 40.1 56.7 40.2 56.4C40.3 55.8 40.4 55.2 40.6 54.6C40.7 54.2 40.7 53.8 40.8 53.5C40.9 52.7 41 51.9 41.2 51.2C41.3 50.9 41.3 50.6 41.3 50.2C41.4 49.9 41.4 49.5 41.5 49.2C41.5 48.7 41.6 48.3 41.7 47.8C41.8 47.2 41.9 46.7 41.9 46.1C41.9 45.6 42 45.2 42.1 44.7C42.2 44.2 42.3 43.6 42.3 43.1C42.4 42.3 42.5 41.6 42.7 40.8C42.8 40.1 42.9 39.4 43.1 38.7C43.2 38.3 43.3 37.9 43.4 37.5C43.5 37.1 43.6 36.7 43.7 36.3C43.8 35.9 43.9 35.5 44 35.1C44.1 34.6 44.3 34 44.4 33.5C44.5 33.3 44.6 33.1 44.9 33C45.3 32.9 45.7 32.8 46.1 32.7C46.3 32.6 46.4 32.7 46.4 32.9C46.4 33 46.4 33 46.5 33.1C46.6 33.5 46.7 33.9 46.8 34.3C47 34.8 47 35.4 47.2 35.9C47.3 36.3 47.4 36.7 47.5 37.1C47.6 37.6 47.7 38.1 47.9 38.6C48 39.3 48.2 39.9 48.3 40.6C48.4 41.1 48.5 41.6 48.6 42C48.7 42.5 48.8 43 48.9 43.5C49 44.1 49.2 44.7 49.3 45.3C49.3 45.5 49.4 45.8 49.5 46C49.5 46.2 49.6 46.5 49.6 46.7C49.7 47.2 49.8 47.7 49.9 48.1C49.9 48.3 50 48.6 50 48.8C50.1 49.2 50.2 49.6 50.3 50.1C50.4 50.6 50.5 51.1 50.6 51.6C50.7 52.2 50.9 52.8 51 53.4C51.1 53.7 51.2 54 51.2 54.4C51.3 54.7 51.3 54.9 51.4 55.2C51.5 55.7 51.6 56.2 51.7 56.6C51.8 56.9 51.9 57.3 52 57.6C52.1 57.8 52 57.9 51.8 57.9C51.5 57.9 51.2 57.9 50.9 57.9C50.2 57.9 49.4 57.9 48.7 57.9C47.7 57.9 46.7 58 45.7 57.9C44.9 57.9 44 57.9 43.2 57.9C42.6 57.9 42 57.9 41.3 57.9C40.8 57.8 40.5 57.8 40.2 57.8ZM32.3 57.9C31.7 57.9 31.8 57.9 31.7 57.7C31.4 57.2 31.3 56.7 31.1 56.1C31 55.9 31 55.6 31 55.3C30.9 54.8 30.8 54.2 30.8 53.7C30.7 52.9 30.6 52.2 30.5 51.4C30.5 51.1 30.4 50.8 30.4 50.5C30.4 50.4 30.4 50.3 30.5 50.3C30.6 50.2 30.8 50.1 30.9 50.1C31.3 49.9 31.7 49.7 32.1 49.6C32.7 49.4 33.3 49.2 33.8 49C34.1 48.9 34.5 48.8 34.8 48.7C35.2 48.6 35.6 48.4 36 48.3C36.3 48.2 36.6 48.1 36.9 47.9C37.3 47.8 37.6 47.6 38 47.4C38.2 47.3 38.2 47.4 38.2 47.5C38.2 47.7 38.1 47.9 38.1 48.1C38 48.6 37.9 49.1 37.8 49.6C37.7 50.2 37.5 50.8 37.4 51.4C37.2 52.1 37.1 52.8 36.9 53.5C36.8 54.1 36.7 54.7 36.6 55.2C36.5 55.5 36.5 55.8 36.5 56.1C36.4 56.6 36.4 57 36.4 57.5C36.4 57.7 36.4 57.8 36.1 57.8C35.5 57.8 35 57.8 34.4 57.8C33.7 57.9 33 58 32.3 57.9ZM25.1 36.4C25 36.4 25 36.4 25 36.5C24.5 36.7 24.1 36.7 23.6 36.8C23 36.9 22.3 36.9 21.7 36.9C21 36.9 20.2 37 19.5 36.9C19 36.9 18.5 36.9 18 36.9C17.3 36.9 16.7 36.8 16 36.8C15.6 36.8 15.1 36.7 14.7 36.7C14 36.6 13.4 36.5 12.7 36.4C12.2 36.3 11.7 36.2 11.2 36C11.1 36 11.1 35.9 11 35.8C10.9 35.6 10.9 35.4 10.9 35.1C10.8 34.5 11.1 34.2 11.6 33.9C12 33.7 12.4 33.7 12.9 33.7C13.5 33.7 14 33.7 14.6 33.8C15 33.8 15.5 33.9 15.9 33.9C16.7 34 17.5 34.1 18.3 34.3C19.2 34.5 20.1 34.7 21.1 35C21.6 35.2 22.1 35.3 22.7 35.5C23.2 35.7 23.8 35.9 24.3 36C24.4 36.2 24.7 36.3 25.1 36.4ZM17.3 42.5C17.1 42.5 16.9 42.4 16.7 42.4C16.3 42.4 15.9 42.3 15.5 42.2C15.1 42.1 14.6 41.9 14.2 41.7C13.7 41.4 13.3 41.1 12.8 40.7C12.5 40.4 12.3 40.1 12.1 39.8C11.8 39.5 11.6 39.1 11.5 38.7C11.4 38.5 11.5 38.5 11.6 38.4C11.9 38.3 12.3 38.4 12.6 38.4C13.1 38.4 13.6 38.5 14.1 38.6C14.5 38.7 14.9 38.7 15.2 38.8C15.6 38.9 16 39 16.4 39.1C17.1 39.3 17.7 39.6 18.3 39.9C18.9 40.2 19.5 40.5 20.1 41C20.5 41.3 20.9 41.6 21.2 42C21.2 42.1 21.3 42.1 21.3 42.2C21.3 42.3 21.2 42.3 21.1 42.3C20.9 42.3 20.7 42.3 20.5 42.4C19.8 42.5 19.1 42.5 18.4 42.5C18.2 42.5 17.7 42.5 17.3 42.5ZM20.4 58.2C20.4 58.2 20.3 58.2 20.2 58.2C20.1 58.2 20 58.1 20.1 58C20.3 57.6 20.5 57.2 20.8 56.8C21.1 56.2 21.6 55.7 22 55.1C22.3 54.7 22.6 54.3 22.9 53.9C23.1 53.6 23.4 53.2 23.7 52.9C23.9 52.7 24 52.7 24 53C24.1 53.5 24.3 53.9 24.5 54.3C24.7 54.7 24.9 55.2 25.1 55.6C25.5 56.3 25.8 57.1 26.2 57.8C26.2 58 26.2 58 26 58C25.8 58 25.6 58 25.4 58C24.5 58 23.6 58 22.8 58.1C22 58.1 21.2 58.1 20.4 58.2ZM11.1 13.9C11.1 14 11.1 14.1 11 14.2C10.9 14.3 10.7 14.4 10.5 14.5C10.1 14.7 9.7 14.8 9.3 14.9C9 15 8.7 15 8.4 15.1C8.2 15.2 8.1 15.1 8.1 14.9C8 14.4 7.8 13.9 7.7 13.4C7.6 13 7.5 12.7 7.4 12.3C7.3 12 7.3 11.7 7.2 11.4C7.2 11.2 7.1 10.9 7.1 10.7C7.1 10.6 7.1 10.5 7.2 10.5C7.3 10.4 7.4 10.6 7.4 10.6C7.5 10.7 7.5 10.7 7.6 10.8C7.8 10.9 8 11.1 8.2 11.2C8.5 11.4 8.8 11.5 9 11.6C9.2 11.7 9.4 11.8 9.6 11.9C10 12.1 10.4 12.3 10.7 12.5C10.8 12.6 11 12.7 11 12.8C11 13.3 11 13.6 11.1 13.9Z" fill="black"/>
<path d="M21.8 16.9C21.8 17.5 22 18 22.5 18.5C22.9 18.8 23.3 19 23.7 19.1C24.3 19.3 24.9 19.3 25.6 19.4C26.2 19.5 26.9 19.5 27.5 19.5C28 19.5 28.5 19.4 29 19.4C29.4 19.4 29.9 19.3 30.3 19.2C30.7 19.1 31.1 19.1 31.4 19C32 18.8 32.7 18.6 33.3 18.2C33.5 18.1 33.6 17.9 33.8 17.8C34 17.6 34 17.4 34 17.1C33.9 16.7 33.7 16.4 33.3 16.2C32.8 16 32.4 15.8 31.9 15.6C31.4 15.4 31 15.3 30.5 15.1C30.2 15 30 14.9 29.7 14.8C29.1 14.6 28.6 14.5 28 14.3C27.4 14.2 26.8 14.1 26.3 14C25.8 13.9 25.3 13.9 24.9 14C24.3 14.1 23.7 14.2 23.2 14.6C22.9 14.8 22.6 15 22.5 15.4C22.3 15.9 22 16.3 21.9 16.8C21.8 16.7 21.8 16.8 21.8 16.9Z" fill="black"/>
<path d="M33.7 10.5C33.4 10.3 33 10.1 32.7 10C32.3 9.80002 31.9 9.60002 31.5 9.40002C31.2 9.30002 30.9 9.10002 30.5 9.00002C29.9 8.80002 29.3 8.60002 28.7 8.50002C28.1 8.40002 27.5 8.40002 26.8 8.40002C26.4 8.40002 26 8.50003 25.5 8.60003C25.1 8.70003 24.6 8.80002 24.2 8.90002C23.3 9.10002 22.5 9.50003 21.6 9.80002C20.9 10.1 20.3 10.4 19.6 10.7C19.4 10.8 19.1 10.9 18.9 11.1C18.5 11.6 18.7 12.4 19.2 12.7C19.6 12.9 20 12.9 20.4 12.7C21 12.4 21.7 12.1 22.3 11.8C22.7 11.6 23 11.5 23.4 11.4C23.8 11.2 24.3 11.1 24.7 11C25.2 10.9 25.7 10.7 26.2 10.7C26.7 10.7 27.2 10.6 27.7 10.6C28.2 10.6 28.6 10.7 29.1 10.9C29.7 11 30.3 11.3 30.8 11.6C31.4 11.9 32 12.2 32.6 12.6C33.1 12.9 33.6 13.3 34.2 13.6C34.6 13.9 35 14.2 35.4 14.5C35.7 14.7 36 14.9 36.3 15.1C36.4 15.2 36.6 15.2 36.7 15.3C37.1 15.6 37.7 15.4 38 15.2C38.1 15.2 38.1 15.1 38.2 15.1C38.2 15 38.3 14.9 38.3 14.8C38.5 14.2 38.3 13.7 37.7 13.4C37.1 13.1 36.6 12.7 36.1 12.3C35.8 12.1 35.5 11.8 35.2 11.6C34.7 11.3 34.3 11 33.8 10.7C33.7 10.6 33.7 10.6 33.7 10.5Z" fill="black"/>
<path d="M44.2 18.7C43.7 18.2 43.3 17.7 42.8 17.3C41.8 16.4 40.7 15.7 39.4 15.3C39.1 15.2 38.7 15.2 38.4 15.1C38.3 15.1 38.3 15.1 38.2 15C38.1 15 38.1 15.1 38 15.1C37.7 15.4 37.1 15.5 36.7 15.2C36.6 15.1 36.4 15 36.3 15C36 15.1 35.8 15.4 35.8 15.8C35.8 16.2 36 16.4 36.3 16.6C37 16.9 37.7 17.2 38.4 17.4C39.2 17.7 40.1 18.1 40.9 18.6C41.6 19 42.1 19.5 42.6 20.1C42.7 20.2 42.7 20.2 42.8 20.3C43.2 19.8 43.5 19.3 44 18.8C44.2 18.8 44.2 18.7 44.2 18.7Z" fill="#FDFDFD"/>
<path d="M33.7 10.5C33.8 9.59996 34 8.69996 34.1 7.79996C34.2 6.89996 34.4 5.99996 34.6 5.19996C34.7 4.59996 34.8 3.99996 35 3.39996C35 3.19996 35 2.99996 35 2.79996C34.5 2.69996 34 2.69996 33.5 2.69996C33.2 2.69996 33 2.59996 32.7 2.69996C32.6 3.39996 32.4 4.09996 32.3 4.79996C32.1 5.69996 32 6.59996 31.9 7.49996C31.8 8.09996 31.7 8.79996 31.6 9.39996C32 9.59996 32.4 9.79996 32.8 9.99996C33 10.2 33.3 10.3 33.7 10.5Z" fill="#FDFDFD"/>
<path d="M15.4 24.1C15.4 24.6 15.4 25 15.5 25.4C15.6 25.8 16 26.1 16.4 26.1C16.9 26.1 17.1 25.7 17.1 25.3C17.1 24.8 17 24.4 17.1 23.9C17.2 23 17.3 22.1 17.5 21.2C17.6 20.8 17.7 20.3 17.7 19.8C17.7 19.4 17.4 19.1 17 19C16.6 18.9 16.2 19.1 16.1 19.4C16 19.6 16 19.9 16 20.1C15.9 21 15.7 21.9 15.6 22.9C15.5 23.3 15.5 23.7 15.4 24.1Z" fill="#FDFDFD"/>
</svg>
