<?xml version="1.0" encoding="utf-8"?>
<!-- Generator: Adobe Illustrator 21.1.0, SVG Export Plug-In . SVG Version: 6.00 Build 0)  -->
<svg version="1.1" id="圖層_1" xmlns="http://www.w3.org/2000/svg" xmlns:xlink="http://www.w3.org/1999/xlink" x="0px" y="0px"
	 viewBox="0 0 149 33" style="enable-background:new 0 0 149 33;" xml:space="preserve">
<style type="text/css">
	.st0{fill:#231815;}
	.st1{fill:#E0002A;}
	.st2{fill:#FFFFFF;}
</style>
<g id="Logo_x2F_head" transform="translate(0.000000, 2.000000)">
	<g id="head">
		<path id="Shape" class="st0" d="M1.7,5.4C1.6,4.9,1.4,3.9,1.4,3.9c-0.2-0.8,0.3-1,0.3-1S5.4,1,12.2,0.8c2-0.1,5.6-0.1,9.2,1.1
			c0.3,0.1,0.3,0.3,0.4,0.7C21.9,3,22,3.4,22.1,3.8c0.1,0.9,0.1,1.4,0.1,1.9c0,0.3-0.4,1-0.4,1.2c-0.1,0.6,0.2,3,0.1,4.2
			s-0.5,5.1-1.5,7.6c-1,2.7-2.7,2.3-3.7,2.3l4.2,9.2H0.5l3-16c0,0,0.1-0.4-0.3-0.7c-0.8-0.5-1.4-1.3-1.4-1.3s-0.3-0.5-0.9-3.1
			c0,0-0.4-2.4,0.1-3c0.2-0.3,0.7-0.5,0.8-0.6V5.4z"/>
		<path id="Shape_1_" class="st1" d="M18,9.6l-1.3-0.3c0,0-0.3,0-0.4,0.2c-0.1,0.2-0.3,1.2-0.3,1.2s0,0.1,0.1,0.2
			c0.1,0.1,3.2,2.3,3.2,2.3s-2.6-0.3-3.4-0.1c-0.9,0.2-2.5,1-3.5,1.2c-1,0.2-4.9,0.6-5.2,0.6L5.5,8.1c0,0-0.2-1.6-1.9-1.6
			C2.4,6.5,2.2,6.9,2.1,7c-0.1,0.3,0,0.5,0,0.5l4.2,7c0,0-2.8-1.3-3.9-2.8C1.8,10.9,1.2,7,1.6,6.4C2,5.8,4.3,5.3,5.3,5.4
			c0.5,0.1,0.9,0.5,1.2,0.8c0.1,0.1,0.2,0.1,0.2,0.2c0,0-0.3-1.5-1.2-1.6C4,4.8,2.6,5.3,2.6,5.3s-0.1,0-0.2-0.2C2.1,4.9,2,3.6,2,3.6
			s0-0.3,0.3-0.3c0,0,4-1.8,10-1.8c0.7,0,6.3-0.1,9,1.1c0.3,0.2,0.1,1.1,0,1.6c-0.1,0.4-0.4,0.5-0.4,0.5C20.4,4.7,20.3,5,20.3,5
			s0.6,5.3,0.6,5.4c0.1,0.3-0.2,0.3-0.7,0.3c-0.3,0-3.1,0.1-3.1,0.1s-0.6-0.1-0.6-0.4c0-0.3,0.1-0.8,0.3-0.8c0.2,0,0.5,0,0.5,0
			S18.4,9.6,18,9.6z"/>
		<path id="Shape_2_" class="st1" d="M13.7,14.2c0,0,2.7-0.5,5.6,0.3c0,0,0.6,0.5,0.5,0.9C19.9,15.2,15.5,15.5,13.7,14.2z"/>
		<path id="Shape_3_" class="st1" d="M13.9,18.9c0,0,0.8-3.3,5.9-2.8c0,0,0.3,0.3-0.7,1.3C18,18.4,15.8,19.3,13.9,18.9z"/>
		<path id="Shape_4_" class="st0" d="M12.8,3.1c0,0,0.6-0.1,2.8,0.4c1.2,0.3,1.8,0.5,2.1,0.6c0.2,0,0.2,0.3,0.1,0.3
			c-0.2,0.1-3.1-0.9-4.7-0.8c0,0-2,0.8-4.3,2.8c0,0-0.5,0.1-0.7,0C8.2,6.4,10.2,4.1,12.8,3.1z"/>
		<path id="Shape_5_" class="st0" d="M10.8,6.3c0,0,1.9-0.9,2.8-1.2c0.9-0.3,1.7-0.3,2.1-0.3c0.4,0.1,0.9,1.2,0.9,1.4
			c0,0-1.4,0.7-2.7,0.5C12.8,6.7,11.5,6.6,10.8,6.3z"/>
		<path id="Shape_6_" class="st1" d="M21.4,4.8c0.3,0,0.3,0.1,0.4,0.2c0.2,0.2,0.1,0.4,0,0.6c-0.1,0.1-0.2-0.1-1-0.1
			C20.8,5.4,21.1,4.8,21.4,4.8z"/>
		<polygon id="Shape_7_" class="st1" points="4.2,14.2 6,15.4 9.2,29.6 1.3,29.6 		"/>
		<path id="Shape_8_" class="st1" d="M8.8,21.1c0,0,3.8,2.4,4.5,3.3l0.4,5.3h-2.8L8.8,21.1z"/>
		<path id="Shape_9_" class="st1" d="M15.4,25.9c0,0,2.3,2.1,2.9,3.7h-3.8L15.4,25.9z"/>
		<path id="Shape_10_" class="st2" d="M18.6,5.2c0,0,0.3-0.1,0.3,0.2c0.3,1.3,0.7,4,0.7,4.3c0,0.4-0.4,0.1-0.4,0.1L18.6,5.2z"/>
		<path id="Shape_11_" class="st2" d="M10.5,1.5c0,0,0.1,0,0.3,0c0.1,0,1.3,2,1.3,2s-0.4,0.3-0.5,0.3L10.5,1.5z"/>
		<path id="Shape_12_" class="st2" d="M5.5,8.1c0,0-0.4-1.3,0.4-1.5c0.9-0.2,2-0.3,3.4-0.3c0,0-2.2,0.4-2.9,0.7
			C5.7,7.4,5.5,8.1,5.5,8.1z"/>
	</g>
</g>
<g id="Logo_x2F_text" transform="translate(29.000000, 0.000000)">
	<g id="text">
		<path id="Shape_13_" class="st2" d="M8.2,17.9v7.4c0,2.7,0.3,4,3.1,4v0.3H0.3v-0.3c3.1,0,2.7-3.4,2.7-6.1v-7.8
			c0-2.7,0.7-8.1-2.7-8.1V7.1h10.2v0.3c-2.7,0-2.7,1.7-2.7,4.4v5.7h0.3c4.4-4.4,4.8-5.1,5.1-5.4c2-3.4,0-4.4-1-4.4V7.4h8.9v0.3
			c-1.4,0-4.4,2.4-6.1,3.7l-6.1,6.1c8.9,0.3,8.5,4.7,9.5,8.1c0.7,2,1,3,3.1,3.4v0.3h-7.8C12.6,22.9,11.9,17.5,8.2,17.9z"/>
		<path id="Shape_14_" class="st2" d="M29,18.9c0,3,0.3,4,2.4,4v0.3h-9.2v-0.3c2,0,2-2,2-4v-8.1c0-2-0.3-3.4-2.4-3.4V7.1H29V18.9z"
			/>
		<ellipse id="Oval" class="st2" cx="26.6" cy="3.4" rx="2.7" ry="2.7"/>
		<path id="Shape_15_" class="st2" d="M38.5,8.8c1.7-2.4,2.7-2.4,4.4-2.4c4.4,0,4.8,3.4,4.8,6.1v6.1c0,3,0.3,4,2,4v0.3h-8.9v-0.3
			c1.7,0,1.7-1.3,1.7-4v-6.4c0-2.4,0.3-5.1-1.4-5.1c-2,0-2,1.7-2.7,2.4v9.4c0,2.7,0,4,1.7,4v0.3h-8.5v-0.3c1.7,0,2-1.3,2-4v-8.1
			c0-2.4-0.3-3.4-2.4-3.4V7.1h7.2V8.8z"/>
		<path id="Shape_16_" class="st2" d="M84.2,6.7h3.4l-0.7,1h-2.7v9.8c0,5.1,2.7,4.4,4.1,3.4v0.3c-2.7,2-4.4,1.7-5.1,1.7
			c-2.4,0-4.1-1.7-4.1-4V7.8h-2.7l0,0c2-0.7,5.8-3.7,7.5-6.1h0.3V6.7z"/>
		<path id="Shape_17_" class="st2" d="M86.6,15.2c0-4,3.4-8.8,7.8-8.8c4.1,0,7.8,4,7.8,8.4c0,5.1-4.4,8.4-7.8,8.4
			C90,23.2,86.6,19.5,86.6,15.2z M97.2,14.8c0-5.1-0.3-7.8-2.7-7.8c-2.7,0-2.7,3.7-2.7,7.8c0,5.1,0,8.4,2.7,8.4
			C97.5,23.2,97.2,19.5,97.2,14.8z"/>
		<path id="Shape_18_" class="st2" d="M108.4,8.8c1.7-2.4,2.7-2.4,4.4-2.4c4.4,0,4.8,3.4,4.8,6.1v6.1c0,3,0.3,4,2,4v0.3h-8.9v-0.3
			c1.7,0,1.7-1.3,1.7-4v-6.4c0-2.4,0.3-5.1-1.4-5.1c-2,0-2,1.7-2.7,2.4v9.4c0,2.7,0,4,1.7,4v0.3h-8.5v-0.3c1.7,0,2-1.3,2-4v-8.1
			c0-2.4-0.3-3.4-2.4-3.4V7.1h7.2V8.8z"/>
		<path id="Shape_19_" class="st2" d="M58.3,20.6c-0.3,0.7-1.4,2.7-3.8,2.7c-3.1,0-5.5-2.7-5.5-8.4c0-4.4,3.1-8.4,6.1-8.4
			c2.4,0,3.4,2,3.4,2V6.7h7.5v0.3c0,0-2.4-0.3-2.4,3v12.5c-0.3,3.4-1.7,5.7-7.8,7.4v-0.3C59.3,27.3,58.6,23.9,58.3,20.6z M59,14.5
			c0-3.7-0.3-7.4-2.7-7.4c-1.7,0-2,3-2,8.1c0,4.4,0.3,7.4,2,7.4c1.4,0,2.7-3.4,2.7-6.7V14.5z"/>
		<path id="Shape_20_" class="st2" d="M64.4,17.9h2.4c-0.3,5.1,3.4,5.1,4.1,5.1c1.7,0,3.1-1.3,3.1-2.7c0-4-8.9-2.4-8.9-8.8
			c0-2.7,2-5.4,5.5-5.4c5.5,0,5.8,3,5.8,4.4h-2c0.3-0.7,0-4-3.4-4c-2.7,0-2.7,2.4-2.7,2.4c0,4,9.5,2.7,9.5,8.4c0,3-2.4,5.4-5.8,5.7
			C66.1,23.6,64.4,19.5,64.4,17.9z"/>
		<path id="Shape_21_" class="st2" d="M115.9,5.4c0-1,0.7-1.7,1.7-1.7c1,0,1.7,0.7,1.7,1.7s-0.7,1.7-1.7,1.7
			C116.6,7.1,115.9,6.4,115.9,5.4z M119,5.4c0-0.7-0.7-1.3-1.4-1.3c-0.7,0-1.4,0.7-1.4,1.3s0.7,1.3,1.4,1.3
			C118.6,7.1,119,6.4,119,5.4z M118.6,6.4L118.6,6.4l-0.7-1h-0.3v1h-0.3v-2h0.7c0.3,0,0.7,0.3,0.7,0.3c0,0.3-0.3,0.7-0.7,0.7
			L118.6,6.4z M117.6,5.4c0.3,0,0.7,0,0.7-0.3S118,4.7,118,4.7h-0.7v0.7H117.6z"/>
		<polygon id="Shape_22_" class="st2" points="22.8,24.3 26.9,24.3 26.9,24.9 25.2,24.9 25.2,29.3 24.5,29.3 24.5,24.9 22.8,24.9 		
			"/>
		<polygon id="Shape_23_" class="st2" points="32,29.3 32,24.3 35.8,24.3 35.8,24.9 32.7,24.9 32.7,26.6 35.5,26.6 35.5,27.3 
			32.7,27.3 32.7,29 35.8,29 35.8,29.7 32,29.7 		"/>
		<path id="Shape_24_" class="st2" d="M43.6,24.3c0.7,0,1,0,1.4,0.3s0.7,0.7,0.7,1H45c0-0.3-0.3-0.7-0.3-0.7c-0.3-0.3-0.7-0.3-1-0.3
			s-1,0.3-1.4,0.7c-0.3,0.3-0.3,1-0.3,1.7c0,0.7,0,1,0.3,1.3C42.6,29,43,29,43.6,29c0.7,0,1-0.3,1-0.7S45,28,45,27.6h0.7
			c0,0.7-0.3,1-0.7,1.3c-0.3,0.3-1,0.7-1.7,0.7c-0.7,0-1-0.3-1.4-0.7c-0.7-0.3-0.7-1.3-0.7-2c0-0.7,0.3-1.3,0.7-1.7
			C42.3,24.6,43,24.3,43.6,24.3z"/>
		<polygon id="Shape_25_" class="st2" points="51.1,29.3 51.1,24.3 51.8,24.3 51.8,26.3 54.5,26.3 54.5,24.3 55.2,24.3 55.2,29.3 
			54.5,29.3 54.5,27 51.8,27 51.8,29.3 		"/>
		<polygon id="Shape_26_" class="st2" points="63.8,29.3 63.8,24.3 64.4,24.3 67.2,28.3 67.2,24.3 67.8,24.3 67.8,29.3 67.2,29.3 
			64.4,25.3 64.4,29.3 		"/>
		<path id="Shape_27_" class="st2" d="M75,28.3c-0.3-0.3-0.3-1-0.3-1.3c0-0.7,0-1.3,0.3-1.7c0.3-0.3,0.7-0.7,1.4-0.7
			c0.7,0,1,0.3,1.4,0.7c0.3,0.3,0.3,0.7,0.3,1.3c0,0.7,0,1-0.3,1.3c-0.3,0.7-0.7,1-1.4,1C75.7,29,75.3,29,75,28.3z M74.3,25.3
			c-0.3,0.3-0.7,1-0.7,1.7c0,0.7,0.3,1.3,0.7,2c0.3,0.7,1,0.7,1.7,0.7s1.4-0.3,2-1c0.3-0.3,0.7-1,0.7-2c0-0.7,0-1.3-0.3-1.7
			c-0.3-0.7-1-1-2-1C75.7,24.3,75,24.6,74.3,25.3z"/>
		<polygon id="Shape_28_" class="st2" points="84.9,29.3 84.9,24.3 85.6,24.3 85.6,29 88.3,29 88.3,29.7 84.9,29.7 		"/>
		<path id="Shape_29_" class="st2" d="M94.8,28.3c-0.3-0.3-0.3-1-0.3-1.3c0-0.7,0-1.3,0.3-1.7c0.3-0.3,0.7-0.7,1.4-0.7
			c0.7,0,1,0.3,1.4,0.7c0.3,0.3,0.3,0.7,0.3,1.3c0,0.7,0,1-0.3,1.3c-0.3,0.3-0.7,0.7-1.4,0.7C95.5,29,95.1,29,94.8,28.3z M94.1,25.3
			c-0.3,0.3-0.7,1-0.7,1.7c0,0.7,0.3,1.3,0.7,2c0.3,0.7,1,0.7,1.7,0.7s1.4-0.3,2-1c0.3-0.3,0.7-1,0.7-2c0-0.7,0-1.3-0.3-1.7
			c-0.3-0.7-1-1-2-1C95.1,24.3,94.4,24.6,94.1,25.3z"/>
		<path id="Shape_30_" class="st2" d="M106.7,24.3c0.3,0,1,0,1.4,0.3c0.3,0.3,0.7,0.7,1,1.3h-0.7c0-0.3-0.3-0.7-0.7-0.7
			c-0.3-0.3-0.7-0.3-1-0.3s-1,0.3-1.4,0.7c-0.3,0.3-0.3,1-0.3,1.7c0,0.7,0,1,0.3,1.3c0.3,0.3,0.7,0.7,1.4,0.7c0.3,0,0.7,0,1-0.3
			c0.3-0.3,0.3-0.7,0.3-1.3h-1.7V27h2.4v2.7h-0.3V29c-0.3,0.3-0.3,0.3-0.7,0.7c-0.3,0.3-0.7,0.3-1,0.3c-0.7,0-1-0.3-1.7-0.7
			c-0.3-0.3-0.7-1-0.7-2s0.3-1.7,0.7-2C105.3,24.6,106,24.3,106.7,24.3z"/>
		<polygon id="Shape_31_" class="st2" points="116.6,27.3 114.5,24.3 115.2,24.3 116.6,26.6 118,24.3 118.6,24.3 116.6,27.3 
			116.6,29.3 115.9,29.3 115.9,27.3 		"/>
	</g>
</g>
</svg>
