<svg width="60" height="60" viewBox="0 0 60 60" fill="none" xmlns="http://www.w3.org/2000/svg">
<path d="M32.5585 2.59991C31.8585 2.49991 31.1585 2.49991 30.4585 2.49991C30.1585 2.49991 29.8585 2.49991 29.5585 2.39991C29.1585 2.39991 28.8585 2.29991 28.4585 2.39991C28.2585 2.39991 28.0585 2.39991 27.8585 2.39991C27.4585 2.39991 27.0585 2.39991 26.5585 2.39991C26.0585 2.39991 25.5585 2.39991 25.0585 2.39991C24.6585 2.39991 24.2585 2.39991 23.8585 2.39991C23.3585 2.39991 22.8585 2.39991 22.3585 2.49991C21.8585 2.49991 21.2585 2.49991 20.7585 2.59991C20.3585 2.69991 20.0585 2.59991 19.6585 2.69991C19.1585 2.69991 18.6585 2.79991 18.1585 2.89991C17.4585 2.99991 16.7585 3.09991 16.1585 3.19991C15.7585 3.29991 15.2585 3.39991 14.8585 3.49991C14.6585 3.49991 14.4585 3.59991 14.2585 3.59991C13.8585 3.59991 13.3585 3.79991 12.9585 3.89991C12.5585 3.99991 12.1585 4.09991 11.8585 4.19991C11.3585 4.39991 10.8586 4.49991 10.3586 4.69991C9.65855 4.99991 8.85854 5.29991 8.25854 5.79991C8.05854 5.69991 7.95855 5.79991 7.95855 5.99991C7.95855 6.29991 7.85855 6.69991 7.85855 6.99991C7.85855 7.69991 7.85854 8.39991 8.25854 8.89991C8.45855 9.09991 8.65855 9.29991 8.95855 9.49991C9.35855 9.69991 9.75854 9.89991 10.1585 10.0999C10.7585 10.3999 11.4585 10.7999 12.0585 11.1999C12.2585 11.3999 12.5585 11.4999 12.6585 11.6999C13.0585 12.1999 13.5585 12.6999 13.8585 13.2999C14.0585 13.8999 14.2585 14.3999 14.3585 15.0999C14.3585 15.4999 14.4585 15.8999 14.3585 16.2999C14.3585 16.6999 14.2585 17.0999 14.1585 17.5999C14.0585 17.8999 14.0585 18.2999 13.9585 18.5999C13.8585 18.8999 13.7585 19.1999 13.6585 19.4999C13.4585 19.9999 13.3585 20.5999 13.1585 21.0999C12.9585 21.5999 12.8585 22.0999 12.7585 22.6999C12.6585 23.1999 12.5585 23.7999 12.5585 24.2999C12.5585 24.8999 12.4585 25.5999 12.4585 26.1999C12.4585 26.7999 12.4585 27.2999 12.5585 27.8999C12.5585 28.0999 12.6585 28.2999 12.7585 28.3999C12.8585 28.5999 13.0585 28.5999 13.2585 28.6999C14.0585 28.8999 14.8585 28.7999 15.6585 28.7999C16.3585 28.7999 16.9585 28.7999 17.6585 28.7999C18.2585 28.7999 18.9585 28.7999 19.5585 28.5999C19.6585 28.5999 19.7585 28.4999 19.8585 28.4999C19.9585 28.4999 19.9585 28.3999 19.9585 28.2999C19.7585 27.9999 19.5585 27.6999 19.3585 27.3999C19.2585 27.1999 19.0585 27.0999 18.9585 26.8999C18.7585 26.4999 19.0585 25.8999 19.4585 25.7999C19.9585 25.5999 20.3585 25.6999 20.6585 26.0999C20.9585 26.3999 21.2585 26.6999 21.4585 26.9999C21.7585 27.3999 21.9585 27.6999 22.0585 28.1999C22.0585 28.3999 22.2585 28.4999 22.2585 28.6999C22.3585 28.8999 22.3585 28.9999 22.2585 29.1999C22.0585 29.7999 21.8585 30.2999 21.6585 30.8999C21.5585 31.0999 21.6585 31.1999 21.8585 31.0999C22.3585 30.9999 22.7585 31.2999 23.2585 31.4999C23.8585 31.6999 24.4585 31.8999 25.0585 32.1999C25.7585 32.4999 26.3585 32.7999 26.9585 33.1999C27.5585 33.4999 28.2585 33.8999 28.8585 34.1999C29.3585 34.4999 29.8585 34.6999 30.3585 34.8999C31.0585 35.0999 31.7585 35.2999 32.4585 35.1999C32.9585 35.1999 33.3585 35.1999 33.8585 35.0999C34.3585 34.9999 34.8585 34.8999 35.3585 34.8999C36.2585 34.6999 37.1585 34.4999 37.9585 34.2999C38.1585 34.2999 38.4585 34.2999 38.6585 34.1999C39.0585 33.9999 39.5585 33.7999 39.9585 33.5999C40.1585 33.4999 40.3585 33.3999 40.6585 33.2999C40.7585 33.1999 40.8585 33.1999 40.8585 32.9999C40.8585 32.5999 40.7585 32.1999 40.8585 31.6999C40.8585 30.9999 40.8585 30.3999 40.8585 29.6999C40.8585 29.0999 40.8585 28.4999 40.9585 27.8999C41.0585 27.2999 40.9585 26.6999 41.1585 26.0999C41.2585 25.5999 41.2585 24.9999 41.4585 24.4999C41.6585 23.8999 41.7585 23.3999 41.9585 22.7999C42.1585 22.3999 42.3585 21.9999 42.4585 21.4999C42.5585 21.1999 42.7585 20.9999 42.9585 20.6999C42.9585 20.5999 42.9585 20.5999 43.0585 20.4999C42.9585 20.4999 42.8585 20.3999 42.8585 20.2999C42.3585 19.6999 41.7585 19.1999 41.1585 18.7999C40.3585 18.2999 39.5585 17.9999 38.6585 17.5999C37.9585 17.2999 37.2585 16.9999 36.5585 16.7999C36.2585 16.6999 36.0585 16.3999 36.0585 15.9999C36.0585 15.6999 36.2585 15.3999 36.5585 15.1999C36.2585 14.9999 35.9585 14.7999 35.6585 14.5999C35.2585 14.2999 34.8585 13.9999 34.4585 13.6999C33.9585 13.3999 33.4585 12.9999 32.8585 12.6999C32.2585 12.2999 31.6585 11.9999 31.0585 11.6999C30.5585 11.3999 29.9585 11.1999 29.3585 10.9999C28.8585 10.8999 28.4585 10.7999 27.9585 10.6999C27.4585 10.6999 26.9585 10.7999 26.4585 10.7999C25.9585 10.7999 25.4585 10.9999 24.9585 11.0999C24.4585 11.1999 24.0585 11.3999 23.6585 11.4999C23.2585 11.5999 22.9585 11.7999 22.5585 11.8999C21.8585 12.1999 21.2585 12.4999 20.6585 12.7999C20.2585 12.9999 19.8585 12.9999 19.4585 12.7999C18.8585 12.4999 18.7585 11.6999 19.1585 11.1999C19.3585 10.9999 19.6585 10.8999 19.8585 10.7999C20.4585 10.4999 21.1585 10.1999 21.8585 9.89991C22.6585 9.59991 23.5585 9.19991 24.4585 8.99991C24.8585 8.89991 25.3585 8.79991 25.7585 8.69991C26.1585 8.59991 26.5585 8.49991 27.0585 8.49991C27.6585 8.49991 28.3585 8.49991 28.9585 8.59991C29.5585 8.69991 30.1585 8.89991 30.7585 9.09991C31.0585 9.19991 31.3585 9.39991 31.7585 9.49991C31.8585 8.89991 31.9585 8.19991 32.0585 7.59991C32.1585 6.69991 32.3585 5.79991 32.4585 4.89991C32.2585 3.99991 32.4585 3.29991 32.5585 2.59991ZM21.7585 16.8999C21.7585 16.7999 21.7585 16.6999 21.7585 16.6999C21.8585 16.1999 22.1585 15.7999 22.3585 15.2999C22.4585 14.9999 22.7585 14.6999 23.0585 14.4999C23.5585 14.0999 24.1585 13.9999 24.7585 13.8999C25.2585 13.7999 25.6585 13.7999 26.1585 13.8999C26.7585 13.9999 27.3585 14.0999 27.8585 14.1999C28.4585 14.2999 28.9585 14.4999 29.5585 14.6999C29.8585 14.7999 30.1585 14.8999 30.3585 14.9999C30.8585 15.1999 31.2585 15.2999 31.7585 15.4999C32.2585 15.6999 32.6585 15.8999 33.1585 16.0999C33.5585 16.2999 33.8585 16.5999 33.8585 16.9999C33.8585 17.1999 33.8585 17.4999 33.6585 17.6999C33.5585 17.7999 33.3585 17.9999 33.1585 18.0999C32.5585 18.4999 31.9585 18.6999 31.2585 18.8999C30.8585 18.9999 30.5585 19.0999 30.1585 19.0999C29.7585 19.1999 29.2585 19.2999 28.8585 19.2999C28.3585 19.3999 27.8585 19.3999 27.3585 19.3999C26.7585 19.3999 26.0585 19.3999 25.4585 19.2999C24.8585 19.1999 24.1585 19.1999 23.5585 18.9999C23.1585 18.8999 22.6585 18.6999 22.3585 18.3999C21.9585 17.9999 21.7585 17.4999 21.7585 16.8999ZM15.3585 24.0999C15.3585 23.7999 15.3585 23.2999 15.4585 22.8999C15.5585 21.9999 15.7585 21.0999 15.8585 20.0999C15.8585 19.8999 15.9585 19.5999 15.9585 19.3999C16.0585 19.0999 16.4585 18.8999 16.8585 18.9999C17.2585 19.0999 17.5585 19.3999 17.5585 19.7999C17.5585 20.2999 17.4585 20.6999 17.3585 21.1999C17.2585 22.0999 17.0585 22.9999 16.9585 23.8999C16.9585 24.3999 16.9585 24.8999 16.9585 25.2999C16.9585 25.7999 16.6585 26.0999 16.2585 26.0999C15.8585 26.0999 15.3585 25.7999 15.3585 25.3999C15.4585 24.9999 15.4585 24.5999 15.3585 24.0999Z" fill="#DB2627"/>
<path d="M44.1585 18.7C44.2585 18.7 44.2585 18.6 44.3585 18.6C44.7585 18.1 45.3585 17.9 45.9585 17.7C46.7585 17.4 47.5585 17.6 48.2585 17.9C48.4585 18 48.7585 18 48.9585 18.2C49.2585 18.5 49.2585 19 49.1585 19.2999C49.0585 19.5999 48.7585 19.7999 48.5585 20C48.3585 20.2 48.1585 20.4 47.9585 20.6C47.6585 20.9 47.4585 21.3 47.2585 21.7C47.0585 22.1 46.9585 22.5 46.8585 22.9C46.7585 23.4 46.5585 23.7999 46.4585 24.2999C46.3585 24.6999 46.2585 25.1 46.1585 25.5C46.0585 25.7999 46.0585 26.1 45.9585 26.4C45.8585 26.7999 45.7585 27.1 45.7585 27.5C45.6585 27.7999 45.6585 28.1 45.5585 28.5C45.4585 29 45.2585 29.6 45.2585 30.1C45.2585 30.3 45.1585 30.4 45.1585 30.6C45.1585 30.8 45.1585 30.9 45.3585 30.7999C46.1585 30.5999 46.9585 30.2999 47.7585 29.9C48.3585 29.6 48.8585 29.2999 49.3585 28.7999C49.8585 28.2999 50.2585 27.8 50.5585 27.2C50.7585 26.7 50.8585 26.1999 51.0585 25.7999C51.2585 25.2999 51.2585 24.7999 51.4585 24.2999C51.5585 24 51.5585 23.7999 51.5585 23.5C51.5585 23.2999 51.6585 23.1 51.6585 23C51.7585 22.7 51.7585 22.2999 51.8585 22C51.9585 21.5 52.1585 21 52.2585 20.4C52.4585 19.7999 52.5585 19.2 52.7585 18.7C52.9585 18.1 53.0585 17.4 53.0585 16.8C53.1585 16.3 53.1585 15.8 53.0585 15.3C52.9585 14.9 52.8585 14.5 52.5585 14.3C52.4585 14.2 52.3585 14.2 52.3585 14.2C51.7585 14 51.3585 13.8 50.9585 13.8C50.5585 13.8 50.0585 13.7 49.6585 13.6C49.3585 13.5 49.0585 13.5 48.7585 13.5C48.1585 13.4 47.6585 13.4 47.0585 13.4C46.6585 13.4 46.2585 13.5 45.9585 13.6C45.6585 13.7 45.3585 13.8 45.1585 13.9C44.8585 14.1 44.6585 14.3 44.4585 14.5C44.2585 14.7 44.1585 15 43.9585 15.1C43.6585 15.3 43.0585 15.4 42.8585 15.2C42.4585 15 42.3585 14.7 42.2585 14.3C42.2585 14.1 42.2585 14 42.3585 13.8C42.6585 13.3 43.0585 12.7 43.5585 12.3C44.0585 11.9 44.6585 11.6 45.3585 11.4C45.8585 11.3 46.4585 11.2 47.0585 11.1C47.1585 11.1 47.3585 11.2 47.4585 11.1C47.5585 11 47.6585 10.8 47.7585 10.6C47.8585 10.4 47.9585 10.1 48.0585 9.89995C48.1585 9.59995 48.2585 9.29995 48.3585 8.99995C48.3585 8.79995 48.4585 8.59995 48.4585 8.39995C48.5585 7.79995 48.6585 7.29995 48.5585 6.69995C48.2585 6.39995 48.1585 5.99995 47.9585 5.69995C47.7585 5.39995 47.4585 5.09995 47.1585 4.89995C46.7585 4.69995 46.3585 4.59995 45.9585 4.49995C45.3585 4.39995 44.7585 4.29995 44.2585 4.09995C43.7585 3.99995 43.1585 3.89995 42.6585 3.79995C41.9585 3.69995 41.1585 3.49995 40.4585 3.39995C39.8585 3.29995 39.2585 3.19995 38.6585 3.09995C38.2585 2.99995 37.7585 2.99995 37.3585 2.89995C36.6585 2.79995 35.9585 2.79995 35.1586 2.69995C35.1586 2.69995 35.0585 2.69995 34.9585 2.69995C34.9585 2.99995 34.9585 3.19995 34.8585 3.39995C34.7585 3.99995 34.5585 4.59995 34.4585 5.19995C34.2585 6.09995 34.1586 6.99995 33.9585 7.79995C33.8585 8.69995 33.6586 9.59995 33.5585 10.5C33.5585 10.6 33.6586 10.6 33.6586 10.6C34.1586 10.9 34.6586 11.2 35.0585 11.5C35.3585 11.7 35.6586 12 35.9585 12.2C36.5585 12.6 37.0585 13 37.5585 13.3C38.1585 13.7 38.3585 14.1 38.1585 14.7C38.1585 14.8 38.0585 14.8 38.0585 15C38.1585 15 38.1585 15 38.2585 15.1C38.5585 15.2 38.9585 15.2 39.2585 15.3C40.5585 15.6 41.6585 16.3 42.6585 17.3C43.2585 17.7 43.6585 18.2 44.1585 18.7Z" fill="#DB2627"/>
<path d="M40.1585 57.7999C40.4585 57.7999 40.7585 57.7999 41.0585 57.7999C41.6585 57.7999 42.2585 57.7999 42.9585 57.7999C43.7585 57.7999 44.6585 57.7999 45.4585 57.7999C46.4585 57.7999 47.4585 57.6999 48.4585 57.7999C49.1585 57.7999 49.9585 57.7999 50.6585 57.7999C50.9585 57.7999 51.2585 57.7999 51.5585 57.7999C51.7585 57.7999 51.8585 57.6999 51.7585 57.4999C51.6585 57.1999 51.5585 56.7999 51.4585 56.4999C51.3585 55.9999 51.2585 55.4999 51.1585 55.0999C51.0585 54.7999 51.0585 54.5999 50.9585 54.2999C50.8585 53.9999 50.7585 53.6999 50.7585 53.2999C50.6585 52.6999 50.4585 52.0999 50.3585 51.4999C50.2585 50.9999 50.1585 50.4999 50.0585 49.9999C49.9585 49.5999 49.8585 49.1999 49.7585 48.6999C49.6585 48.4999 49.6585 48.1999 49.6585 47.9999C49.5585 47.4999 49.4585 46.9999 49.3585 46.5999C49.3585 46.3999 49.2585 46.0999 49.2585 45.8999C49.1585 45.6999 49.1585 45.3999 49.0585 45.1999C48.9585 44.5999 48.7585 43.9999 48.6585 43.3999C48.5585 42.8999 48.4585 42.3999 48.3585 41.8999C48.2585 41.3999 48.1585 40.9999 48.0585 40.4999C47.9585 39.7999 47.7585 39.1999 47.6585 38.4999C47.5585 37.9999 47.3585 37.4999 47.2585 36.9999C47.1585 36.5999 47.0585 36.1999 46.9585 35.7999C46.8585 35.2999 46.7585 34.6999 46.5585 34.1999C46.4585 33.7999 46.3585 33.3999 46.2585 32.9999C46.2585 32.8999 46.2585 32.8999 46.1585 32.7999C46.0585 32.5999 45.9585 32.5999 45.8585 32.5999C45.4585 32.6999 45.0585 32.7999 44.6585 32.8999C44.3585 32.9999 44.2585 33.0999 44.1585 33.3999C44.0585 33.8999 43.8585 34.4999 43.7585 34.9999C43.6585 35.3999 43.5585 35.7999 43.4585 36.1999C43.3585 36.5999 43.2585 36.9999 43.1585 37.3999C43.0585 37.7999 42.9585 38.1999 42.8585 38.5999C42.6585 39.2999 42.5585 39.9999 42.4585 40.6999C42.3585 41.4999 42.1585 42.1999 42.0585 42.9999C41.9585 43.4999 41.8585 44.0999 41.8585 44.5999C41.7585 45.0999 41.7585 45.4999 41.6585 45.9999C41.5585 46.5999 41.4585 47.0999 41.4585 47.6999C41.4585 48.1999 41.3585 48.5999 41.2585 49.0999C41.2585 49.3999 41.1585 49.7999 41.0585 50.0999C40.9585 50.3999 40.9585 50.6999 40.9585 51.0999C40.8585 51.8999 40.7585 52.6999 40.5585 53.3999C40.4585 53.7999 40.4585 54.1999 40.3585 54.4999C40.2585 55.0999 40.1585 55.6999 39.9585 56.2999C39.8585 56.6999 39.8585 57.0999 39.6585 57.3999C39.8585 57.6999 39.8585 57.7999 40.1585 57.7999Z" fill="#DB2627"/>
<path d="M32.2585 57.8999C32.8585 57.9999 33.5585 57.8999 34.2585 57.8999C34.8585 57.8999 35.3585 57.8999 35.9585 57.8999C36.1585 57.8999 36.2585 57.8999 36.2585 57.5999C36.2585 57.0999 36.3585 56.6999 36.3585 56.1999C36.3585 55.8999 36.4585 55.5999 36.4585 55.2999C36.5585 54.6999 36.6585 54.0999 36.7585 53.5999C36.9585 52.8999 37.0585 52.1999 37.2585 51.4999C37.3585 50.8999 37.5585 50.2999 37.6585 49.6999C37.7585 49.1999 37.8585 48.6999 37.9585 48.1999C37.9585 47.9999 38.0585 47.7999 38.0585 47.5999C38.0585 47.3999 38.0585 47.3999 37.8585 47.4999C37.4585 47.6999 37.1585 47.8999 36.7585 47.9999C36.4585 48.0999 36.1585 48.2999 35.8585 48.3999C35.4585 48.4999 35.0585 48.6999 34.6585 48.7999C34.3585 48.8999 33.9585 48.9999 33.6585 49.0999C33.0585 49.2999 32.4585 49.4999 31.9585 49.6999C31.5585 49.8999 31.1585 50.0999 30.7585 50.1999C30.6585 50.2999 30.4585 50.3999 30.3585 50.3999C30.2585 50.3999 30.2585 50.4999 30.2585 50.5999C30.2585 50.8999 30.3585 51.1999 30.3585 51.4999C30.4585 52.2999 30.5585 52.9999 30.6585 53.7999C30.7585 54.2999 30.8585 54.8999 30.8585 55.3999C30.8585 55.6999 30.9585 55.8999 30.9585 56.1999C31.0585 56.6999 31.2585 57.2999 31.5585 57.7999C31.7585 57.8999 31.7585 57.8999 32.2585 57.8999Z" fill="#DB2627"/>
<path d="M20.3585 58.1999C21.1585 58.1999 21.9585 58.1999 22.7585 58.1999C23.6585 58.1999 24.5585 58.1999 25.3585 58.0999C25.5585 58.0999 25.7585 58.0999 25.9585 58.0999C26.0585 58.0999 26.1585 58.0999 26.0585 57.8999C25.6585 57.1999 25.3585 56.3999 24.9585 55.6999C24.7585 55.2999 24.5585 54.7999 24.3585 54.3999C24.1585 53.9999 24.0585 53.4999 23.8585 53.0999C23.7585 52.7999 23.6585 52.7999 23.4585 52.9999C23.1585 53.2999 22.9585 53.5999 22.6585 53.9999C22.3585 54.3999 22.0585 54.7999 21.7585 55.1999C21.3585 55.6999 20.8585 56.2999 20.5585 56.8999C20.3585 57.2999 20.1585 57.6999 19.8585 58.0999C19.7585 58.1999 19.8585 58.2999 19.9585 58.2999C20.2585 58.1999 20.2585 58.1999 20.3585 58.1999Z" fill="#DB2627"/>
<path d="M11.0585 13.8999C11.0585 13.5999 10.9585 13.2999 11.0585 12.9999C11.0585 12.7999 10.8585 12.6999 10.7585 12.6999C10.3585 12.4999 10.0586 12.2999 9.65855 12.0999C9.45855 11.9999 9.25855 11.8999 9.05855 11.7999C8.75855 11.5999 8.45855 11.4999 8.25855 11.3999C8.05855 11.2999 7.85855 11.0999 7.65855 10.9999C7.55855 10.9999 7.55855 10.8999 7.45855 10.7999C7.35855 10.6999 7.35855 10.5999 7.25855 10.6999C7.15855 10.6999 7.15855 10.8999 7.15855 10.8999C7.15855 11.0999 7.25855 11.3999 7.25855 11.5999C7.25855 11.8999 7.35855 12.1999 7.45855 12.4999C7.55855 12.8999 7.65855 13.1999 7.75855 13.5999C7.85855 14.0999 8.05855 14.5999 8.15855 15.0999C8.15855 15.2999 8.25855 15.2999 8.45855 15.2999C8.75855 15.1999 9.05855 15.0999 9.35855 15.0999C9.75855 14.9999 10.1585 14.8999 10.5585 14.6999C10.7585 14.5999 10.8585 14.4999 11.0585 14.3999C11.0585 14.0999 11.0585 13.9999 11.0585 13.8999Z" fill="#DB2627"/>
<path d="M5.45855 13.5C5.15855 12.5 4.95855 11.4 4.85855 10.4C4.85855 9.79995 4.85855 9.09995 4.85855 8.49995C4.85855 7.79995 4.95855 7.09995 5.05855 6.39995C5.15855 5.49995 5.65855 4.69995 6.35855 4.09995C6.95855 3.49995 7.65855 3.09995 8.45855 2.79995C9.15855 2.49995 9.85855 2.19995 10.5585 1.99995C10.9585 1.89995 11.3585 1.79995 11.7585 1.69995C12.2585 1.59995 12.7585 1.49995 13.2585 1.39995C13.7585 1.29995 14.2585 1.19995 14.7585 1.19995C15.4585 1.09995 16.1586 0.999951 16.7585 0.799951C17.5585 0.699951 18.3586 0.599951 19.1586 0.499951C19.7585 0.399951 20.3586 0.399951 20.9585 0.299951C21.7585 0.199951 22.5586 0.199951 23.3586 0.199951C23.9586 0.199951 24.6586 0.199951 25.2586 0.199951C26.2586 0.199951 27.2586 0.199951 28.2586 0.199951C29.0585 0.199951 29.9586 0.299951 30.7586 0.299951C31.5585 0.399951 32.3586 0.399951 33.1586 0.499951C33.6586 0.499951 34.1586 0.599951 34.7586 0.599951C35.3586 0.699951 35.9586 0.699951 36.5586 0.799951C37.2586 0.899951 38.0585 0.999951 38.7586 1.09995C39.4586 1.19995 40.0585 1.29995 40.7585 1.39995C41.6585 1.49995 42.5585 1.69995 43.3586 1.79995C44.0585 1.89995 44.7586 2.09995 45.4586 2.19995C46.0586 2.29995 46.5585 2.39995 47.1586 2.49995C48.0586 2.79995 48.8586 3.19995 49.4586 3.99995C50.1586 4.79995 50.4586 5.69995 50.5586 6.69995C50.6586 7.29995 50.5586 7.99995 50.4586 8.59995C50.4586 8.99995 50.3586 9.59995 50.1586 10.1C50.0586 10.4 49.9586 10.8 49.7586 11.1C49.6586 11.3 49.7586 11.3 49.9586 11.4C50.2586 11.4 50.4586 11.5 50.7586 11.5C51.4586 11.7 52.2586 11.7 52.9586 12C53.3586 12.2 53.7586 12.4 54.0586 12.7C54.7586 13.3 54.9586 14.2 55.0586 15C55.1586 15.8 55.0586 16.6 54.9586 17.4C54.8586 18 54.7586 18.5999 54.5586 19.2999C54.3586 20.0999 54.1586 20.9 53.8586 21.7C53.5586 22.6 53.4586 23.5 53.2586 24.4C53.0586 25.1 52.9586 25.9 52.7586 26.6C52.5586 27.1 52.4586 27.6 52.1586 28C51.8586 28.6 51.4586 29.2 50.9586 29.7C50.5586 30.2 50.0586 30.6 49.5586 30.9C49.1586 31.1999 48.7586 31.4 48.3586 31.6C48.2586 31.6 48.2586 31.6999 48.2586 31.7999C48.5586 33 48.8586 34.2999 49.1586 35.5C49.3586 36.2 49.4586 37 49.6586 37.7C49.8586 38.4 49.9586 39.2 50.1586 39.9C50.2586 41 50.4586 42 50.6586 43C50.9586 44.2999 51.1586 45.6 51.4586 46.9C51.6586 47.9 51.8586 48.7999 52.0586 49.7999C52.2586 50.7 52.4586 51.5 52.6586 52.4C52.8586 53.2 53.0586 54 53.2586 54.7999C53.3586 55.2999 53.4586 55.7 53.5586 56.2C53.7586 56.9 53.8586 57.6 54.0586 58.2C54.1586 58.7 53.8586 59.2999 53.2586 59.2999C52.8586 59.2999 52.5586 59.2999 52.1586 59.2999C51.3586 59.2999 50.6586 59.2999 49.8586 59.2999C49.2586 59.2999 48.7586 59.2999 48.1586 59.2999C47.2586 59.2999 46.3586 59.2999 45.4586 59.2999C44.5586 59.2999 43.5586 59.2999 42.6586 59.2999C41.4586 59.2999 40.2586 59.3 39.0586 59.4C37.7586 59.4 36.5585 59.4 35.2586 59.5C34.1586 59.5 33.0586 59.5 31.8586 59.5999C31.2586 59.5999 30.6586 59.5999 30.0586 59.5999C29.0586 59.5999 28.0586 59.6 26.9586 59.7C25.7586 59.7 24.4586 59.7 23.2586 59.7999C21.8586 59.7999 20.4585 59.9 19.0585 59.9C17.3585 59.9 15.6586 60 13.9585 60C13.5585 60 13.1586 59.9 12.9585 59.5C12.7585 59.2 12.8586 58.8999 12.9585 58.5999C13.2585 57.8999 13.6586 57.1 13.9585 56.4C14.3586 55.6 14.7585 54.7 15.0585 53.9C15.5585 52.8 16.0585 51.6999 16.5585 50.5999C16.8585 49.8999 17.2585 49.2999 17.5585 48.5999C17.6585 48.3999 17.6586 48.4 17.4585 48.4C16.7585 48.4 16.0586 48.2 15.3586 47.9C14.5586 47.6 13.8586 47.0999 13.1586 46.5C12.5586 46 12.0585 45.4 11.5585 44.7C10.9585 43.7999 10.3586 42.7999 9.85855 41.7999C9.55855 41.0999 9.25855 40.5 8.95855 39.7999C8.65855 39.2 8.45855 38.5 8.25855 37.7999C7.95855 37 7.75855 36.2 7.55855 35.4C7.45855 34.9 7.25855 34.4 7.15855 33.9C7.05855 33.5 6.85855 33.1 6.85855 32.7C6.75855 31.9 6.45855 31.1 6.25855 30.2C6.05855 29.2 5.75855 28.2 5.45855 27.2C5.15855 26.3 5.05855 25.2999 5.05855 24.2999C5.05855 23.2999 5.15855 22.2999 5.35855 21.2999C5.45855 20.4 5.75855 19.5 5.85855 18.6C5.95855 17.7 6.05855 16.9 5.85855 16C5.95855 15.3 5.65855 14.4 5.45855 13.5ZM40.1586 57.7999C40.4586 57.7999 40.7586 57.7999 41.0586 57.7999C41.6586 57.7999 42.2586 57.7999 42.9586 57.7999C43.7586 57.7999 44.6586 57.7999 45.4586 57.7999C46.4586 57.7999 47.4586 57.7 48.4586 57.7999C49.1586 57.7999 49.9586 57.7999 50.6586 57.7999C50.9586 57.7999 51.2586 57.7999 51.5586 57.7999C51.7586 57.7999 51.8586 57.7 51.7586 57.5C51.6586 57.2 51.5586 56.7999 51.4586 56.5C51.3586 56 51.2586 55.5 51.1586 55.0999C51.0586 54.7999 51.0586 54.5999 50.9586 54.2999C50.8586 54 50.7586 53.7 50.7586 53.2999C50.6586 52.7 50.4585 52.0999 50.3586 51.5C50.2586 51 50.1586 50.5 50.0586 50C49.9586 49.5999 49.8586 49.2 49.7586 48.7C49.6586 48.5 49.6586 48.2 49.6586 48C49.5586 47.5 49.4585 47 49.3586 46.5999C49.3586 46.3999 49.2586 46.1 49.2586 45.9C49.1586 45.7 49.1586 45.4 49.0586 45.2C48.9586 44.6 48.7586 44 48.6586 43.4C48.5586 42.9 48.4585 42.4 48.3586 41.9C48.2586 41.4 48.1586 41 48.0586 40.5C47.9586 39.7999 47.7586 39.2 47.6586 38.5C47.5586 38 47.3586 37.5 47.2586 37C47.1586 36.5999 47.0586 36.2 46.9586 35.7999C46.8586 35.2999 46.7586 34.7 46.5586 34.2C46.4586 33.7999 46.3586 33.4 46.2586 33C46.2586 32.9 46.2586 32.8999 46.1586 32.7999C46.0585 32.5999 45.9586 32.5999 45.8586 32.5999C45.4586 32.6999 45.0585 32.8 44.6586 32.9C44.3586 33 44.2586 33.1 44.1586 33.4C44.0585 33.9 43.8586 34.5 43.7585 35C43.6585 35.4 43.5586 35.7999 43.4586 36.2C43.3586 36.6 43.2586 37 43.1586 37.4C43.0586 37.8 42.9586 38.1999 42.8586 38.5999C42.6586 39.2999 42.5586 40 42.4586 40.7C42.3586 41.5 42.1586 42.2 42.0586 43C41.9586 43.5 41.8586 44.0999 41.8586 44.5999C41.7585 45.0999 41.7586 45.5 41.6586 46C41.5586 46.5999 41.4586 47.1 41.4586 47.7C41.4586 48.2 41.3586 48.5999 41.2585 49.0999C41.2585 49.3999 41.1586 49.7999 41.0586 50.0999C40.9586 50.3999 40.9586 50.6999 40.9586 51.0999C40.8586 51.8999 40.7586 52.7 40.5586 53.4C40.4586 53.8 40.4586 54.2 40.3586 54.5C40.2585 55.0999 40.1586 55.7 39.9586 56.2999C39.8586 56.7 39.8586 57.1 39.6586 57.4C39.8586 57.7 39.8586 57.7999 40.1586 57.7999ZM30.4586 51.4C30.5586 52.2 30.6586 52.9 30.7586 53.7C30.8586 54.2 30.9586 54.7999 30.9586 55.2999C30.9586 55.5999 31.0586 55.7999 31.0586 56.0999C31.1586 56.5999 31.3586 57.2 31.6586 57.7C31.7586 58 31.7586 58 32.2586 57.9C32.8586 58 33.5585 57.9 34.2586 57.9C34.8586 57.9 35.3586 57.9 35.9586 57.9C36.1586 57.9 36.2586 57.8999 36.2586 57.5999C36.2586 57.0999 36.3586 56.7 36.3586 56.2C36.3586 55.9 36.4586 55.5999 36.4586 55.2999C36.5586 54.7 36.6586 54.0999 36.7586 53.5999C36.9586 52.8999 37.0585 52.2 37.2586 51.5C37.3586 50.9 37.5586 50.2999 37.6586 49.7C37.7586 49.2 37.8586 48.7 37.9586 48.2C37.9586 48 38.0586 47.7999 38.0586 47.5999C38.0586 47.3999 38.0586 47.4 37.8586 47.5C37.4586 47.7 37.1586 47.9 36.7586 48C36.4586 48.0999 36.1586 48.3 35.8586 48.4C35.4586 48.5 35.0586 48.7 34.6586 48.7999C34.3586 48.8999 33.9586 49 33.6586 49.0999C33.0586 49.2999 32.4586 49.5 31.9586 49.7C31.5586 49.9 31.1586 50.1 30.7586 50.2C30.6586 50.2999 30.4586 50.4 30.3586 50.4C30.2586 50.4 30.2586 50.5 30.2586 50.5999C30.3586 50.8999 30.4586 51.2 30.4586 51.4ZM27.0585 32.7999C27.6586 33.0999 28.3586 33.5 28.9586 33.7999C29.4586 34.0999 29.9586 34.2999 30.4586 34.5C31.1586 34.7 31.8586 34.8999 32.5586 34.7999C33.0586 34.7999 33.4586 34.7999 33.9586 34.7C34.4586 34.6 34.9586 34.5 35.4586 34.5C36.3586 34.2999 37.2586 34.1 38.0586 33.9C38.2586 33.9 38.5585 33.8999 38.7586 33.7999C39.1586 33.5999 39.6586 33.4 40.0586 33.2C40.2586 33.1 40.4585 33 40.7585 32.9C40.8586 32.8 40.9586 32.7999 40.9586 32.5999C40.9586 32.1999 40.8586 31.7999 40.9586 31.2999C40.9586 30.5999 40.9586 30 40.9586 29.2999C40.9586 28.6999 40.9586 28.1 41.0586 27.5C41.1586 26.9 41.0585 26.3 41.2585 25.7C41.3586 25.2 41.3586 24.6 41.5586 24.1C41.7586 23.5 41.8586 23 42.0586 22.4C42.2586 22 42.4586 21.6 42.5586 21.1C42.6586 20.8 42.8586 20.5999 43.0586 20.2999C43.0586 20.1999 43.0586 20.2 43.1586 20.1C43.5586 19.6 43.8586 19.1 44.3586 18.6L44.4586 18.5C44.5586 18.5 44.5585 18.4 44.6586 18.4C45.0585 17.9 45.6586 17.7 46.2586 17.5C47.0586 17.2 47.8586 17.4 48.5586 17.7C48.4586 18 48.7586 18 48.9586 18.2C49.2586 18.5 49.2586 19 49.1586 19.2999C49.0586 19.5999 48.7586 19.7999 48.5586 20C48.3586 20.2 48.1586 20.4 47.9586 20.6C47.6586 20.9 47.4586 21.3 47.2586 21.7C47.0586 22.1 46.9586 22.5 46.8586 22.9C46.7585 23.4 46.5586 23.7999 46.4586 24.2999C46.3586 24.6999 46.2586 25.1 46.1586 25.5C46.0585 25.7999 46.0586 26.1 45.9586 26.4C45.8586 26.7999 45.7586 27.1 45.7586 27.5C45.6586 27.7999 45.6586 28.1 45.5586 28.5C45.4586 29 45.2586 29.6 45.2586 30.1C45.2586 30.3 45.1586 30.4 45.1586 30.6C45.1586 30.8 45.1586 30.9 45.3586 30.7999C46.1586 30.5999 46.9586 30.2999 47.7586 29.9C48.3586 29.6 48.8586 29.2999 49.3586 28.7999C49.8586 28.2999 50.2586 27.8 50.5586 27.2C50.7586 26.7 50.8586 26.1999 51.0586 25.7999C51.2586 25.2999 51.2586 24.7999 51.4586 24.2999C51.5586 24 51.5586 23.7999 51.5586 23.5C51.5586 23.2999 51.6586 23.1 51.6586 23C51.7586 22.7 51.7586 22.2999 51.8586 22C51.9585 21.5 52.1586 21 52.2586 20.4C52.4586 19.7999 52.5586 19.2 52.7586 18.7C52.9586 18.1 53.0586 17.4 53.0586 16.7999C53.1586 16.2999 53.1586 15.8 53.0586 15.3C52.9586 14.9 52.8586 14.5 52.5586 14.3C52.4586 14.2 52.3586 14.2 52.3586 14.2C51.7586 14 51.3586 13.8 50.9586 13.8C50.5586 13.8 50.0586 13.7 49.6586 13.6C49.3586 13.5 49.0586 13.5 48.7586 13.5C48.1586 13.4 47.6586 13.4 47.0586 13.4C46.6586 13.4 46.2586 13.5 45.9586 13.6C45.6586 13.7 45.3586 13.8 45.1586 13.9C44.8586 14.1 44.6586 14.3 44.4586 14.5C44.2586 14.7 44.1586 15 43.9586 15.1C43.6586 15.3 43.0585 15.4 42.8586 15.2C42.4586 15 42.3586 14.7 42.2585 14.3C42.2585 14.1 42.2585 14 42.3586 13.8C42.6586 13.3 43.0586 12.7 43.5586 12.3C44.0586 11.9 44.6586 11.6 45.3586 11.4C45.8586 11.3 46.4586 11.2 47.0586 11.1C47.1586 11.1 47.3586 11.2 47.4586 11.1C47.5586 11 47.6586 10.8 47.7586 10.6C47.8586 10.4 47.9586 10.1 48.0586 9.89995C48.1586 9.59995 48.2586 9.29995 48.3586 8.99995C48.3586 8.79995 48.4586 8.59995 48.4586 8.39995C48.5586 7.79995 48.6586 7.29995 48.5586 6.69995C48.2586 6.39995 48.1586 5.99995 47.9586 5.69995C47.7586 5.39995 47.4586 5.09995 47.1586 4.89995C46.7586 4.69995 46.3586 4.59995 45.9586 4.49995C45.3586 4.39995 44.7586 4.29995 44.2586 4.09995C43.7586 3.99995 43.1586 3.89995 42.6586 3.79995C41.9586 3.69995 41.1586 3.49995 40.4586 3.39995C39.8586 3.29995 39.2586 3.19995 38.6586 3.09995C38.2586 2.99995 37.7586 2.99995 37.3586 2.89995C36.6586 2.79995 35.9586 2.79995 35.1586 2.69995C35.1586 2.69995 35.0586 2.69995 34.9586 2.69995C34.4586 2.59995 33.9586 2.59995 33.4586 2.59995C33.1586 2.59995 32.9586 2.49995 32.6586 2.59995C31.9586 2.49995 31.2586 2.49995 30.5586 2.49995C30.2586 2.49995 29.9586 2.49995 29.6586 2.39995C29.2586 2.39995 28.9586 2.29995 28.5586 2.39995C28.3586 2.39995 28.1586 2.39995 27.9586 2.39995C27.5586 2.39995 27.1586 2.39995 26.6586 2.39995C26.1586 2.39995 25.6586 2.39995 25.1586 2.39995C24.7586 2.39995 24.3586 2.39995 23.9586 2.39995C23.4586 2.39995 22.9585 2.39995 22.4585 2.49995C21.9585 2.49995 21.3586 2.49995 20.8586 2.59995C20.4585 2.69995 20.1586 2.59995 19.7585 2.69995C19.2585 2.69995 18.7585 2.79995 18.2585 2.89995C17.5585 2.99995 16.8585 3.09995 16.2585 3.19995C15.8585 3.29995 15.3586 3.39995 14.9585 3.49995C14.7585 3.49995 14.5586 3.59995 14.3586 3.59995C13.9585 3.59995 13.4585 3.79995 13.0585 3.89995C12.6585 3.99995 12.2585 4.09995 11.9585 4.19995C11.4585 4.39995 10.9585 4.49995 10.4585 4.69995C9.75855 4.99995 8.95855 5.29995 8.35855 5.79995C8.05855 5.69995 7.95855 5.79995 7.95855 5.99995C7.95855 6.29995 7.85855 6.69995 7.85855 6.99995C7.85855 7.69995 7.85855 8.39995 8.25855 8.89995C8.45855 9.09995 8.65855 9.29995 8.95855 9.49995C9.35855 9.69995 9.75855 9.89995 10.1586 10.1C10.7585 10.4 11.4585 10.8 12.0585 11.2C12.2585 11.4 12.5586 11.5 12.6586 11.7C13.0586 12.2 13.5586 12.7 13.8586 13.3C14.0586 13.9 14.2586 14.4 14.3586 15.1C14.3586 15.5 14.4585 15.9 14.3586 16.2999C14.3586 16.6999 14.2585 17.1 14.1586 17.6C14.0586 17.9 14.0585 18.3 13.9585 18.6C13.8586 18.9 13.7585 19.2 13.6586 19.5C13.4585 20 13.3586 20.6 13.1586 21.1C12.9585 21.6 12.8585 22.1 12.7585 22.7C12.6586 23.2 12.5585 23.7999 12.5585 24.2999C12.5585 24.9 12.4585 25.6 12.4585 26.2C12.4585 26.8 12.4585 27.2999 12.5585 27.9C12.5585 28.1 12.6586 28.2999 12.7585 28.4C12.8585 28.6 13.0585 28.6 13.2585 28.7C14.0585 28.9 14.8586 28.7999 15.6586 28.7999C16.3586 28.7999 16.9585 28.7999 17.6586 28.7999C18.2585 28.7999 18.9585 28.8 19.5585 28.6C19.6585 28.6 19.7586 28.5 19.8586 28.5C19.9585 28.5 19.9585 28.4 19.9585 28.2999C19.7585 28 19.5586 27.6999 19.3586 27.4C19.2586 27.1999 19.0585 27.1 18.9585 26.9C18.7585 26.5 19.0585 25.9 19.4585 25.7999C19.9585 25.5999 20.3586 25.7 20.6586 26.1C20.9585 26.4 21.2585 26.7 21.4585 27C21.7585 27.4 21.9585 27.7 22.0585 28.2C22.0585 28.4 22.2585 28.5 22.2585 28.7C22.3585 28.9 22.3585 29 22.2585 29.2C22.0585 29.8 21.8586 30.2999 21.6586 30.9C21.5586 31.1 21.6586 31.2 21.8586 31.1C22.3586 31 22.7585 31.2999 23.2586 31.5C23.8586 31.7 24.4585 31.9 25.0585 32.2C25.7586 32.2 26.4585 32.5 27.0585 32.7999ZM20.1586 58.2C20.2585 58.2 20.2586 58.2 20.3586 58.2C21.1586 58.2 21.9585 58.2 22.7585 58.2C23.6585 58.2 24.5586 58.1999 25.3586 58.0999C25.5586 58.0999 25.7586 58.0999 25.9586 58.0999C26.0586 58.0999 26.1586 58.1 26.0585 57.9C25.6586 57.2 25.3586 56.4 24.9586 55.7C24.7586 55.2999 24.5586 54.8 24.3586 54.4C24.1586 54 24.0586 53.5 23.8586 53.0999C23.7586 52.7999 23.6586 52.7999 23.4586 53C23.1586 53.2999 22.9585 53.5999 22.6586 54C22.3586 54.4 22.0585 54.7999 21.7585 55.2C21.3585 55.7 20.8585 56.3 20.5585 56.9C20.3585 57.3 20.1586 57.6999 19.8586 58.0999C19.9585 58.0999 20.0586 58.2 20.1586 58.2ZM6.95855 10.8C6.95855 11 7.05855 11.3 7.05855 11.5C7.05855 11.8 7.15855 12.1 7.25855 12.4C7.35855 12.8 7.45855 13.1 7.55855 13.5C7.65855 14 7.85855 14.5 7.95855 15C7.95855 15.2 8.05855 15.2 8.25855 15.2C8.55855 15.1 8.85855 15 9.15855 15C9.55855 14.9 9.95855 14.8 10.3586 14.6C10.5586 14.5 10.6586 14.4 10.8586 14.3C10.9585 14.2 10.9585 14.1 10.9585 14C10.9585 13.7 10.8586 13.4 10.9585 13.1C10.9585 12.9 10.7585 12.8 10.6586 12.8C10.2585 12.6 9.95855 12.4 9.55855 12.2C9.35855 12.1 9.15855 12 8.95855 11.9C8.65855 11.7 8.35855 11.6 8.15855 11.5C7.95855 11.4 7.75855 11.2 7.55855 11.1C7.45855 11.1 7.45855 11 7.35855 10.9C7.25855 10.8 7.25855 10.7 7.15855 10.8C6.95855 10.6 6.95855 10.8 6.95855 10.8Z" fill="black"/>
<path d="M21.7585 16.8999C21.7585 17.4999 21.9585 17.9999 22.4585 18.4999C22.8585 18.7999 23.2586 18.9999 23.6586 19.0999C24.2586 19.2999 24.8585 19.2999 25.5585 19.3999C26.1585 19.4999 26.8585 19.4999 27.4585 19.4999C27.9585 19.4999 28.4585 19.3999 28.9585 19.3999C29.3585 19.3999 29.8585 19.2999 30.2585 19.1999C30.6585 19.0999 31.0585 19.0999 31.3585 18.9999C31.9585 18.7999 32.6585 18.5999 33.2585 18.1999C33.4585 18.0999 33.5585 17.8999 33.7585 17.7999C33.9585 17.5999 33.9585 17.3999 33.9585 17.0999C33.8585 16.6999 33.6585 16.3999 33.2585 16.1999C32.7585 15.9999 32.3585 15.7999 31.8585 15.5999C31.3585 15.3999 30.9585 15.2999 30.4585 15.0999C30.1585 14.9999 29.9586 14.8999 29.6586 14.7999C29.0586 14.5999 28.5585 14.4999 27.9585 14.2999C27.3585 14.1999 26.7585 14.0999 26.2585 13.9999C25.7585 13.8999 25.2586 13.8999 24.8586 13.9999C24.2586 14.0999 23.6586 14.1999 23.1586 14.5999C22.8586 14.7999 22.5585 14.9999 22.4585 15.3999C22.2585 15.8999 21.9586 16.2999 21.8586 16.7999C21.7586 16.6999 21.7585 16.7999 21.7585 16.8999Z" fill="black"/>
<path d="M33.6586 10.4999C33.3586 10.2999 32.9586 10.0999 32.6586 9.9999C32.2586 9.7999 31.8586 9.5999 31.4585 9.3999C31.1585 9.2999 30.8586 9.0999 30.4585 8.9999C29.8586 8.7999 29.2586 8.5999 28.6586 8.4999C28.0586 8.3999 27.4585 8.3999 26.7585 8.3999C26.3586 8.3999 25.9586 8.4999 25.4586 8.5999C25.0586 8.6999 24.5586 8.7999 24.1586 8.8999C23.2586 9.0999 22.4585 9.4999 21.5585 9.7999C20.8585 10.0999 20.2585 10.3999 19.5585 10.6999C19.3585 10.7999 19.0586 10.8999 18.8586 11.0999C18.4586 11.5999 18.6586 12.3999 19.1586 12.6999C19.5585 12.8999 19.9586 12.8999 20.3586 12.6999C20.9586 12.3999 21.6585 12.0999 22.2585 11.7999C22.6585 11.5999 22.9586 11.4999 23.3586 11.3999C23.7586 11.1999 24.2586 11.0999 24.6586 10.9999C25.1586 10.8999 25.6586 10.6999 26.1586 10.6999C26.6586 10.6999 27.1586 10.5999 27.6586 10.5999C28.1586 10.5999 28.5586 10.6999 29.0586 10.8999C29.6586 10.9999 30.2585 11.2999 30.7585 11.5999C31.3585 11.8999 31.9586 12.1999 32.5586 12.5999C33.0586 12.8999 33.5586 13.2999 34.1586 13.5999C34.5586 13.8999 34.9585 14.1999 35.3585 14.4999C35.6585 14.6999 35.9585 14.8999 36.2585 15.0999C36.3585 15.1999 36.5586 15.1999 36.6586 15.2999C37.0586 15.5999 37.6586 15.3999 37.9586 15.1999C38.0586 15.1999 38.0586 15.0999 38.1586 15.0999C38.1586 14.9999 38.2585 14.8999 38.2585 14.7999C38.4585 14.1999 38.2586 13.6999 37.6586 13.3999C37.0586 13.0999 36.5586 12.6999 36.0586 12.2999C35.7586 12.0999 35.4586 11.7999 35.1586 11.5999C34.6586 11.2999 34.2585 10.9999 33.7585 10.6999C33.6585 10.5999 33.6586 10.5999 33.6586 10.4999Z" fill="black"/>
<path d="M44.1586 18.7C43.6586 18.2 43.2585 17.7 42.7585 17.3C41.7585 16.4 40.6586 15.7 39.3586 15.3C39.0585 15.2 38.6586 15.2 38.3586 15.1C38.2586 15.1 38.2586 15.1 38.1586 15C38.0586 15 38.0586 15.1 37.9586 15.1C37.6586 15.4 37.0586 15.5 36.6586 15.2C36.5586 15.1 36.3585 15 36.2585 15C35.9585 15.1 35.7585 15.4 35.7585 15.8C35.7585 16.2 35.9585 16.4 36.2585 16.6C36.9585 16.9 37.6586 17.2 38.3586 17.4C39.1586 17.7 40.0585 18.1 40.8586 18.6C41.5586 19 42.0586 19.5 42.5586 20.1C42.6586 20.2 42.6585 20.2 42.7585 20.3C43.1585 19.8 43.4586 19.3 43.9586 18.8C44.1586 18.8 44.1586 18.7 44.1586 18.7Z" fill="#FDFDFD"/>
<path d="M33.6586 10.5C33.7586 9.59996 33.9585 8.69996 34.0585 7.79996C34.1585 6.89996 34.3585 5.99996 34.5585 5.19996C34.6585 4.59996 34.7585 3.99996 34.9585 3.39996C34.9585 3.19996 34.9585 2.99996 34.9585 2.79996C34.4585 2.69996 33.9585 2.69996 33.4585 2.69996C33.1585 2.69996 32.9586 2.59996 32.6586 2.69996C32.5586 3.39996 32.3585 4.09996 32.2585 4.79996C32.0585 5.69996 31.9585 6.59996 31.8585 7.49996C31.7585 8.09996 31.6585 8.79996 31.5585 9.39996C31.9585 9.59996 32.3585 9.79996 32.7585 9.99996C32.9585 10.2 33.2586 10.3 33.6586 10.5Z" fill="#FDFDFD"/>
<path d="M15.3586 24.1C15.3586 24.6 15.3585 25 15.4585 25.4C15.5585 25.8 15.9586 26.1 16.3586 26.1C16.8586 26.1 17.0585 25.7 17.0585 25.3C17.0585 24.8 16.9585 24.4 17.0585 23.9C17.1585 23 17.2585 22.1 17.4585 21.2C17.5585 20.8 17.6586 20.3 17.6586 19.8C17.6586 19.4 17.3585 19.1 16.9585 19C16.5585 18.9 16.1585 19.1 16.0585 19.4C15.9585 19.6 15.9585 19.9 15.9585 20.1C15.8585 21 15.6585 21.9 15.5585 22.9C15.4585 23.3 15.4586 23.7 15.3586 24.1Z" fill="#FDFDFD"/>
<path d="M12.5585 36.8C12.3585 38.2 14.1585 39.6 16.5585 40C18.9585 40.4 21.1586 39.6 21.3586 38.2C21.5586 36.8 18.7585 37.3 17.5585 37.3C15.0585 37.3 12.7585 35.5 12.5585 36.8Z" fill="white"/>
</svg>
