<svg width="152" height="152" viewBox="0 0 152 152" fill="none" xmlns="http://www.w3.org/2000/svg">
<g clip-path="url(#clip0_81_689)">
<path d="M15.9 19.45C15.9 17.5446 17.4446 16 19.35 16H132.45C134.355 16 135.9 17.5446 135.9 19.45V132.55C135.9 134.455 134.355 136 132.45 136H19.35C17.4446 136 15.9 134.455 15.9 132.55V19.45Z" fill="#EA0428"/>
<path d="M0 42.88C0 39.0692 3.08924 35.98 6.9 35.98H144.9C148.711 35.98 151.8 39.0692 151.8 42.88V49.78C151.8 53.5908 148.711 56.68 144.9 56.68H6.9C3.08924 56.68 0 53.5908 0 49.78V42.88Z" fill="#EA0428"/>
<path d="M0 72.55C0 68.7392 3.08924 65.65 6.9 65.65H144.9C148.711 65.65 151.8 68.7392 151.8 72.55V79.45C151.8 83.2608 148.711 86.35 144.9 86.35H6.9C3.08924 86.35 0 83.2608 0 79.45V72.55Z" fill="#EA0428"/>
<path d="M0 102.22C0 98.4092 3.08924 95.32 6.9 95.32H144.9C148.711 95.32 151.8 98.4092 151.8 102.22V109.12C151.8 112.931 148.711 116.02 144.9 116.02H6.9C3.08924 116.02 0 112.931 0 109.12V102.22Z" fill="#EA0428"/>
<path d="M101.931 73.5896V73.4812H68.5726V73.5896H101.931Z" fill="#EA0428"/>
<path fill-rule="evenodd" clip-rule="evenodd" d="M31.275 40C31.275 35.2366 35.1365 31.375 39.9 31.375H101.931C106.694 31.375 110.556 35.2366 110.556 40V64.8562H111.9C116.663 64.8562 120.525 68.7178 120.525 73.4812V112C120.525 116.763 116.663 120.625 111.9 120.625H68.5726C63.8091 120.625 59.9476 116.763 59.9476 112C59.9476 107.237 63.8091 103.375 68.5726 103.375H103.275V82.1105C102.837 82.179 102.388 82.2146 101.931 82.2146H68.5726C63.8091 82.2146 59.9476 78.353 59.9476 73.5896V73.4812C59.9476 68.7178 63.8091 64.8562 68.5726 64.8562H93.3058V48.625H48.525V112C48.525 116.763 44.6634 120.625 39.9 120.625C35.1365 120.625 31.275 116.763 31.275 112V40Z" fill="white"/>
</g>
<defs>
<clipPath id="clip0_81_689">
<rect width="151.8" height="151.8" fill="white"/>
</clipPath>
</defs>
</svg>
