<svg width="93" height="31" viewBox="0 0 93 31" fill="none" xmlns="http://www.w3.org/2000/svg">
<path d="M3.7985 30C1.58941 30 0.484863 28.8955 0.484863 26.6864V4.47274C0.484863 2.26365 1.58941 1.15911 3.7985 1.15911H13.6985C16.7803 1.15911 19.153 1.82729 20.8167 3.16365C22.5076 4.50002 23.353 6.32729 23.353 8.64547C23.353 10.1727 22.9712 11.4955 22.2076 12.6137C21.444 13.7046 20.3803 14.5227 19.0167 15.0682C20.653 15.5318 21.9076 16.35 22.7803 17.5227C23.6803 18.6955 24.1303 20.1409 24.1303 21.8591C24.1303 24.4227 23.2303 26.4273 21.4303 27.8727C19.6576 29.2909 17.2303 30 14.1485 30H3.7985ZM6.53941 13.0227H12.594C15.703 13.0227 17.2576 11.8227 17.2576 9.42274C17.2576 7.05002 15.703 5.86365 12.594 5.86365H6.53941V13.0227ZM6.53941 25.2955H13.2894C14.9258 25.2955 16.1258 24.9818 16.8894 24.3546C17.653 23.7273 18.0349 22.7727 18.0349 21.4909C18.0349 20.2364 17.653 19.2955 16.8894 18.6682C16.1258 18.0409 14.9258 17.7273 13.2894 17.7273H6.53941V25.2955Z" fill="white"/>
<path d="M31.8749 30.3682C30.9476 30.3682 30.2386 30.1091 29.7476 29.5909C29.2567 29.0727 29.0113 28.35 29.0113 27.4227V3.73638C29.0113 2.78183 29.2704 2.05911 29.7886 1.5682C30.3067 1.05001 31.0431 0.790924 31.9976 0.790924C32.8158 0.790924 33.4567 0.95456 33.9204 1.28183C34.4113 1.60911 34.8613 2.14092 35.2704 2.87729L44.0249 18.8727L52.7795 2.87729C53.1886 2.14092 53.6249 1.60911 54.0886 1.28183C54.5795 0.95456 55.2204 0.790924 56.0113 0.790924C56.9386 0.790924 57.6476 1.05001 58.1386 1.5682C58.6567 2.05911 58.9158 2.78183 58.9158 3.73638V27.4227C58.9158 29.3864 57.9613 30.3682 56.0522 30.3682C54.1158 30.3682 53.1476 29.3864 53.1476 27.4227V12.4091L46.4386 24.4773C46.1113 24.9955 45.7567 25.3909 45.3749 25.6637C45.0204 25.9091 44.5431 26.0318 43.9431 26.0318C43.3431 26.0318 42.8522 25.9091 42.4704 25.6637C42.0886 25.3909 41.7476 24.9955 41.4476 24.4773L34.7386 12.5318V27.4227C34.7386 29.3864 33.784 30.3682 31.8749 30.3682Z" fill="white"/>
<path d="M78.1421 30.45C75.3058 30.45 72.8103 29.8364 70.6558 28.6091C68.5285 27.3546 66.8649 25.6227 65.6649 23.4137C64.4921 21.1773 63.9058 18.5591 63.9058 15.5591C63.9058 12.5591 64.4921 9.95456 65.6649 7.74547C66.8649 5.50911 68.5285 3.77729 70.6558 2.55002C72.7831 1.32274 75.2785 0.709106 78.1421 0.709106C81.0058 0.709106 83.5012 1.32274 85.6285 2.55002C87.7831 3.77729 89.4467 5.50911 90.6194 7.74547C91.8194 9.95456 92.4194 12.5455 92.4194 15.5182C92.4194 18.5182 91.8194 21.1364 90.6194 23.3727C89.4467 25.6091 87.7831 27.3546 85.6285 28.6091C83.5012 29.8364 81.0058 30.45 78.1421 30.45ZM78.1421 25.05C80.5421 25.05 82.4103 24.2182 83.7467 22.5546C85.1103 20.8637 85.7921 18.5318 85.7921 15.5591C85.7921 12.5591 85.124 10.2409 83.7876 8.60456C82.4512 6.94092 80.5694 6.10911 78.1421 6.10911C75.7694 6.10911 73.9012 6.94092 72.5376 8.60456C71.2012 10.2409 70.5331 12.5591 70.5331 15.5591C70.5331 18.5318 71.2012 20.8637 72.5376 22.5546C73.9012 24.2182 75.7694 25.05 78.1421 25.05Z" fill="white"/>
</svg>
