<?xml version="1.0" encoding="utf-8"?>
<!-- Generator: Adobe Illustrator 21.1.0, SVG Export Plug-In . SVG Version: 6.00 Build 0)  -->
<svg version="1.1" id="圖層_1" xmlns="http://www.w3.org/2000/svg" xmlns:xlink="http://www.w3.org/1999/xlink" x="0px" y="0px"
	 viewBox="0 0 303 303" style="enable-background:new 0 0 303 303;" xml:space="preserve">
<style type="text/css">
	.st0{fill:#FFFFFF;}
	.st1{fill:#FF2F30;}
	.st2{enable-background:new    ;}
	.st3{fill-opacity:0.2;}
</style>
<polygon id="Polygon" class="st0" points="213.9,0.8 302.2,89.1 302.2,213.9 213.9,302.2 89.1,302.2 0.8,213.9 0.8,89.1 89.1,0.8 
	"/>
<polygon id="Polygon_1_" class="st1" points="203.8,25.2 277.8,99.2 277.8,203.8 203.8,277.8 99.2,277.8 25.2,203.8 25.2,99.2 
	99.2,25.2 "/>
<g class="st2">
	<path class="st0" d="M83.6,164.1c0-2.2-0.8-3.9-2.3-5.1c-1.6-1.2-4.4-2.4-8.4-3.8c-4.1-1.3-7.3-2.6-9.6-3.9
		c-6.5-3.5-9.7-8.2-9.7-14.1c0-3.1,0.9-5.8,2.6-8.2c1.7-2.4,4.2-4.3,7.5-5.6c3.2-1.4,6.9-2,10.9-2c4.1,0,7.7,0.7,10.9,2.2
		c3.2,1.5,5.6,3.5,7.4,6.2c1.8,2.7,2.6,5.7,2.6,9.1H83.6c0-2.6-0.8-4.6-2.5-6.1s-3.9-2.2-6.9-2.2c-2.9,0-5.1,0.6-6.7,1.8
		c-1.6,1.2-2.4,2.8-2.4,4.8c0,1.8,0.9,3.4,2.8,4.6c1.9,1.2,4.6,2.4,8.2,3.5c6.7,2,11.5,4.5,14.6,7.5s4.6,6.7,4.6,11.1
		c0,4.9-1.9,8.8-5.6,11.6c-3.7,2.8-8.7,4.2-15,4.2c-4.4,0-8.4-0.8-12-2.4s-6.3-3.8-8.2-6.6c-1.9-2.8-2.8-6-2.8-9.7h11.8
		c0,6.3,3.8,9.4,11.2,9.4c2.8,0,5-0.6,6.5-1.7S83.6,166.1,83.6,164.1z"/>
	<path class="st0" d="M146.1,131.6h-17.4V179h-11.7v-47.4H99.7v-9.5h46.3V131.6z"/>
	<path class="st0" d="M198.4,151.9c0,5.6-1,10.5-3,14.7c-2,4.2-4.8,7.5-8.5,9.8c-3.7,2.3-7.9,3.4-12.7,3.4c-4.7,0-8.9-1.1-12.6-3.4
		c-3.7-2.3-6.6-5.5-8.6-9.7c-2-4.2-3.1-9-3.1-14.5v-2.8c0-5.6,1-10.5,3-14.8c2-4.3,4.9-7.5,8.6-9.8c3.7-2.3,7.9-3.4,12.6-3.4
		c4.7,0,9,1.1,12.6,3.4c3.7,2.3,6.5,5.5,8.6,9.8c2,4.3,3,9.2,3,14.7V151.9z M186.5,149.3c0-6-1.1-10.5-3.2-13.6
		c-2.1-3.1-5.2-4.6-9.1-4.6c-3.9,0-7,1.5-9.1,4.6c-2.1,3.1-3.2,7.5-3.2,13.5v2.8c0,5.8,1.1,10.3,3.2,13.5c2.1,3.2,5.2,4.8,9.2,4.8
		c3.9,0,7-1.5,9.1-4.6s3.2-7.6,3.2-13.5V149.3z"/>
	<path class="st0" d="M218.6,159v20h-11.7v-56.9h22.2c4.3,0,8,0.8,11.3,2.3s5.7,3.8,7.5,6.7c1.7,2.9,2.6,6.2,2.6,9.8
		c0,5.6-1.9,10-5.7,13.2c-3.8,3.2-9.1,4.8-15.8,4.8H218.6z M218.6,149.5h10.5c3.1,0,5.5-0.7,7.1-2.2c1.6-1.5,2.4-3.5,2.4-6.2
		c0-2.8-0.8-5-2.5-6.8s-3.9-2.6-6.8-2.7h-10.7V149.5z"/>
</g>
<polygon id="Polygon_2_" class="st3" points="213.9,0.8 302.2,89.1 302.2,213.9 213.9,302.2 151,302.2 151,0.8 "/>
</svg>
